<?xml version="1.0" encoding="UTF-8" standalone="no"?>
<svg
   height="1024"
   width="1024"
   viewBox="-19.5036 -32.49725 144.23996 249.57889"
   version="1.1"
   id="svg9"
   xmlns:xlink="http://www.w3.org/1999/xlink"
   xmlns="http://www.w3.org/2000/svg"
   xmlns:svg="http://www.w3.org/2000/svg">
  <defs
     id="defs7">
    <radialGradient
       fy="578.08801"
       fx="158.429"
       gradientTransform="matrix(0,-1.98198,1.8439,0,-1078.3417,421.50674)"
       gradientUnits="userSpaceOnUse"
       xlink:href="#a"
       r="65"
       cy="578.08801"
       cx="158.429"
       id="c" />
    <radialGradient
       fy="473.45499"
       fx="147.694"
       gradientTransform="matrix(0.17394,0.86872,-3.5818,0.71718,1601.4083,-490.99026)"
       gradientUnits="userSpaceOnUse"
       xlink:href="#b"
       r="65"
       cy="473.45499"
       cx="147.694"
       id="d" />
    <linearGradient
       id="b">
      <stop
         stop-color="#3771c8"
         offset="0"
         id="stop1" />
      <stop
         offset=".128"
         stop-color="#3771c8"
         id="stop2" />
      <stop
         stop-opacity="0"
         stop-color="#60f"
         offset="1"
         id="stop3" />
    </linearGradient>
    <linearGradient
       id="a">
      <stop
         stop-color="#fd5"
         offset="0"
         id="stop4" />
      <stop
         stop-color="#fd5"
         offset=".1"
         id="stop5" />
      <stop
         stop-color="#ff543e"
         offset=".5"
         id="stop6" />
      <stop
         stop-color="#c837ab"
         offset="1"
         id="stop7" />
    </linearGradient>
    <clipPath
       clipPathUnits="userSpaceOnUse"
       id="clipPath3">
      <use
         x="0"
         y="0"
         xlink:href="#g2"
         id="use3" />
    </clipPath>
  </defs>
  <g
     id="g3"
     clip-path="url(#clipPath3)"
     transform="matrix(1.9908158,0,0,1.9908158,17.728067,26.147115)">
    <g
       id="g2">
      <circle
         style="fill:#222222;stroke-width:0.249578"
         id="path1"
         cx="17.524632"
         cy="33.225113"
         r="62.394722" />
    </g>
    <g
       id="layer1"
       style="display:inline">
      <path
         d="m 18.090353,-32.49725 c -27.1419997,0 -35.08,0.028 -36.623,0.156 -5.57,0.463 -9.036,1.34 -12.812,3.22 -2.91,1.445 -5.205,3.12 -7.47,5.468 -4.125,4.282 -6.625,9.55 -7.53,15.8120004 -0.44,3.04 -0.568,3.66 -0.594,19.1879996 -0.01,5.176 0,11.988 0,21.125 0,27.12 0.03,35.05 0.16,36.59 0.45,5.42 1.3,8.83 3.1,12.56 3.44,7.14 10.01,12.5 17.75,14.5 2.68,0.69 5.64,1.07 9.44,1.25 1.61,0.07 18.0200003,0.12 34.44,0.12 16.42,0 32.84,-0.02 34.41,-0.1 4.4,-0.207 6.955,-0.55 9.78,-1.28 a 27.22,27.22 0 0 0 17.75,-14.53 c 1.765,-3.64 2.66,-7.18 3.065,-12.317 0.088,-1.12 0.125,-18.977 0.125,-36.81 0,-17.836 -0.04,-35.6599996 -0.128,-36.7799996 -0.41,-5.22 -1.305,-8.7300004 -3.127,-12.4400004 -1.495,-3.037 -3.155,-5.305 -5.565,-7.624 -4.3,-4.108 -9.56,-6.608 -15.829,-7.512 -3.037,-0.439 -3.642,-0.569 -19.182,-0.596 z"
         fill="url(#c)"
         id="path7"
         style="display:inline;fill:url(#c)" />
      <path
         d="m 18.090353,-32.49725 c -27.1419997,0 -35.08,0.028 -36.623,0.156 -5.57,0.463 -9.036,1.34 -12.812,3.22 -2.91,1.445 -5.205,3.12 -7.47,5.468 -4.125,4.282 -6.625,9.55 -7.53,15.8120004 -0.44,3.04 -0.568,3.66 -0.594,19.1879996 -0.01,5.176 0,11.988 0,21.125 0,27.12 0.03,35.05 0.16,36.59 0.45,5.42 1.3,8.83 3.1,12.56 3.44,7.14 10.01,12.5 17.75,14.5 2.68,0.69 5.64,1.07 9.44,1.25 1.61,0.07 18.0200003,0.12 34.44,0.12 16.42,0 32.84,-0.02 34.41,-0.1 4.4,-0.207 6.955,-0.55 9.78,-1.28 a 27.22,27.22 0 0 0 17.75,-14.53 c 1.765,-3.64 2.66,-7.18 3.065,-12.317 0.088,-1.12 0.125,-18.977 0.125,-36.81 0,-17.836 -0.04,-35.6599996 -0.128,-36.7799996 -0.41,-5.22 -1.305,-8.7300004 -3.127,-12.4400004 -1.495,-3.037 -3.155,-5.305 -5.565,-7.624 -4.3,-4.108 -9.56,-6.608 -15.829,-7.512 -3.037,-0.439 -3.642,-0.569 -19.182,-0.596 z"
         fill="url(#d)"
         id="path8"
         style="display:inline;fill:url(#d)" />
      <path
         d="m 18.078044,-6.4632067 c -11.2400522,0 -12.6506633,0.049147 -17.0652895,0.2500472 -4.4060043,0.2017622 -7.4134683,0.8993076 -10.0449993,1.9227766 -2.7220652,1.0570961 -5.0311222,2.4711561 -7.3315562,4.77245277 -2.302159,2.30043413 -3.716219,4.60949063 -4.776764,7.33069363 -1.026055,2.6323935 -1.724463,5.6407195 -1.922776,10.0449985 -0.196589,4.414626 -0.248323,5.8261 -0.248323,17.066152 0,11.240052 0.05001,12.646352 0.250047,17.060978 0.202625,4.406004 0.90017,7.413468 1.922777,10.045 1.057958,2.722065 2.472018,5.031121 4.773314,7.331556 2.299572,2.302158 4.608629,3.719667 7.3289702,4.776763 2.633255,1.023469 5.641582,1.721015 10.0467236,1.922777 4.4146262,0.2009 5.8243751,0.250047 17.0635652,0.250047 11.240914,0 12.647214,-0.04915 17.06184,-0.250047 4.406004,-0.201762 7.416917,-0.899308 10.050173,-1.922777 2.721203,-1.057096 5.026811,-2.474605 7.326383,-4.776763 2.302158,-2.300435 3.716218,-4.609491 4.776763,-7.330694 1.017434,-2.632394 1.715841,-5.64072 1.922777,-10.044999 0.198313,-4.414627 0.250047,-5.821789 0.250047,-17.061841 0,-11.240052 -0.05173,-12.650663 -0.250047,-17.06529 C 59.004733,13.452621 58.306326,10.445157 57.288892,7.8136255 56.228347,5.0915605 54.814287,2.782504 52.512129,0.48206987 50.20997,-1.8200891 47.907811,-3.2341491 45.183159,-4.2903829 42.54473,-5.3138519 39.535542,-6.0113973 35.129538,-6.2131595 c -4.414627,-0.2009 -5.820064,-0.2500472 -17.063565,-0.2500472 z m -3.71277,7.45830447 c 1.101932,-0.00172 2.331475,0 3.71277,0 11.050361,0 12.360091,0.039663 16.723846,0.23797593 4.035244,0.1845176 6.225312,0.8587828 7.684208,1.425269 1.931399,0.7501416 3.308383,1.6468625 4.75607,3.0954117 1.44855,1.4485491 2.345271,2.8281201 3.097137,4.7595186 0.566486,1.457171 1.241613,3.64724 1.425269,7.682484 0.198313,4.362892 0.241425,5.673484 0.241425,16.718672 0,11.045188 -0.04311,12.35578 -0.241425,16.718673 -0.184518,4.035244 -0.858783,6.225313 -1.425269,7.682484 -0.750142,1.931399 -1.648587,3.306659 -3.097137,4.754346 -1.448549,1.448549 -2.823808,2.34527 -4.75607,3.095411 -1.457171,0.569073 -3.648964,1.241614 -7.684208,1.426132 -4.362893,0.198313 -5.673485,0.241425 -16.723846,0.241425 -11.0512235,0 -12.3609534,-0.04311 -16.7238458,-0.241425 -4.0352443,-0.186242 -6.225313,-0.860508 -7.685071,-1.426994 -1.931399,-0.750141 -3.31097,-1.646862 -4.7595192,-3.095412 -1.448549,-1.448549 -2.34527,-2.824671 -3.097136,-4.756932 -0.566486,-1.457171 -1.241614,-3.64724 -1.425269,-7.682484 -0.198314,-4.362892 -0.237976,-5.673485 -0.237976,-16.72557 0,-11.052086 0.03966,-12.355781 0.237976,-16.718673 0.184517,-4.035244 0.858783,-6.225312 1.425269,-7.684208 0.750141,-1.9313985 1.648587,-3.3109695 3.097136,-4.7595188 C -9.6418428,4.293134 -8.2622718,3.396413 -6.3308728,2.644547 -4.8719768,2.0754741 -2.6810461,1.4029333 1.3541982,1.2175535 5.1721602,1.0451072 6.6517498,0.99337327 14.365274,0.98475097 Z m 25.80487,6.87198673 a 4.9664545,4.9664545 0 1 0 4.966455,4.9647295 c 0,-2.741897 -2.224558,-4.9664545 -4.966455,-4.9664545 z m -22.0921,5.8028185 c -11.7375599,0 -21.2540111,9.516451 -21.2540111,21.254011 0,11.73756 9.5164512,21.2497 21.2540111,21.2497 11.73756,0 21.251424,-9.51214 21.251424,-21.2497 0,-11.73756 -9.514726,-21.254011 -21.252286,-21.254011 z m 0,7.458304 c 7.618679,0 13.795707,6.176165 13.795707,13.795707 0,7.618679 -6.177028,13.795707 -13.795707,13.795707 -7.619541,0 -13.7957069,-6.177028 -13.7957069,-13.795707 0,-7.619542 6.1761659,-13.795707 13.7957069,-13.795707 z"
         fill="#ffffff"
         id="path9"
         style="display:inline;stroke-width:0.862232" />
    </g>
  </g>
</svg>
