<?xml version="1.0" encoding="UTF-8" standalone="no"?>
<!-- Created with Inkscape (http://www.inkscape.org/) -->

<svg
   width="512"
   height="512"
   viewBox="0 0 512 512"
   version="1.1"
   id="svg1"
   xml:space="preserve"
   xmlns="http://www.w3.org/2000/svg"
   xmlns:svg="http://www.w3.org/2000/svg"><defs
     id="defs1" /><g
     id="layer1"><path
       style="fill:#ca000d;fill-opacity:1;stroke-width:0.939266"
       d="m 253.26244,511.53631 c -4.60879,-1.12989 -6.98396,-2.98727 -10.23542,-8.00413 C 231.63882,485.9608 100.02241,269.48666 95.863351,261.48692 82.47717,235.7393 76.300024,209.95912 76.298493,179.83343 76.296614,144.83007 85.014427,114.33165 103.57621,84.403879 129.9203,41.928474 174.43757,11.839692 224.19009,2.8821409 297.21399,-10.26524 369.75196,22.281254 409.29766,85.936611 c 32.52419,52.353049 35.22337,121.401179 6.86252,175.550309 -3.99984,7.63685 -139.85908,232.18641 -147.09848,243.12587 -4.04188,6.10771 -9.45359,8.47921 -15.79926,6.92352 z m 25.04709,-244.34279 c 32.62354,-8.94714 55.25726,-31.5884 64.79613,-64.81771 1.96208,-6.83506 2.29067,-10.2276 2.23189,-23.04331 -0.0613,-13.37179 -0.36935,-16.01669 -2.79444,-23.99577 -9.17231,-30.1789 -32.07735,-53.08609 -62.27925,-62.285116 -8.13967,-2.479211 -10.44735,-2.733742 -24.99765,-2.757177 -14.63417,-0.02358 -16.79857,0.210658 -24.85419,2.689784 -24.54238,7.552949 -44.57116,24.482839 -56.15632,47.467719 -10.10253,20.04333 -11.40279,48.49527 -3.24352,70.97379 7.37767,20.32525 24.66376,39.61597 44.1787,49.30198 6.99437,3.47157 17.52399,7.07015 24.30289,8.30569 7.85763,1.43215 30.86081,0.34179 38.81576,-1.83988 z"
       id="path1-6" /></g></svg>
