<?xml version="1.0" encoding="UTF-8" standalone="no"?>
<!-- Created with Inkscape (http://www.inkscape.org/) -->

<svg
   width="110.62066mm"
   height="116.69656mm"
   viewBox="0 0 110.62066 116.69656"
   version="1.1"
   id="svg1"
   xmlns="http://www.w3.org/2000/svg"
   xmlns:svg="http://www.w3.org/2000/svg">
  <defs
     id="defs1" />
  <g
     id="layer1"
     transform="translate(-39.252084,-52.340167)">
    <g
       class="st1"
       id="g2"
       style="opacity:0.2"
       transform="matrix(2.8894115,0,0,2.8894115,1.5852754,13.97165)">
		<path
   class="st2"
   d="M 32.1,39.7 C 30.5,41.2 26,52.2 26,52.2 c -0.7,1.2 0.3,2.1 2.6,0.9 l 8.1,-4.4 c 4.4,-2.4 5.2,-3.1 5.2,-8 l -0.8,-5.9 c -0.3,-2 -1.8,-2.4 -3.3,-0.8 z"
   id="path1"
   style="fill:#231f20" />

	</g>
    <g
       class="st1"
       id="g3"
       style="opacity:0.2"
       transform="matrix(2.8894115,0,0,2.8894115,1.5852754,13.97165)">
		<path
   class="st2"
   d="m 27.1,34.7 c -1.6,1.6 -12.5,6.1 -12.5,6.1 -1.2,0.7 -2.1,-0.3 -0.9,-2.6 L 18,30 c 2.4,-4.4 3.1,-5.2 8,-5.2 l 5.9,0.8 c 2,0.3 2.4,1.8 0.8,3.3 z"
   id="path2"
   style="fill:#231f20" />

	</g>
    <g
       id="g4"
       style="fill:#ca000d;fill-opacity:1"
       transform="matrix(2.8894115,0,0,2.8894115,1.5852754,13.97165)">
		<path
   class="st3"
   d="M 32.1,37.7 C 30.5,39.2 26,50.2 26,50.2 c -0.7,1.2 0.3,2.1 2.6,0.9 l 8.1,-4.4 c 4.4,-2.4 5.2,-3.1 5.2,-8 l -0.8,-5.9 c -0.3,-2 -1.8,-2.4 -3.3,-0.8 z"
   id="path3"
   style="fill:#ca000d;fill-opacity:1" />

	</g>
    <g
       id="g5"
       style="fill:#ca000d;fill-opacity:1"
       transform="matrix(2.8894115,0,0,2.8894115,1.5852754,13.97165)">
		<path
   class="st3"
   d="m 27.1,32.7 c -1.6,1.6 -12.5,6.1 -12.5,6.1 -1.2,0.7 -2.1,-0.3 -0.9,-2.6 L 18,28 c 2.4,-4.4 3.1,-5.2 8,-5.2 l 5.9,0.8 c 2,0.3 2.4,1.8 0.8,3.3 z"
   id="path4"
   style="fill:#ca000d;fill-opacity:1" />

	</g>
    <g
       class="st1"
       id="g6"
       style="opacity:0.2"
       transform="matrix(2.8894115,0,0,2.8894115,1.5852754,13.97165)">
		<path
   class="st2"
   d="m 21.2,39.5 c 5.1,-5.1 9.3,-3.5 9.3,-3.5 0,0 1.5,4.3 -3.5,9.3 -5,5 -13.3,8.8 -13.9,8.1 -0.6,-0.5 3.1,-8.8 8.1,-13.9 z"
   id="path5"
   style="fill:#231f20" />

	</g>
    <g
       id="g7"
       style="fill:#e57300;fill-opacity:1"
       transform="matrix(2.8894115,0,0,2.8894115,1.5852754,13.97165)">
		<path
   class="st4"
   d="m 21.2,37.5 c 5.1,-5.1 9.3,-3.5 9.3,-3.5 0,0 1.5,4.3 -3.5,9.3 -5,5 -13.3,8.8 -13.9,8.1 -0.6,-0.5 3.1,-8.8 8.1,-13.9 z"
   id="path6"
   style="fill:#e57300;fill-opacity:1" />

	</g>
    <g
       id="g8"
       style="fill:#f9c03f;fill-opacity:1"
       transform="matrix(2.8894115,0,0,2.8894115,1.5852754,13.97165)">
		<path
   class="st5"
   d="m 25.5,33.3 c 5.1,-5.1 9.3,-3.5 9.3,-3.5 0,0 1.5,4.3 -3.5,9.3 -5,5 -13.3,8.8 -13.9,8.1 -0.7,-0.6 3,-8.8 8.1,-13.9 z"
   id="path7"
   style="fill:#f9c03f;fill-opacity:1" />

	</g>
    <g
       class="st1"
       id="g9"
       style="opacity:0.2"
       transform="matrix(2.8894115,0,0,2.8894115,1.5852754,13.97165)">
		<path
   class="st2"
   d="m 43.6,37.1 c -7.8,7.8 -19.8,5.7 -19.8,5.7 0,0 -2.1,-12 5.7,-19.8 7.8,-7.8 19.6,-8.6 21.2,-7.1 1.5,1.5 0.7,13.4 -7.1,21.2 z"
   id="path8"
   style="fill:#231f20" />

	</g>
    <g
       id="g10"
       style="fill:#ddd7bc;fill-opacity:1"
       transform="matrix(2.8894115,0,0,2.8894115,1.5852754,13.97165)">
		<path
   class="st6"
   d="m 43.6,35.1 c -7.8,7.8 -19.8,5.7 -19.8,5.7 0,0 -2.1,-12 5.7,-19.8 7.8,-7.8 19.6,-8.6 21.2,-7.1 1.5,1.5 0.7,13.4 -7.1,21.2 z"
   id="path9"
   style="fill:#ddd7bc;fill-opacity:1" />

	</g>
    <g
       class="st1"
       id="g11"
       style="opacity:0.2"
       transform="matrix(2.8894115,0,0,2.8894115,1.5852754,13.97165)">
		<path
   class="st2"
   d="m 21,47 c -0.8,0.8 -1.3,1.5 -2.1,0.7 v 0 c -0.8,-0.8 -0.1,-1.3 0.7,-2.1 l 9.9,-12.7 c 0.8,-0.8 4.2,-1.5 4.9,-0.7 v 0 c 0.8,0.8 0.1,4.2 -0.7,4.9 z"
   id="path10"
   style="fill:#231f20" />

	</g>
    <g
       id="g12"
       style="fill:#ca000d;fill-opacity:1"
       transform="matrix(2.8894115,0,0,2.8894115,1.5852754,13.97165)">
		<path
   class="st3"
   d="m 21,45 c -0.8,0.8 -1.3,1.5 -2.1,0.7 v 0 c -0.8,-0.8 -0.1,-1.3 0.7,-2.1 l 9.9,-12.7 c 0.8,-0.8 4.2,-1.5 4.9,-0.7 v 0 c 0.8,0.8 0.1,4.2 -0.7,4.9 z"
   id="path11"
   style="fill:#ca000d;fill-opacity:1" />

	</g>
    <g
       class="st1"
       id="g13"
       style="opacity:0.2"
       transform="matrix(2.8894115,0,0,2.8894115,1.5852754,13.97165)">
		<circle
   class="st2"
   cx="39.599998"
   cy="27.1"
   r="4"
   id="circle12"
   style="fill:#231f20" />

	</g>
    <g
       class="st1"
       id="g14"
       style="opacity:0.2"
       transform="matrix(2.8894115,0,0,2.8894115,1.5852754,13.97165)">
		<circle
   class="st2"
   cx="45.299999"
   cy="21.5"
   r="2"
   id="circle13"
   style="fill:#231f20" />

	</g>
    <g
       id="g15"
       style="fill:#31283f;fill-opacity:1"
       transform="matrix(2.8894115,0,0,2.8894115,1.5852754,13.97165)">
		<circle
   class="st0"
   cx="39.599998"
   cy="25.1"
   r="4"
   id="circle14"
   style="fill:#31283f;fill-opacity:1" />

	</g>
    <g
       id="g16"
       style="fill:#31283f;fill-opacity:1"
       transform="matrix(2.8894115,0,0,2.8894115,1.5852754,13.97165)">
		<circle
   class="st0"
   cx="45.299999"
   cy="19.5"
   r="2"
   id="circle15"
   style="fill:#31283f;fill-opacity:1" />

	</g>
  </g>
</svg>
