<?xml version="1.0" encoding="UTF-8" standalone="no"?>
<!-- Created with Inkscape (http://www.inkscape.org/) -->

<svg
   width="512"
   height="512"
   viewBox="0 0 512 512"
   version="1.1"
   id="svg1"
   xml:space="preserve"
   xmlns="http://www.w3.org/2000/svg"
   xmlns:svg="http://www.w3.org/2000/svg"><defs
     id="defs1" /><g
     id="layer1"><path
       style="fill:#ca000d;fill-opacity:1;stroke-width:10.4374"
       d="M 59.000723,438.89185 C 35.69437,436.01028 16.525331,422.06603 6.5196693,400.71535 -0.21991113,386.33408 8.3567114e-4,391.23823 8.3567114e-4,255.9347 8.3567114e-4,120.86466 -0.20268543,125.43983 6.4148653,111.43515 15.22514,92.788819 29.67791,80.490139 49.535816,74.741176 l 7.964836,-2.305951 H 256.00013 454.49951 l 7.96483,2.305951 c 19.85791,5.748963 34.31068,18.047643 43.12095,36.693974 6.61713,14.00468 6.41403,9.42951 6.41403,144.49955 0,135.07005 0.20353,130.49488 -6.41403,144.49956 -8.68482,18.3808 -22.871,30.59285 -42.59291,36.66537 l -7.49285,2.3072 -194.99949,0.144 C 153.25045,439.63433 62.575656,439.33374 59.000723,438.8912 Z M 274.00007,347.74969 c 14.66526,-3.47767 29.90347,-11.62057 41.8387,-22.35738 7.12264,-6.40768 149.90044,-161.57099 153.40147,-166.70863 7.57823,-11.12112 6.10947,-24.52878 -3.76918,-34.40742 -5.37301,-5.373 -12.13188,-8.34111 -18.9941,-8.34111 -4.80384,0 -12.16102,2.52127 -16.08049,5.51079 -1.93209,1.47365 -33.2426,34.69903 -69.579,73.83403 -84.05533,90.52947 -82.71578,89.15716 -90.81746,93.03969 -5.93787,2.84557 -7.36456,3.11497 -16.49986,3.11497 -8.79347,0 -10.70071,-0.32775 -15.80671,-2.72074 -3.19377,-1.49631 -7.51571,-4.19628 -9.60445,-5.99997 -2.08875,-1.8036 -36.33012,-39.0542 -76.09177,-82.77905 C 112.23548,156.21 78.082602,119.26429 76.101894,117.8332 c -4.991212,-3.60615 -9.375356,-4.90174 -16.500389,-4.87607 -7.196542,0.0209 -12.646455,2.21754 -18.368177,7.38681 -8.398723,7.58773 -10.934495,21.61057 -5.787997,32.00774 1.743586,3.52266 24.19155,29.03099 73.114909,83.0831 38.82925,42.89988 73.37551,80.86325 76.76936,84.36294 24.73355,25.50551 56.61095,35.55431 88.67047,27.95197 z"
       id="path1" /></g></svg>
