<?xml version="1.0" encoding="UTF-8" standalone="no"?>
<!-- Created with Inkscape (http://www.inkscape.org/) -->

<svg
   version="1.1"
   id="svg1"
   width="517.38947"
   height="517.38947"
   viewBox="0 0 517.38947 517.38947"
   xmlns="http://www.w3.org/2000/svg"
   xmlns:svg="http://www.w3.org/2000/svg">
  <defs
     id="defs1" />
  <g
     id="g1">
    <path
       style="fill:#ffffff"
       d="m 188.94453,516.69095 c -1.94527,-0.2624 -3.96884,-0.89941 -4.49684,-1.41557 -0.528,-0.51617 -1.72587,-0.93848 -2.66194,-0.93848 -0.93606,0 -5.39842,-1.85016 -9.91636,-4.11146 -25.67206,-12.84927 -37.6287,-42.63774 -27.95923,-69.65696 4.10681,-11.47559 4.30526,-10.92458 -5.0414,-13.99768 -10.89735,-3.58296 -18.68885,-8.45195 -25.67971,-16.04755 -6.53686,-7.10231 -11.12651,-15.08883 -13.802489,-24.01793 -1.706075,-5.69276 -1.850318,-15.97086 -2.361134,-168.24359 L 96.481374,56.081286 61.112953,41.140556 C 24.591411,25.712716 21.118555,23.749166 19.591367,17.664366 c -1.136612,-4.52862 0.554672,-9.8294808 4.247342,-13.3121208 4.908431,-4.62925004 8.96187,-5.15019005 15.675147,-2.01454 2.986872,1.39511 21.801202,9.3990308 41.809623,17.7865008 30.044041,12.59436 36.950841,15.86091 39.663151,18.75858 l 3.28421,3.50864 v 27.17532 c 0,20.93475 0.29889,27.42337 1.30153,28.25549 0.71584,0.5941 82.45479,12.253524 181.64211,25.909824 103.39417,14.23552 181.7448,25.46329 183.6317,26.31472 1.81012,0.81679 4.19578,2.96884 5.30148,4.78233 1.95226,3.20197 2.01004,5.18109 1.9992,68.47621 -0.0123,71.82197 -0.0225,71.95943 -6.32446,84.83077 -4.45657,9.1023 -16.17545,20.89427 -24.98314,25.13896 -13.73068,6.61723 -3.57207,6.2408 -168.4152,6.2408 -104.94813,0 -151.40448,-0.33255 -155.15611,-1.11065 -2.94525,-0.61085 -8.00768,-2.28156 -11.24984,-3.71268 -4.95954,-2.18919 -6.04692,-2.37372 -6.85332,-1.16304 -0.5536,0.83115 -0.83517,10.61648 -0.66656,23.16531 0.27092,20.16413 0.45847,22.08962 2.60844,26.77895 2.92021,6.3693 8.34889,12.03542 14.84839,15.49783 l 5.05263,2.69164 145.01052,0.51271 c 137.76922,0.4871 145.28807,0.60627 150.56842,2.38638 17.88171,6.02828 31.56435,18.96218 37.55605,35.50091 2.68903,7.42248 3.64506,23.71166 1.8883,32.1739 -3.64541,17.55984 -18.61307,34.50016 -35.7936,40.511 -3.39739,1.18862 -6.85917,2.5859 -7.69286,3.10505 -1.97254,1.22836 -22.28008,1.22836 -24.25263,0 -0.83368,-0.51915 -4.29547,-1.91643 -7.69285,-3.10505 -17.3859,-6.08269 -31.79996,-22.5921 -35.80633,-41.01144 -1.96515,-9.03482 -0.82728,-24.18909 2.42212,-32.25801 1.47238,-3.65624 2.67706,-7.41121 2.67706,-8.34437 0,-1.57341 -4.64368,-1.67777 -63.91579,-1.43651 -73.45931,0.29902 -65.4971,-1.21453 -60.93517,11.58323 7.0061,19.65453 2.55473,41.1219 -11.68278,56.34184 -7.32506,7.83052 -13.52034,11.92937 -23.87519,15.79604 -7.89881,2.94955 -18.88639,4.30426 -26.53843,3.27206 z m 18.76735,-29.31075 c 7.05144,-2.39796 15.682,-11.18631 18.08228,-18.41288 3.52484,-10.61229 0.5003,-23.12262 -7.44144,-30.77992 -6.37889,-6.15042 -11.63839,-8.22945 -20.81872,-8.22945 -9.88722,0 -15.73321,2.5857 -22.26091,9.84607 -7.28888,8.10699 -9.45307,19.05976 -5.85608,29.63707 2.20418,6.48161 11.17241,15.6336 17.51152,17.87034 6.027,2.12662 14.64816,2.15515 20.78335,0.0688 z m 231.61863,-1.38536 c 11.1001,-5.54679 16.761,-14.5598 16.81224,-26.76765 0.0242,-5.75226 -0.50311,-8.19903 -2.76154,-12.8151 -8.87058,-18.1308 -32.92739,-22.58347 -47.19666,-8.73562 -16.18971,15.71159 -10.40825,42.36127 10.83373,49.93813 6.91844,2.46776 15.35852,1.85505 22.31223,-1.61976 z m 11.53691,-175.10518 c 6.365,-2.47061 13.44321,-8.88625 16.77757,-15.20706 l 2.73111,-5.17728 0.28402,-57.70284 c 0.22633,-45.98162 0.0211,-57.90513 -1.01052,-58.69866 -0.712,-0.5477 -78.3133,-11.58106 -172.44733,-24.51858 -141.09015,-19.39105 -171.30921,-23.2805 -172.04338,-22.14345 -0.50016,0.77463 -0.77929,36.37747 -0.63669,81.2109 l 0.25391,79.83158 2.64739,5.64529 c 4.78475,10.20297 13.46234,16.72535 24.13155,18.1381 3.05685,0.40477 70.58527,0.67462 150.06316,0.59966 137.21157,-0.12939 144.7447,-0.22921 149.24921,-1.97766 z"
       id="path1" />
  </g>
</svg>
