<?xml version="1.0" encoding="UTF-8" standalone="no"?>
<svg
   id="Livello_1"
   data-name="Livello 1"
   viewBox="0 0 57600 57600"
   version="1.1"
   sodipodi:docname="Telegram_logo.svg"
   width="57600"
   height="57600"
   xmlns:inkscape="http://www.inkscape.org/namespaces/inkscape"
   xmlns:sodipodi="http://sodipodi.sourceforge.net/DTD/sodipodi-0.dtd"
   xmlns="http://www.w3.org/2000/svg"
   xmlns:svg="http://www.w3.org/2000/svg">
  <sodipodi:namedview
     id="namedview812"
     pagecolor="#505050"
     bordercolor="#eeeeee"
     borderopacity="1"
     inkscape:showpageshadow="0"
     inkscape:pageopacity="0"
     inkscape:pagecheckerboard="0"
     inkscape:deskcolor="#505050"
     showgrid="false" />
  <defs
     id="defs799">
    <linearGradient
       id="linear-gradient"
       x1="120"
       y1="240"
       x2="120"
       gradientUnits="userSpaceOnUse"
       gradientTransform="matrix(0.86875831,0,0,0.86541722,15.462766,16.228723)">
      <stop
         offset="0"
         stop-color="#1d93d2"
         id="stop794" />
      <stop
         offset="1"
         stop-color="#38b0e3"
         id="stop796" />
    </linearGradient>
  </defs>
  <title
     id="title801">Telegram_logo</title>
  <ellipse
     cx="119.71376"
     cy="120.0788"
     fill="url(#linear-gradient)"
     id="circle803"
     style="fill:url(#linear-gradient);stroke-width:0.867087"
     rx="104.251"
     ry="103.85007" />
  <path
     d="m 86.031135,127.67023 12.368512,34.10263 c 0,0 1.54639,3.1908 3.202243,3.1908 1.65586,0 26.28429,-25.52289 26.28429,-25.52289 l 27.3876,-52.695255 -68.801316,32.121695 z"
     fill="#c8daea"
     id="path805"
     style="stroke-width:0.867087" />
  <path
     d="m 102.43068,136.41614 -2.37431,25.13691 c 0,0 -0.99386,7.70221 6.73636,0 7.7302,-7.70221 15.12942,-13.64158 15.12942,-13.64158"
     fill="#a9c6d8"
     id="path807"
     style="stroke-width:0.867087" />
  <path
     d="M 86.254406,128.88701 60.81195,120.6292 c 0,0 -3.040654,-1.22889 -2.061563,-4.01554 0.201551,-0.57463 0.608131,-1.0636 1.824392,-1.90392 5.637372,-3.91428 104.343091,-39.255324 104.343091,-39.255324 0,0 2.78698,-0.935516 4.43067,-0.313281 a 2.4029855,2.3937441 0 0 1 1.6376,1.778432 8.1289715,8.0977089 0 0 1 0.22067,2.237104 c -0.008,0.650794 -0.0869,1.253989 -0.14682,2.199891 -0.60118,9.66238 -18.59142,81.775878 -18.59142,81.775878 0,0 -1.0764,4.21976 -4.93282,4.36429 a 7.0630051,7.035842 0 0 1 -5.14739,-1.98353 c -7.56775,-6.48458 -33.72433,-23.99543 -39.50418,-27.84653 a 1.1033231,1.0990799 0 0 1 -0.47435,-0.77888 c -0.0808,-0.40588 0.36228,-0.90868 0.36228,-0.90868 0,0 45.54553,-40.328449 46.75745,-44.562072 0.0938,-0.327997 -0.26063,-0.489827 -0.73672,-0.346172 -3.02501,1.108605 -55.465004,34.097444 -61.252672,37.738264 a 2.7887142,2.7779893 0 0 1 -1.285762,0.0779 z"
     fill="#ffffff"
     id="path809"
     style="stroke-width:0.867087" />
</svg>
