<?xml version="1.0" encoding="UTF-8" standalone="no"?>
<!-- Created with Inkscape (http://www.inkscape.org/) -->

<svg
   width="40.165756mm"
   height="40.096771mm"
   viewBox="0 0 40.165756 40.096771"
   version="1.1"
   id="svg1"
   xml:space="preserve"
   xmlns="http://www.w3.org/2000/svg"
   xmlns:svg="http://www.w3.org/2000/svg"><defs
     id="defs1" /><g
     id="layer1"
     transform="translate(-41.063909,-94.851468)"><path
       id="path3"
       style="fill:#ca000d;fill-opacity:1"
       d="m 61.135617,94.851568 c -2.059695,-1.88e-4 -4.120567,0.223298 -5.557284,0.67076 -3.605853,1.123037 -5.967489,2.5465 -8.60981,5.188832 -3.732236,3.73223 -5.586193,7.83757 -5.867859,12.993 -0.346969,6.35066 1.761045,11.60345 6.398059,15.94115 2.658575,2.48697 5.842403,4.15447 9.402527,4.92528 2.319456,0.50225 5.930731,0.50381 8.411373,0.003 1.227168,-0.2476 3.118892,-0.93391 4.74958,-1.72341 2.329752,-1.12795 3.03504,-1.63644 5.028117,-3.62355 1.275083,-1.27126 2.71747,-2.99253 3.204973,-3.82509 6.809845,-11.62985 1.287347,-25.84055 -11.611178,-29.878278 -1.430299,-0.44771 -3.488806,-0.671605 -5.548498,-0.671794 z m -0.250114,7.170102 c 0.264743,-0.009 0.527901,-0.007 0.788582,0.008 3.128175,0.17124 5.923833,2.00847 7.443473,5.0953 0.736621,1.4963 0.843024,1.97893 0.831474,3.77341 -0.02287,3.55119 -1.812308,6.4243 -4.940267,7.9313 -5.135219,2.47406 -11.044614,-0.22956 -12.471073,-5.70611 -0.530586,-2.03706 -0.504117,-2.87715 0.156579,-5.01623 0.470362,-1.52285 0.807585,-2.05092 2.20245,-3.44579 1.432753,-1.43275 1.898446,-1.72366 3.573425,-2.23242 0.811228,-0.2464 1.621125,-0.37989 2.415357,-0.40721 z m 5.986198,20.03237 c 0.213973,-0.003 0.453198,0.0143 0.745174,0.045 1.936217,0.20321 4.166087,1.12766 5.434293,2.25309 l 1.112077,0.98702 -1.723409,1.61231 c -1.993226,1.86456 -3.850665,2.98779 -6.27817,3.79666 -2.234402,0.74455 -6.355264,0.93995 -8.676473,0.41135 -3.032864,-0.69066 -5.719886,-2.18542 -8.116817,-4.51497 l -1.259871,-1.2237 0.756026,-0.7891 c 1.108092,-1.15659 3.670275,-2.31943 5.530928,-2.51044 1.424074,-0.1462 1.702309,-0.091 2.592607,0.51315 1.478613,1.00342 2.665825,1.30685 4.667932,1.19372 1.471865,-0.0832 2.052569,-0.26119 3.216858,-0.98495 0.940748,-0.58484 1.356917,-0.77974 1.998845,-0.7891 z" /></g></svg>
