<?xml version="1.0" encoding="UTF-8" standalone="no"?>
<!-- Created with Inkscape (http://www.inkscape.org/) -->

<svg
   width="512"
   height="512"
   viewBox="0 0 512 512"
   version="1.1"
   id="svg1"
   xml:space="preserve"
   xmlns="http://www.w3.org/2000/svg"
   xmlns:svg="http://www.w3.org/2000/svg"><defs
     id="defs1" /><g
     id="layer1"><path
       style="fill:#ca000d;fill-opacity:1;stroke-width:0.939897"
       d="M 384.41925,511.65379 C 323.94205,504.07636 250.87445,464.66078 176.08639,399.27069 160.49182,385.63574 125.70581,350.93475 112.23974,335.58007 49.506727,264.04876 11.030965,194.48324 1.324191,135.04092 0.05077347,127.24279 -0.23210443,121.10911 0.16995197,110.01337 0.76277947,93.652919 2.1277381,87.365509 7.598767,75.794082 10.915881,68.778259 13.133371,66.303116 41.408834,38.055658 68.38681,11.104401 72.376789,7.4981057 78.195044,4.8070022 92.766541,-1.9327456 108.03618,-1.58302 123.37566,5.841792 c 8.35331,4.0432667 9.36723,4.960654 47.85457,43.298423 21.62625,21.542202 40.73384,41.42012 42.46131,44.17315 5.32747,8.490225 7.40817,17.148535 6.85813,28.538165 -0.41961,8.68879 -0.89387,10.69321 -4.14555,17.52045 -5.36538,11.26519 -12.53679,17.90942 -25.35243,23.4887 -11.66471,5.07824 -16.54688,8.22055 -22.04162,14.18665 -16.02787,17.40276 -16.451,36.71119 -1.47776,67.43243 24.30957,49.87702 89.87759,104.92411 130.03974,109.17381 15.74681,1.66621 34.2469,-6.47767 43.63721,-19.20945 1.62452,-2.20263 4.87811,-8.46012 7.23017,-13.90555 3.46109,-8.01304 5.4324,-11.07516 10.33901,-16.06016 16.56169,-16.82627 41.25371,-19.00717 61.51977,-5.43362 7.41399,4.96566 80.3606,77.95801 84.53513,84.58817 7.29383,11.58432 9.25377,28.57487 4.79919,41.60362 -4.14833,12.13297 -7.79652,16.59944 -37.8239,46.30721 -31.60313,31.26685 -34.77703,33.62248 -50.94321,37.81003 -7.70925,1.99691 -28.4293,3.30448 -36.44617,2.29997 z"
       id="path1" /></g></svg>
