<?xml version="1.0" encoding="UTF-8" standalone="no"?>
<!-- Created with Inkscape (http://www.inkscape.org/) -->

<svg
   width="280"
   height="280"
   viewBox="0 0 74.083332 74.083333"
   version="1.1"
   id="svg1"
   xmlns="http://www.w3.org/2000/svg"
   xmlns:svg="http://www.w3.org/2000/svg">
  <defs
     id="defs1" />
  <g
     id="layer1">
    <g
       id="group-R5"
       transform="matrix(0.09081533,0,0,0.09081533,15.282217,25.238022)">
      <path
         id="path6"
         d="m 4096.34,5239.27 c 349.65,-144.17 651.89,-379.94 876.79,-677.43 36.75,-48.63 99.77,-65.53 155.91,-41.83 l 53.41,22.56 248.82,-589.31 -17.02,-7.19 c -59.86,-25.26 -91.93,-88.99 -76.56,-152.1 38.82,-159.66 59.45,-326.44 59.45,-498.04 0,-790.26 -436.36,-1478.51 -1081.19,-1837.28 -51.34,-28.57 -76.96,-85.05 -64.56,-142.5 l 18,-83.54 -943.36,-203.45 -13.96,64.74 c -12.72,58.97 -61.73,100.53 -121.97,103.52 -1075.01,53.33 -1937.43,914.52 -1992.56,1989.07 -3.27,63.77 -50.45,115 -113.73,123.5 l -4.78,0.66 111.26,829.48 74.16,-9.94 c 57.39,-7.71 110.88,21.19 135.93,73.39 228.03,475.29 629.61,851.53 1122.58,1046.66 143.54,56.83 233.1,188.53 233.1,342.91 v 50.49 h 1112.03 v -63.42 c 0,-152.56 87.21,-282.79 228.25,-340.95"
         style="fill:#f1a40f;fill-opacity:1;fill-rule:evenodd;stroke:none"
         transform="matrix(0.13333333,0,0,-0.13333333,0,878.92)" />
      <path
         id="path7"
         d="m 4096.34,5239.27 c 75.75,-31.24 149.29,-66.78 220.29,-106.31 6.97,-74.14 -11.32,-134.02 -68.89,-163.76 -189.72,-97.97 -370.23,88.2 -716.27,-230.5 -277.98,-311.05 -108.52,-599.48 98.89,-904.1 177.84,-261.21 665.31,-750.75 688.46,-1046.05 -21.41,-540.54 -459.13,-623.54 -912.78,-655.76 -251.01,-17.82 -374.57,-4.47 -621.89,25.04 -420.2,11.57 -433.31,-481.98 -829.86,-478.98 -437.86,363.64 -725.66,901.72 -756.75,1507.64 -3.27,63.77 -50.45,115 -113.73,123.5 l -4.78,0.66 111.26,829.48 74.16,-9.94 c 57.39,-7.71 110.88,21.19 135.93,73.39 228.03,475.29 629.61,851.53 1122.58,1046.66 143.54,56.83 233.1,188.53 233.1,342.91 v 50.49 h 1112.03 v -63.42 c 0,-152.56 87.21,-282.79 228.25,-340.95"
         style="fill:#fab40a;fill-opacity:1;fill-rule:evenodd;stroke:none"
         transform="matrix(0.13333333,0,0,-0.13333333,0,878.92)" />
      <path
         id="path8"
         d="m 1276.47,2713.74 c -43.53,151.27 -70.55,309.55 -78.93,472.75 -3.27,63.77 -50.45,115 -113.73,123.5 l -4.78,0.66 111.26,829.48 74.16,-9.94 c 57.39,-7.71 110.88,21.19 135.93,73.39 170.46,355.33 437.95,655.27 768.07,865.6 -49.58,-184.78 -50.78,-361 167.67,-502.32 510.72,-203.74 949.39,-50.65 1061.19,-713.29 135.39,-802.29 -872.89,-823.16 -1408.62,-794.05 -197.78,10.75 -428.01,43.41 -603.14,-69.05 -80.65,-67.43 -106.97,-164.71 -109.08,-276.73"
         style="fill:#fbc907;fill-opacity:1;fill-rule:evenodd;stroke:none"
         transform="matrix(0.13333333,0,0,-0.13333333,0,878.92)" />
      <path
         id="path9"
         d="m 3312.08,5475.23 c 306.25,0 556.03,75.65 556.03,168.41 0,92.76 -249.78,168.41 -556.02,168.41 -306.26,0 -556.03,-75.65 -556.03,-168.41 0,-92.76 249.77,-168.41 556.02,-168.41"
         style="fill:#fab40a;fill-opacity:1;fill-rule:evenodd;stroke:none"
         transform="matrix(0.13333333,0,0,-0.13333333,0,878.92)" />
      <path
         id="path10"
         d="m 3312.08,5506.81 c 264.28,0 479.83,61.47 479.83,136.83 0,75.37 -215.55,136.84 -479.82,136.84 -264.29,0 -479.83,-61.47 -479.83,-136.84 0,-75.36 215.54,-136.83 479.82,-136.83"
         style="fill:#df8c16;fill-opacity:1;fill-rule:evenodd;stroke:none"
         transform="matrix(0.13333333,0,0,-0.13333333,0,878.92)" />
      <path
         id="path11"
         d="m 3729.89,5576.32 c -82.41,-41.5 -238.64,-69.51 -417.82,-69.51 -179.19,0 -335.4,28.02 -417.82,69.51 82.42,41.51 238.63,69.52 417.82,69.52 179.18,0 335.41,-28.02 417.82,-69.52"
         style="fill:#82531c;fill-opacity:1;fill-rule:evenodd;stroke:none"
         transform="matrix(0.13333333,0,0,-0.13333333,0,878.92)" />
      <path
         id="path12"
         d="m 1009.03,3742.23 c 30.74,229.05 111.88,407.2 181.26,397.9 69.39,-9.31 100.73,-202.54 70,-431.6 -30.73,-229.06 -111.88,-407.21 -181.26,-397.88 -69.38,9.29 -100.714,202.52 -70,431.58"
         style="fill:#fab40a;fill-opacity:1;fill-rule:evenodd;stroke:none"
         transform="matrix(0.13333333,0,0,-0.13333333,0,878.92)" />
      <path
         id="path13"
         d="m 3828.52,988.02 c -260.5,-56.18 -485.47,-37.758 -502.49,41.14 -17.03,78.91 180.37,188.41 440.87,244.6 260.5,56.19 485.47,37.76 502.49,-41.15 17.03,-78.89 -180.37,-188.42 -440.87,-244.59"
         style="fill:#fab40a;fill-opacity:1;fill-rule:evenodd;stroke:none"
         transform="matrix(0.13333333,0,0,-0.13333333,0,878.92)" />
      <path
         id="path14"
         d="m 5396.11,4285.59 c 68.71,-162.73 84.47,-311.52 35.16,-332.33 -49.29,-20.81 -144.94,94.23 -213.66,256.96 -68.69,162.74 -84.45,311.53 -35.16,332.35 49.29,20.8 144.95,-94.24 213.66,-256.98"
         style="fill:#fab40a;fill-opacity:1;fill-rule:evenodd;stroke:none"
         transform="matrix(0.13333333,0,0,-0.13333333,0,878.92)" />
      <path
         id="path15"
         d="m 5372.22,4275.5 c 50.33,-119.17 61.85,-228.14 25.76,-243.38 -36.1,-15.24 -106.14,69.01 -156.48,188.19 -50.31,119.18 -61.85,228.15 -25.74,243.4 36.1,15.23 106.14,-69.03 156.46,-188.21"
         style="fill:#df8c16;fill-opacity:1;fill-rule:evenodd;stroke:none"
         transform="matrix(0.13333333,0,0,-0.13333333,0,878.92)" />
      <path
         id="path16"
         d="m 5332.43,4067.3 c -30.4,33.78 -63.57,88.23 -90.93,153.01 -26.07,61.76 -41.73,120.78 -45.74,165.44 30.39,-33.77 63.57,-88.24 90.92,-153.02 26.08,-61.76 41.74,-120.77 45.75,-165.43"
         style="fill:#82531c;fill-opacity:1;fill-rule:evenodd;stroke:none"
         transform="matrix(0.13333333,0,0,-0.13333333,0,878.92)" />
      <path
         id="path17"
         d="m 3821.2,1021.96 c -198.62,-42.831 -370.15,-28.792 -383.13,31.36 -12.98,60.18 137.52,143.68 336.15,186.49 198.62,42.85 370.15,28.81 383.13,-31.36 12.97,-60.16 -137.52,-143.65 -336.15,-186.49"
         style="fill:#df8c16;fill-opacity:1;fill-rule:evenodd;stroke:none"
         transform="matrix(0.13333333,0,0,-0.13333333,0,878.92)" />
      <path
         id="path18"
         d="m 3455.09,1099.44 c 44.46,51.53 167.82,107.76 319.13,140.37 131.48,28.37 251.05,31.79 320.65,13.42 -44.44,-51.53 -167.8,-107.75 -319.12,-140.39 -131.47,-28.33 -251.04,-31.78 -320.66,-13.4"
         style="fill:#82531c;fill-opacity:1;fill-rule:evenodd;stroke:none"
         transform="matrix(0.13333333,0,0,-0.13333333,0,878.92)" />
      <path
         id="path19"
         d="m 1039.3,3738.17 c 23.33,173.89 84.93,309.12 137.59,302.05 52.67,-7.06 76.46,-153.75 53.13,-327.63 -23.33,-173.88 -84.93,-309.12 -137.59,-302.05 -52.67,7.06 -76.46,153.75 -53.13,327.63"
         style="fill:#df8c16;fill-opacity:1;fill-rule:evenodd;stroke:none"
         transform="matrix(0.13333333,0,0,-0.13333333,0,878.92)" />
      <path
         id="path20"
         d="m 1219.38,3990.43 c 20.83,-58.5 26.17,-162.14 10.64,-277.84 -16.47,-122.82 -52.05,-226.36 -90.08,-274.08 -20.83,58.5 -26.17,162.13 -10.66,277.84 16.49,122.82 52.06,226.36 90.1,274.08"
         style="fill:#82531c;fill-opacity:1;fill-rule:evenodd;stroke:none"
         transform="matrix(0.13333333,0,0,-0.13333333,0,878.92)" />
      <path
         id="path21"
         d="m 4361.87,4662.16 c 229.93,-155.44 338.58,-396.46 242.66,-538.34 -95.91,-141.89 -360.06,-130.89 -589.99,24.55 -229.95,155.44 -338.6,396.47 -242.69,538.35 95.91,141.87 360.05,130.89 590.02,-24.56"
         style="fill:#df8c16;fill-opacity:1;fill-rule:evenodd;stroke:none"
         transform="matrix(0.13333333,0,0,-0.13333333,0,878.92)" />
      <path
         id="path22"
         d="m 4543.09,4065.34 c -122.05,-75.63 -337.16,-46.36 -528.55,83.03 -191.41,129.39 -298.75,318.07 -274.05,459.52 122.05,75.64 337.14,46.35 528.54,-83.04 191.4,-129.38 298.75,-318.07 274.06,-459.51"
         style="fill:#82531c;fill-opacity:1;fill-rule:evenodd;stroke:none"
         transform="matrix(0.13333333,0,0,-0.13333333,0,878.92)" />
      <path
         id="path23"
         d="m 4892.37,2543.67 c -71.11,-192.79 -225.18,-313.5 -344.14,-269.64 -118.95,43.89 -157.72,235.75 -86.61,428.52 71.1,192.79 225.2,313.49 344.15,269.62 118.94,-43.87 157.73,-235.73 86.6,-428.5"
         style="fill:#df8c16;fill-opacity:1;fill-rule:evenodd;stroke:none"
         transform="matrix(0.13333333,0,0,-0.13333333,0,878.92)" />
      <path
         id="path24"
         d="m 4495.34,2307.9 c -75.96,74.38 -92.91,234.17 -33.72,394.65 59.19,160.48 175.88,270.99 281.93,278.24 75.93,-74.39 92.91,-234.2 33.72,-394.68 -59.21,-160.46 -175.88,-270.97 -281.93,-278.21"
         style="fill:#82531c;fill-opacity:1;fill-rule:evenodd;stroke:none"
         transform="matrix(0.13333333,0,0,-0.13333333,0,878.92)" />
      <path
         id="path25"
         d="m 1757.08,2614.72 c -52.77,123.21 -33.91,249.49 42.11,282.06 76.03,32.56 180.45,-40.94 233.22,-164.17 52.77,-123.21 33.92,-249.49 -42.12,-282.06 -76.03,-32.56 -180.44,40.94 -233.21,164.17"
         style="fill:#df8c16;fill-opacity:1;fill-rule:evenodd;stroke:none"
         transform="matrix(0.13333333,0,0,-0.13333333,0,878.92)" />
      <path
         id="path26"
         d="m 1839.44,2904.45 c 69.33,-1.14 149.03,-69.26 192.97,-171.84 43.93,-102.56 38.2,-207.23 -8.79,-258.23 -69.33,1.16 -149.04,69.27 -192.97,171.84 -43.92,102.57 -38.21,207.24 8.79,258.23"
         style="fill:#82531c;fill-opacity:1;fill-rule:evenodd;stroke:none"
         transform="matrix(0.13333333,0,0,-0.13333333,0,878.92)" />
      <path
         id="path27"
         d="m 2490.57,4262.98 c 242.56,118.99 522.78,45.1 625.85,-165.05 103.1,-210.15 -9.97,-476.96 -252.52,-595.95 -242.58,-118.99 -522.77,-45.09 -625.87,165.06 -103.08,210.14 9.99,476.95 252.54,595.94"
         style="fill:#df8c16;fill-opacity:1;fill-rule:evenodd;stroke:none"
         transform="matrix(0.13333333,0,0,-0.13333333,0,878.92)" />
      <path
         id="path28"
         d="m 3135.63,4050.78 c 66.55,-201.41 -47.01,-438.55 -271.73,-548.8 -224.75,-110.25 -481.81,-54.88 -600.36,121 -66.51,201.4 47.03,438.56 271.78,548.81 224.74,110.25 481.76,54.87 600.31,-121.01"
         style="fill:#82531c;fill-opacity:1;fill-rule:evenodd;stroke:none"
         transform="matrix(0.13333333,0,0,-0.13333333,0,878.92)" />
      <path
         id="path29"
         d="m 3652.13,2225.4 c -191.56,-30.83 -366.87,89.84 -391.54,269.57 -24.68,179.72 110.58,350.45 302.13,381.28 191.57,30.88 366.87,-89.83 391.55,-269.54 24.69,-179.74 -110.6,-350.44 -302.14,-381.31"
         style="fill:#df8c16;fill-opacity:1;fill-rule:evenodd;stroke:none"
         transform="matrix(0.13333333,0,0,-0.13333333,0,878.92)" />
      <path
         id="path30"
         d="m 3257.71,2534.39 c -1.61,164.63 127.53,313.29 305.01,341.86 177.5,28.6 341.01,-72.92 383.71,-230.93 1.61,-164.66 -127.52,-313.32 -305.02,-341.92 -177.48,-28.57 -341,72.94 -383.7,230.99"
         style="fill:#82531c;fill-opacity:1;fill-rule:evenodd;stroke:none"
         transform="matrix(0.13333333,0,0,-0.13333333,0,878.92)" />
      <path
         id="path31"
         d="m 2772.91,1595.21 c -162.57,48.36 -270.14,168.9 -240.31,269.18 29.85,100.31 185.82,142.39 348.39,94.04 162.54,-48.38 270.13,-168.89 240.28,-269.19 -29.84,-100.31 -185.81,-142.4 -348.36,-94.03"
         style="fill:#df8c16;fill-opacity:1;fill-rule:evenodd;stroke:none"
         transform="matrix(0.13333333,0,0,-0.13333333,0,878.92)" />
      <path
         id="path32"
         d="m 2557.7,1909.76 c 57.22,66.49 187.95,88.93 323.29,48.67 135.29,-40.26 232.51,-130.52 244.08,-217.49 -57.24,-66.49 -187.98,-88.92 -323.29,-48.67 -135.31,40.27 -232.53,130.53 -244.08,217.49"
         style="fill:#82531c;fill-opacity:1;fill-rule:evenodd;stroke:none"
         transform="matrix(0.13333333,0,0,-0.13333333,0,878.92)" />
      <path
         id="path33"
         d="m 2941.27,5013.6 c 188.85,40.28 361.8,-2.7 386.31,-95.99 24.5,-93.29 -108.73,-201.56 -297.59,-241.82 -188.82,-40.28 -361.8,2.71 -386.3,95.99 -24.51,93.29 108.72,201.56 297.58,241.82"
         style="fill:#df8c16;fill-opacity:1;fill-rule:evenodd;stroke:none"
         transform="matrix(0.13333333,0,0,-0.13333333,0,878.92)" />
      <path
         id="path34"
         d="m 3327.07,4869.83 c -21.23,-79.89 -139.87,-160.53 -297.08,-194.04 -157.19,-33.52 -303.36,-9.35 -362.07,53.49 21.21,79.89 139.86,160.52 297.06,194.05 157.2,33.51 303.37,9.35 362.09,-53.5"
         style="fill:#82531c;fill-opacity:1;fill-rule:evenodd;stroke:none"
         transform="matrix(0.13333333,0,0,-0.13333333,0,878.92)" />
    </g>
  </g>
</svg>
