<?xml version="1.0" encoding="UTF-8" standalone="no"?>
<!-- Created with Inkscape (http://www.inkscape.org/) -->

<svg
   width="2000.0001"
   height="400"
   viewBox="0 0 529.16669 105.83333"
   version="1.1"
   id="svg1"
   xmlns="http://www.w3.org/2000/svg"
   xmlns:svg="http://www.w3.org/2000/svg">
  <defs
     id="defs1" />
  <g
     id="layer1">
    <rect
       style="opacity:0.884814;fill:#00002c;fill-opacity:1;stroke-width:0.529;stroke-opacity:0.266371"
       id="rect1"
       width="530.4115"
       height="105.01534"
       x="-0.6224162"
       y="0.4089953" />
    <ellipse
       style="opacity:1;fill:#ffffff;fill-opacity:1;stroke-width:0.529;stroke-opacity:0.266371"
       id="path1"
       cx="39.419441"
       cy="29.131731"
       rx="0.95430672"
       ry="0.98085964" />
    <ellipse
       style="fill:#ffffff;fill-opacity:1;stroke-width:0.529;stroke-opacity:0.266371"
       id="path1-4"
       cx="50.324291"
       cy="34.555737"
       rx="0.95430672"
       ry="0.98085964" />
    <ellipse
       style="fill:#ffffff;fill-opacity:1;stroke-width:0.529;stroke-opacity:0.266371"
       id="path1-6"
       cx="116.24696"
       cy="38.178043"
       rx="0.95430672"
       ry="0.98085964" />
    <ellipse
       style="fill:#ffffff;fill-opacity:1;stroke-width:0.529;stroke-opacity:0.266371"
       id="path1-3"
       cx="69.045425"
       cy="29.564383"
       rx="0.95430672"
       ry="0.98085964" />
    <ellipse
       style="fill:#ffffff;fill-opacity:1;stroke-width:0.529;stroke-opacity:0.266371"
       id="path1-3-1"
       cx="79.258217"
       cy="41.780487"
       rx="0.95430672"
       ry="0.98085964" />
    <ellipse
       style="fill:#ffffff;fill-opacity:1;stroke-width:0.529;stroke-opacity:0.266371"
       id="path1-3-7"
       cx="49.142544"
       cy="49.254303"
       rx="0.95430672"
       ry="0.98085964" />
    <ellipse
       style="fill:#ffffff;fill-opacity:1;stroke-width:0.529;stroke-opacity:0.266371"
       id="path1-3-9"
       cx="72.68866"
       cy="56.276131"
       rx="0.95430672"
       ry="0.98085964" />
    <ellipse
       style="fill:#ffffff;fill-opacity:1;stroke-width:0.529;stroke-opacity:0.266371"
       id="path1-3-5"
       cx="104.62984"
       cy="56.889057"
       rx="0.95430672"
       ry="0.98085964" />
    <ellipse
       style="fill:#ffffff;fill-opacity:1;stroke-width:0.529;stroke-opacity:0.266371"
       id="path1-3-74"
       cx="94.891197"
       cy="32.622875"
       rx="0.95430672"
       ry="0.98085964" />
    <ellipse
       style="fill:#ffffff;fill-opacity:1;stroke-width:0.529;stroke-opacity:0.266371"
       id="path1-3-78"
       cx="82.795296"
       cy="21.546219"
       rx="0.95430672"
       ry="0.98085964" />
    <ellipse
       style="fill:#ffffff;fill-opacity:1;stroke-width:0.529;stroke-opacity:0.266371"
       id="path1-3-4"
       cx="152.87193"
       cy="22.120623"
       rx="0.95430672"
       ry="0.98085964" />
    <ellipse
       style="fill:#ffffff;fill-opacity:1;stroke-width:0.529;stroke-opacity:0.266371"
       id="path1-3-92"
       cx="154.41264"
       cy="25.057943"
       rx="0.95430672"
       ry="0.98085964" />
    <ellipse
       style="fill:#ffffff;fill-opacity:1;stroke-width:0.529;stroke-opacity:0.266371"
       id="path1-3-926"
       cx="162.61473"
       cy="35.641277"
       rx="0.95430672"
       ry="0.98085964" />
    <ellipse
       style="fill:#ffffff;fill-opacity:1;stroke-width:0.529;stroke-opacity:0.266371"
       id="path1-3-50"
       cx="186.95639"
       cy="44.901695"
       rx="0.95430672"
       ry="0.98085964" />
    <ellipse
       style="fill:#ffffff;fill-opacity:1;stroke-width:0.529;stroke-opacity:0.266371"
       id="path1-3-17"
       cx="174.52098"
       cy="75.064194"
       rx="0.95430672"
       ry="0.98085964" />
    <ellipse
       style="fill:#ffffff;fill-opacity:1;stroke-width:0.529;stroke-opacity:0.266371"
       id="path1-3-2"
       cx="109.96264"
       cy="75.064194"
       rx="0.95430672"
       ry="0.98085964" />
    <ellipse
       style="fill:#ffffff;fill-opacity:1;stroke-width:0.529;stroke-opacity:0.266371"
       id="path1-3-6"
       cx="113.66681"
       cy="28.232944"
       rx="0.95430672"
       ry="0.98085964" />
    <ellipse
       style="fill:#ffffff;fill-opacity:1;stroke-width:0.529;stroke-opacity:0.266371"
       id="path1-3-49"
       cx="157.85222"
       cy="15.26836"
       rx="0.95430672"
       ry="0.98085964" />
    <ellipse
       style="fill:#ffffff;fill-opacity:1;stroke-width:0.529;stroke-opacity:0.266371"
       id="path1-3-77"
       cx="204.15431"
       cy="12.357944"
       rx="0.95430672"
       ry="0.98085964" />
    <ellipse
       style="fill:#ffffff;fill-opacity:1;stroke-width:0.529;stroke-opacity:0.266371"
       id="path1-3-97"
       cx="223.99806"
       cy="43.578777"
       rx="0.95430672"
       ry="0.98085964" />
    <ellipse
       style="fill:#ffffff;fill-opacity:1;stroke-width:0.529;stroke-opacity:0.266371"
       id="path1-3-3"
       cx="229.02513"
       cy="72.682945"
       rx="0.95430672"
       ry="0.98085964" />
    <ellipse
       style="fill:#ffffff;fill-opacity:1;stroke-width:0.529;stroke-opacity:0.266371"
       id="path1-3-39"
       cx="212.09181"
       cy="90.674614"
       rx="0.95430672"
       ry="0.98085964" />
    <ellipse
       style="fill:#ffffff;fill-opacity:1;stroke-width:0.529;stroke-opacity:0.266371"
       id="path1-3-29"
       cx="122.66264"
       cy="90.145447"
       rx="0.95430672"
       ry="0.98085964" />
    <ellipse
       style="fill:#ffffff;fill-opacity:1;stroke-width:0.529;stroke-opacity:0.266371"
       id="path1-3-8"
       cx="94.616806"
       cy="93.055862"
       rx="0.95430672"
       ry="0.98085964" />
    <ellipse
       style="fill:#ffffff;fill-opacity:1;stroke-width:0.529;stroke-opacity:0.266371"
       id="path1-3-96"
       cx="44.345974"
       cy="92.262108"
       rx="0.95430672"
       ry="0.98085964" />
    <ellipse
       style="fill:#ffffff;fill-opacity:1;stroke-width:0.529;stroke-opacity:0.266371"
       id="path1-3-61"
       cx="17.358473"
       cy="72.682945"
       rx="0.95430672"
       ry="0.98085964" />
    <ellipse
       style="fill:#ffffff;fill-opacity:1;stroke-width:0.529;stroke-opacity:0.266371"
       id="path1-3-84"
       cx="10.479306"
       cy="18.443361"
       rx="0.95430672"
       ry="0.98085964" />
    <ellipse
       style="fill:#ffffff;fill-opacity:1;stroke-width:0.529;stroke-opacity:0.266371"
       id="path1-3-30"
       cx="57.575138"
       cy="13.151693"
       rx="0.95430672"
       ry="0.98085964" />
    <ellipse
       style="fill:#ffffff;fill-opacity:1;stroke-width:0.529;stroke-opacity:0.266371"
       id="path1-3-47"
       cx="28.206388"
       cy="40.932945"
       rx="0.95430672"
       ry="0.98085964" />
    <ellipse
       style="fill:#ffffff;fill-opacity:1;stroke-width:0.529;stroke-opacity:0.266371"
       id="path1-3-75"
       cx="69.481392"
       cy="66.862114"
       rx="0.95430672"
       ry="0.98085964" />
    <ellipse
       style="fill:#ffffff;fill-opacity:1;stroke-width:0.529;stroke-opacity:0.266371"
       id="path1-3-178"
       cx="161.5564"
       cy="61.835026"
       rx="0.95430672"
       ry="0.98085964" />
    <ellipse
       style="fill:#ffffff;fill-opacity:1;stroke-width:0.529;stroke-opacity:0.266371"
       id="path1-3-18"
       cx="137.7439"
       cy="14.210028"
       rx="0.95430672"
       ry="0.98085964" />
    <ellipse
       style="fill:#ffffff;fill-opacity:1;stroke-width:0.529;stroke-opacity:0.266371"
       id="path1-3-53"
       cx="138.00847"
       cy="42.785027"
       rx="0.95430672"
       ry="0.98085964" />
    <ellipse
       style="fill:#ffffff;fill-opacity:1;stroke-width:0.529;stroke-opacity:0.266371"
       id="path1-3-189"
       cx="119.22305"
       cy="67.126694"
       rx="0.95430672"
       ry="0.98085964" />
    <ellipse
       style="fill:#ffffff;fill-opacity:1;stroke-width:0.529;stroke-opacity:0.266371"
       id="path1-3-33"
       cx="148.85638"
       cy="68.714195"
       rx="0.95430672"
       ry="0.98085964" />
    <ellipse
       style="fill:#ffffff;fill-opacity:1;stroke-width:0.529;stroke-opacity:0.266371"
       id="path1-3-48"
       cx="183.5168"
       cy="57.866276"
       rx="0.95430672"
       ry="0.98085964" />
    <ellipse
       style="fill:#ffffff;fill-opacity:1;stroke-width:0.529;stroke-opacity:0.266371"
       id="path1-3-776"
       cx="213.94388"
       cy="65.539192"
       rx="0.95430672"
       ry="0.98085964" />
    <ellipse
       style="fill:#ffffff;fill-opacity:1;stroke-width:0.529;stroke-opacity:0.266371"
       id="path1-3-309"
       cx="200.97931"
       cy="27.17461"
       rx="0.95430672"
       ry="0.98085964" />
    <ellipse
       style="fill:#ffffff;fill-opacity:1;stroke-width:0.529;stroke-opacity:0.266371"
       id="path1-3-0"
       cx="179.81264"
       cy="20.82461"
       rx="0.95430672"
       ry="0.98085964" />
    <ellipse
       style="fill:#ffffff;fill-opacity:1;stroke-width:0.529;stroke-opacity:0.266371"
       id="path1-3-69"
       cx="155.73555"
       cy="91.468361"
       rx="0.95430672"
       ry="0.98085964" />
    <ellipse
       style="fill:#ffffff;fill-opacity:1;stroke-width:0.529;stroke-opacity:0.266371"
       id="path1-3-775"
       cx="102.02514"
       cy="14.739194"
       rx="0.95430672"
       ry="0.98085964" />
    <ellipse
       style="fill:#ffffff;fill-opacity:1;stroke-width:0.529;stroke-opacity:0.266371"
       id="path1-3-28"
       cx="189.07306"
       cy="99.141281"
       rx="0.95430672"
       ry="0.98085964" />
    <ellipse
       style="fill:#ffffff;fill-opacity:1;stroke-width:0.529;stroke-opacity:0.266371"
       id="path1-3-80"
       cx="53.077225"
       cy="77.71003"
       rx="0.95430672"
       ry="0.98085964" />
    <ellipse
       style="fill:#ffffff;fill-opacity:1;stroke-width:0.529;stroke-opacity:0.266371"
       id="path1-3-51"
       cx="60.220974"
       cy="100.72878"
       rx="0.95430672"
       ry="0.98085964" />
    <ellipse
       style="fill:#ffffff;fill-opacity:1;stroke-width:0.529;stroke-opacity:0.266371"
       id="path1-3-506"
       cx="30.058474"
       cy="95.172531"
       rx="0.95430672"
       ry="0.98085964" />
    <ellipse
       style="fill:#ffffff;fill-opacity:1;stroke-width:0.529;stroke-opacity:0.266371"
       id="path1-3-58"
       cx="9.6855564"
       cy="97.024612"
       rx="0.95430672"
       ry="0.98085964" />
    <ellipse
       style="fill:#ffffff;fill-opacity:1;stroke-width:0.529;stroke-opacity:0.266371"
       id="path1-3-472"
       cx="8.3626394"
       cy="58.395443"
       rx="0.95430672"
       ry="0.98085964" />
    <ellipse
       style="fill:#ffffff;fill-opacity:1;stroke-width:0.529;stroke-opacity:0.266371"
       id="path1-3-299"
       cx="23.44389"
       cy="20.560028"
       rx="0.95430672"
       ry="0.98085964" />
    <ellipse
       style="fill:#ffffff;fill-opacity:1;stroke-width:0.529;stroke-opacity:0.266371"
       id="path1-3-31"
       cx="131.39389"
       cy="63.157944"
       rx="0.95430672"
       ry="0.98085964" />
    <ellipse
       style="fill:#ffffff;fill-opacity:1;stroke-width:0.529;stroke-opacity:0.266371"
       id="path1-3-40"
       cx="288.5564"
       cy="74.005859"
       rx="0.95430672"
       ry="0.98085964" />
    <ellipse
       style="fill:#ffffff;fill-opacity:1;stroke-width:0.529;stroke-opacity:0.266371"
       id="path1-3-969"
       cx="288.5564"
       cy="26.380861"
       rx="0.95430672"
       ry="0.98085964" />
    <ellipse
       style="fill:#ffffff;fill-opacity:1;stroke-width:0.529;stroke-opacity:0.266371"
       id="path1-3-05"
       cx="366.87305"
       cy="21.089193"
       rx="0.95430672"
       ry="0.98085964" />
    <ellipse
       style="fill:#ffffff;fill-opacity:1;stroke-width:0.529;stroke-opacity:0.266371"
       id="path1-3-00"
       cx="265.80222"
       cy="45.166279"
       rx="0.95430672"
       ry="0.98085964" />
    <ellipse
       style="fill:#ffffff;fill-opacity:1;stroke-width:0.529;stroke-opacity:0.266371"
       id="path1-3-67"
       cx="266.86057"
       cy="77.71003"
       rx="0.95430672"
       ry="0.98085964" />
    <ellipse
       style="fill:#ffffff;fill-opacity:1;stroke-width:0.529;stroke-opacity:0.266371"
       id="path1-3-87"
       cx="315.54388"
       cy="91.468361"
       rx="0.95430672"
       ry="0.98085964" />
    <ellipse
       style="fill:#ffffff;fill-opacity:1;stroke-width:0.529;stroke-opacity:0.266371"
       id="path1-3-99"
       cx="341.47305"
       cy="60.776695"
       rx="0.95430672"
       ry="0.98085964" />
    <ellipse
       style="fill:#ffffff;fill-opacity:1;stroke-width:0.529;stroke-opacity:0.266371"
       id="path1-3-76"
       cx="340.94388"
       cy="23.470444"
       rx="0.95430672"
       ry="0.98085964" />
    <ellipse
       style="fill:#ffffff;fill-opacity:1;stroke-width:0.529;stroke-opacity:0.266371"
       id="path1-3-15"
       cx="263.15637"
       cy="22.412111"
       rx="0.95430672"
       ry="0.98085964" />
    <ellipse
       style="fill:#ffffff;fill-opacity:1;stroke-width:0.529;stroke-opacity:0.266371"
       id="path1-3-491"
       cx="304.16681"
       cy="58.395443"
       rx="0.95430672"
       ry="0.98085964" />
    <ellipse
       style="fill:#ffffff;fill-opacity:1;stroke-width:0.529;stroke-opacity:0.266371"
       id="path1-3-870"
       cx="315.54388"
       cy="65.010025"
       rx="0.95430672"
       ry="0.98085964" />
    <ellipse
       style="fill:#ffffff;fill-opacity:1;stroke-width:0.529;stroke-opacity:0.266371"
       id="path1-3-42"
       cx="312.10431"
       cy="18.707943"
       rx="0.95430672"
       ry="0.98085964" />
    <ellipse
       style="fill:#ffffff;fill-opacity:1;stroke-width:0.529;stroke-opacity:0.266371"
       id="path1-3-04"
       cx="285.64597"
       cy="34.318359"
       rx="0.95430672"
       ry="0.98085964" />
    <ellipse
       style="fill:#ffffff;fill-opacity:1;stroke-width:0.529;stroke-opacity:0.266371"
       id="path1-3-055"
       cx="235.63972"
       cy="17.385027"
       rx="0.95430672"
       ry="0.98085964" />
    <ellipse
       style="fill:#ffffff;fill-opacity:1;stroke-width:0.529;stroke-opacity:0.266371"
       id="path1-3-283"
       cx="238.55014"
       cy="62.099609"
       rx="0.95430672"
       ry="0.98085964" />
    <ellipse
       style="fill:#ffffff;fill-opacity:1;stroke-width:0.529;stroke-opacity:0.266371"
       id="path1-3-09"
       cx="256.01263"
       cy="72.947525"
       rx="0.95430672"
       ry="0.98085964" />
    <ellipse
       style="fill:#ffffff;fill-opacity:1;stroke-width:0.529;stroke-opacity:0.266371"
       id="path1-3-25"
       cx="247.54597"
       cy="34.318359"
       rx="0.95430672"
       ry="0.98085964" />
    <ellipse
       style="fill:#ffffff;fill-opacity:1;stroke-width:0.529;stroke-opacity:0.266371"
       id="path1-3-93"
       cx="248.86888"
       cy="79.562111"
       rx="0.95430672"
       ry="0.98085964" />
    <ellipse
       style="fill:#ffffff;fill-opacity:1;stroke-width:0.529;stroke-opacity:0.266371"
       id="path1-3-02"
       cx="231.93556"
       cy="98.876694"
       rx="0.95430672"
       ry="0.98085964" />
    <ellipse
       style="fill:#ffffff;fill-opacity:1;stroke-width:0.529;stroke-opacity:0.266371"
       id="path1-3-517"
       cx="277.17929"
       cy="100.72878"
       rx="0.95430672"
       ry="0.98085964" />
    <ellipse
       style="fill:#ffffff;fill-opacity:1;stroke-width:0.529;stroke-opacity:0.266371"
       id="path1-3-46"
       cx="234.3168"
       cy="93.320442"
       rx="0.95430672"
       ry="0.98085964" />
    <ellipse
       style="fill:#ffffff;fill-opacity:1;stroke-width:0.529;stroke-opacity:0.266371"
       id="path1-3-26"
       cx="272.94598"
       cy="91.468361"
       rx="0.95430672"
       ry="0.98085964" />
    <ellipse
       style="fill:#ffffff;fill-opacity:1;stroke-width:0.529;stroke-opacity:0.266371"
       id="path1-3-88"
       cx="302.31473"
       cy="89.087112"
       rx="0.95430672"
       ry="0.98085964" />
    <ellipse
       style="fill:#ffffff;fill-opacity:1;stroke-width:0.529;stroke-opacity:0.266371"
       id="path1-3-886"
       cx="310.25223"
       cy="72.418358"
       rx="0.95430672"
       ry="0.98085964" />
    <ellipse
       style="fill:#ffffff;fill-opacity:1;stroke-width:0.529;stroke-opacity:0.266371"
       id="path1-3-333"
       cx="316.86679"
       cy="42.255859"
       rx="0.95430672"
       ry="0.98085964" />
    <ellipse
       style="fill:#ffffff;fill-opacity:1;stroke-width:0.529;stroke-opacity:0.266371"
       id="path1-3-768"
       cx="293.31888"
       cy="18.707943"
       rx="0.95430672"
       ry="0.98085964" />
    <ellipse
       style="fill:#ffffff;fill-opacity:1;stroke-width:0.529;stroke-opacity:0.266371"
       id="path1-3-879"
       cx="347.55847"
       cy="8.9183607"
       rx="0.95430672"
       ry="0.98085964" />
    <ellipse
       style="fill:#ffffff;fill-opacity:1;stroke-width:0.529;stroke-opacity:0.266371"
       id="path1-3-37"
       cx="357.34805"
       cy="57.866276"
       rx="0.95430672"
       ry="0.98085964" />
    <ellipse
       style="fill:#ffffff;fill-opacity:1;stroke-width:0.529;stroke-opacity:0.266371"
       id="path1-3-52"
       cx="358.93555"
       cy="89.087112"
       rx="0.95430672"
       ry="0.98085964" />
    <ellipse
       style="fill:#ffffff;fill-opacity:1;stroke-width:0.529;stroke-opacity:0.266371"
       id="path1-3-79"
       cx="378.25012"
       cy="92.262108"
       rx="0.95430672"
       ry="0.98085964" />
    <ellipse
       style="fill:#ffffff;fill-opacity:1;stroke-width:0.529;stroke-opacity:0.266371"
       id="path1-3-10"
       cx="388.03973"
       cy="58.395443"
       rx="0.95430672"
       ry="0.98085964" />
    <ellipse
       style="fill:#ffffff;fill-opacity:1;stroke-width:0.529;stroke-opacity:0.266371"
       id="path1-3-08"
       cx="418.73138"
       cy="38.022526"
       rx="0.95430672"
       ry="0.98085964" />
    <ellipse
       style="fill:#ffffff;fill-opacity:1;stroke-width:0.529;stroke-opacity:0.266371"
       id="path1-3-793"
       cx="472.97098"
       cy="50.722527"
       rx="0.95430672"
       ry="0.98085964" />
    <ellipse
       style="fill:#ffffff;fill-opacity:1;stroke-width:0.529;stroke-opacity:0.266371"
       id="path1-3-301"
       cx="486.72931"
       cy="79.032944"
       rx="0.95430672"
       ry="0.98085964" />
    <ellipse
       style="fill:#ffffff;fill-opacity:1;stroke-width:0.529;stroke-opacity:0.266371"
       id="path1-3-154"
       cx="508.42514"
       cy="93.320442"
       rx="0.95430672"
       ry="0.98085964" />
    <ellipse
       style="fill:#ffffff;fill-opacity:1;stroke-width:0.529;stroke-opacity:0.266371"
       id="path1-3-749"
       cx="521.12512"
       cy="57.866276"
       rx="0.95430672"
       ry="0.98085964" />
    <ellipse
       style="fill:#ffffff;fill-opacity:1;stroke-width:0.529;stroke-opacity:0.266371"
       id="path1-3-935"
       cx="525.35846"
       cy="16.85586"
       rx="0.95430672"
       ry="0.98085964" />
    <ellipse
       style="fill:#ffffff;fill-opacity:1;stroke-width:0.529;stroke-opacity:0.266371"
       id="path1-3-19"
       cx="504.1918"
       cy="12.093361"
       rx="0.95430672"
       ry="0.98085964" />
    <ellipse
       style="fill:#ffffff;fill-opacity:1;stroke-width:0.529;stroke-opacity:0.266371"
       id="path1-3-253"
       cx="463.97513"
       cy="18.707943"
       rx="0.95430672"
       ry="0.98085964" />
    <ellipse
       style="fill:#ffffff;fill-opacity:1;stroke-width:0.529;stroke-opacity:0.266371"
       id="path1-3-20"
       cx="418.20224"
       cy="18.178778"
       rx="0.95430672"
       ry="0.98085964" />
    <ellipse
       style="fill:#ffffff;fill-opacity:1;stroke-width:0.529;stroke-opacity:0.266371"
       id="path1-3-21"
       cx="400.73972"
       cy="10.241278"
       rx="0.95430672"
       ry="0.98085964" />
    <ellipse
       style="fill:#ffffff;fill-opacity:1;stroke-width:0.529;stroke-opacity:0.266371"
       id="path1-3-311"
       cx="374.81055"
       cy="49.928776"
       rx="0.95430672"
       ry="0.98085964" />
    <ellipse
       style="fill:#ffffff;fill-opacity:1;stroke-width:0.529;stroke-opacity:0.266371"
       id="path1-3-677"
       cx="355.49597"
       cy="54.162109"
       rx="0.95430672"
       ry="0.98085964" />
    <ellipse
       style="fill:#ffffff;fill-opacity:1;stroke-width:0.529;stroke-opacity:0.266371"
       id="path1-3-474"
       cx="344.1189"
       cy="25.322527"
       rx="0.95430672"
       ry="0.98085964" />
    <ellipse
       style="fill:#ffffff;fill-opacity:1;stroke-width:0.529;stroke-opacity:0.266371"
       id="path1-3-260"
       cx="322.95224"
       cy="7.3308606"
       rx="0.95430672"
       ry="0.98085964" />
    <ellipse
       style="fill:#ffffff;fill-opacity:1;stroke-width:0.529;stroke-opacity:0.266371"
       id="path1-3-62"
       cx="297.55222"
       cy="7.8600278"
       rx="0.95430672"
       ry="0.98085964" />
    <ellipse
       style="fill:#ffffff;fill-opacity:1;stroke-width:0.529;stroke-opacity:0.266371"
       id="path1-3-07"
       cx="272.41681"
       cy="7.3308606"
       rx="0.95430672"
       ry="0.98085964" />
    <ellipse
       style="fill:#ffffff;fill-opacity:1;stroke-width:0.529;stroke-opacity:0.266371"
       id="path1-3-13"
       cx="245.69388"
       cy="4.1558604"
       rx="0.95430672"
       ry="0.98085964" />
    <ellipse
       style="fill:#ffffff;fill-opacity:1;stroke-width:0.529;stroke-opacity:0.266371"
       id="path1-3-64"
       cx="199.3918"
       cy="7.3308606"
       rx="0.95430672"
       ry="0.98085964" />
    <ellipse
       style="fill:#ffffff;fill-opacity:1;stroke-width:0.529;stroke-opacity:0.266371"
       id="path1-3-290"
       cx="177.69597"
       cy="7.8600278"
       rx="0.95430672"
       ry="0.98085964" />
    <ellipse
       style="fill:#ffffff;fill-opacity:1;stroke-width:0.529;stroke-opacity:0.266371"
       id="path1-3-510"
       cx="334.85849"
       cy="52.310028"
       rx="0.95430672"
       ry="0.98085964" />
    <ellipse
       style="fill:#ffffff;fill-opacity:1;stroke-width:0.529;stroke-opacity:0.266371"
       id="path1-3-86"
       cx="284.32306"
       cy="56.014194"
       rx="0.95430672"
       ry="0.98085964" />
    <ellipse
       style="fill:#ffffff;fill-opacity:1;stroke-width:0.529;stroke-opacity:0.266371"
       id="path1-3-760"
       cx="293.31888"
       cy="89.087112"
       rx="0.95430672"
       ry="0.98085964" />
    <ellipse
       style="fill:#ffffff;fill-opacity:1;stroke-width:0.529;stroke-opacity:0.266371"
       id="path1-3-978"
       cx="307.3418"
       cy="100.72878"
       rx="0.95430672"
       ry="0.98085964" />
    <ellipse
       style="fill:#ffffff;fill-opacity:1;stroke-width:0.529;stroke-opacity:0.266371"
       id="path1-3-83"
       cx="373.48764"
       cy="100.72878"
       rx="0.95430672"
       ry="0.98085964" />
    <ellipse
       style="fill:#ffffff;fill-opacity:1;stroke-width:0.529;stroke-opacity:0.266371"
       id="path1-3-787"
       cx="345.70639"
       cy="83.795441"
       rx="0.95430672"
       ry="0.98085964" />
    <ellipse
       style="fill:#ffffff;fill-opacity:1;stroke-width:0.529;stroke-opacity:0.266371"
       id="path1-3-098"
       cx="339.88556"
       cy="98.876694"
       rx="0.95430672"
       ry="0.98085964" />
    <ellipse
       style="fill:#ffffff;fill-opacity:1;stroke-width:0.529;stroke-opacity:0.266371"
       id="path1-3-43"
       cx="379.04388"
       cy="75.857941"
       rx="0.95430672"
       ry="0.98085964" />
    <ellipse
       style="fill:#ffffff;fill-opacity:1;stroke-width:0.529;stroke-opacity:0.266371"
       id="path1-3-809"
       cx="422.96472"
       cy="79.562111"
       rx="0.95430672"
       ry="0.98085964" />
    <ellipse
       style="fill:#ffffff;fill-opacity:1;stroke-width:0.529;stroke-opacity:0.266371"
       id="path1-3-32"
       cx="446.51263"
       cy="96.495445"
       rx="0.95430672"
       ry="0.98085964" />
    <ellipse
       style="fill:#ffffff;fill-opacity:1;stroke-width:0.529;stroke-opacity:0.266371"
       id="path1-3-12"
       cx="490.43347"
       cy="92.262108"
       rx="0.95430672"
       ry="0.98085964" />
    <ellipse
       style="fill:#ffffff;fill-opacity:1;stroke-width:0.529;stroke-opacity:0.266371"
       id="path1-3-175"
       cx="512.65845"
       cy="71.095444"
       rx="0.95430672"
       ry="0.98085964" />
    <ellipse
       style="fill:#ffffff;fill-opacity:1;stroke-width:0.529;stroke-opacity:0.266371"
       id="path1-3-171"
       cx="493.34387"
       cy="43.314194"
       rx="0.95430672"
       ry="0.98085964" />
    <ellipse
       style="fill:#ffffff;fill-opacity:1;stroke-width:0.529;stroke-opacity:0.266371"
       id="path1-3-040"
       cx="493.87305"
       cy="23.470444"
       rx="0.95430672"
       ry="0.98085964" />
    <ellipse
       style="fill:#ffffff;fill-opacity:1;stroke-width:0.529;stroke-opacity:0.266371"
       id="path1-3-66"
       cx="515.56891"
       cy="29.026693"
       rx="0.95430672"
       ry="0.98085964" />
    <ellipse
       style="fill:#ffffff;fill-opacity:1;stroke-width:0.529;stroke-opacity:0.266371"
       id="path1-3-648"
       cx="515.03973"
       cy="10.241278"
       rx="0.95430672"
       ry="0.98085964" />
    <ellipse
       style="fill:#ffffff;fill-opacity:1;stroke-width:0.529;stroke-opacity:0.266371"
       id="path1-3-022"
       cx="482.49597"
       cy="11.564194"
       rx="0.95430672"
       ry="0.98085964" />
    <ellipse
       style="fill:#ffffff;fill-opacity:1;stroke-width:0.529;stroke-opacity:0.266371"
       id="path1-3-646"
       cx="443.33765"
       cy="19.23711"
       rx="0.95430672"
       ry="0.98085964" />
    <ellipse
       style="fill:#ffffff;fill-opacity:1;stroke-width:0.529;stroke-opacity:0.266371"
       id="path1-3-7491"
       cx="445.18973"
       cy="56.543362"
       rx="0.95430672"
       ry="0.98085964" />
    <ellipse
       style="fill:#ffffff;fill-opacity:1;stroke-width:0.529;stroke-opacity:0.266371"
       id="path1-3-085"
       cx="457.36057"
       cy="83.795441"
       rx="0.95430672"
       ry="0.98085964" />
    <ellipse
       style="fill:#ffffff;fill-opacity:1;stroke-width:0.529;stroke-opacity:0.266371"
       id="path1-3-1541"
       cx="410.79388"
       cy="86.176697"
       rx="0.95430672"
       ry="0.98085964" />
    <ellipse
       style="fill:#ffffff;fill-opacity:1;stroke-width:0.529;stroke-opacity:0.266371"
       id="path1-3-98"
       cx="412.64597"
       cy="47.547527"
       rx="0.95430672"
       ry="0.98085964" />
    <ellipse
       style="fill:#ffffff;fill-opacity:1;stroke-width:0.529;stroke-opacity:0.266371"
       id="path1-3-22"
       cx="397.56473"
       cy="25.851694"
       rx="0.95430672"
       ry="0.98085964" />
    <ellipse
       style="fill:#ffffff;fill-opacity:1;stroke-width:0.529;stroke-opacity:0.266371"
       id="path1-3-34"
       cx="385.65848"
       cy="8.9183607"
       rx="0.95430672"
       ry="0.98085964" />
    <ellipse
       style="fill:#ffffff;fill-opacity:1;stroke-width:0.529;stroke-opacity:0.266371"
       id="path1-3-334"
       cx="376.39804"
       cy="32.466278"
       rx="0.95430672"
       ry="0.98085964" />
    <ellipse
       style="fill:#ffffff;fill-opacity:1;stroke-width:0.529;stroke-opacity:0.266371"
       id="path1-3-72"
       cx="349.93973"
       cy="42.255859"
       rx="0.95430672"
       ry="0.98085964" />
    <ellipse
       style="fill:#ffffff;fill-opacity:1;stroke-width:0.529;stroke-opacity:0.266371"
       id="path1-3-024"
       cx="358.93555"
       cy="73.476692"
       rx="0.95430672"
       ry="0.98085964" />
    <ellipse
       style="fill:#ffffff;fill-opacity:1;stroke-width:0.529;stroke-opacity:0.266371"
       id="path1-3-71"
       cx="397.56473"
       cy="99.405861"
       rx="0.95430672"
       ry="0.98085964" />
    <ellipse
       style="fill:#ffffff;fill-opacity:1;stroke-width:0.529;stroke-opacity:0.266371"
       id="path1-3-71-8"
       cx="411.58765"
       cy="68.978775"
       rx="0.95430672"
       ry="0.98085964" />
    <ellipse
       style="fill:#ffffff;fill-opacity:1;stroke-width:0.529;stroke-opacity:0.266371"
       id="path1-3-71-87"
       cx="437.7814"
       cy="40.932941"
       rx="0.95430672"
       ry="0.98085964" />
    <ellipse
       style="fill:#ffffff;fill-opacity:1;stroke-width:0.529;stroke-opacity:0.266371"
       id="path1-3-71-0"
       cx="465.29807"
       cy="33.260025"
       rx="0.95430672"
       ry="0.98085964" />
    <ellipse
       style="fill:#ffffff;fill-opacity:1;stroke-width:0.529;stroke-opacity:0.266371"
       id="path1-3-71-1"
       cx="469.5314"
       cy="69.772522"
       rx="0.95430672"
       ry="0.98085964" />
    <ellipse
       style="fill:#ffffff;fill-opacity:1;stroke-width:0.529;stroke-opacity:0.266371"
       id="path1-3-71-9"
       cx="466.88556"
       cy="97.024605"
       rx="0.95430672"
       ry="0.98085964" />
    <ellipse
       style="fill:#ffffff;fill-opacity:1;stroke-width:0.529;stroke-opacity:0.266371"
       id="path1-3-71-5"
       cx="436.19388"
       cy="68.978775"
       rx="0.95430672"
       ry="0.98085964" />
    <g
       id="group-R5"
       transform="matrix(0.0326867,0,0,0.0326867,413.74382,17.572154)">
      <path
         id="path6"
         d="m 4096.34,5239.27 c 349.65,-144.17 651.89,-379.94 876.79,-677.43 36.75,-48.63 99.77,-65.53 155.91,-41.83 l 53.41,22.56 248.82,-589.31 -17.02,-7.19 c -59.86,-25.26 -91.93,-88.99 -76.56,-152.1 38.82,-159.66 59.45,-326.44 59.45,-498.04 0,-790.26 -436.36,-1478.51 -1081.19,-1837.28 -51.34,-28.57 -76.96,-85.05 -64.56,-142.5 l 18,-83.54 -943.36,-203.45 -13.96,64.74 c -12.72,58.97 -61.73,100.53 -121.97,103.52 -1075.01,53.33 -1937.43,914.52 -1992.56,1989.07 -3.27,63.77 -50.45,115 -113.73,123.5 l -4.78,0.66 111.26,829.48 74.16,-9.94 c 57.39,-7.71 110.88,21.19 135.93,73.39 228.03,475.29 629.61,851.53 1122.58,1046.66 143.54,56.83 233.1,188.53 233.1,342.91 v 50.49 h 1112.03 v -63.42 c 0,-152.56 87.21,-282.79 228.25,-340.95"
         style="fill:#f1a40f;fill-opacity:1;fill-rule:evenodd;stroke:none"
         transform="matrix(0.13333333,0,0,-0.13333333,0,878.92)" />
      <path
         id="path7"
         d="m 4096.34,5239.27 c 75.75,-31.24 149.29,-66.78 220.29,-106.31 6.97,-74.14 -11.32,-134.02 -68.89,-163.76 -189.72,-97.97 -370.23,88.2 -716.27,-230.5 -277.98,-311.05 -108.52,-599.48 98.89,-904.1 177.84,-261.21 665.31,-750.75 688.46,-1046.05 -21.41,-540.54 -459.13,-623.54 -912.78,-655.76 -251.01,-17.82 -374.57,-4.47 -621.89,25.04 -420.2,11.57 -433.31,-481.98 -829.86,-478.98 -437.86,363.64 -725.66,901.72 -756.75,1507.64 -3.27,63.77 -50.45,115 -113.73,123.5 l -4.78,0.66 111.26,829.48 74.16,-9.94 c 57.39,-7.71 110.88,21.19 135.93,73.39 228.03,475.29 629.61,851.53 1122.58,1046.66 143.54,56.83 233.1,188.53 233.1,342.91 v 50.49 h 1112.03 v -63.42 c 0,-152.56 87.21,-282.79 228.25,-340.95"
         style="fill:#fab40a;fill-opacity:1;fill-rule:evenodd;stroke:none"
         transform="matrix(0.13333333,0,0,-0.13333333,0,878.92)" />
      <path
         id="path8"
         d="m 1276.47,2713.74 c -43.53,151.27 -70.55,309.55 -78.93,472.75 -3.27,63.77 -50.45,115 -113.73,123.5 l -4.78,0.66 111.26,829.48 74.16,-9.94 c 57.39,-7.71 110.88,21.19 135.93,73.39 170.46,355.33 437.95,655.27 768.07,865.6 -49.58,-184.78 -50.78,-361 167.67,-502.32 510.72,-203.74 949.39,-50.65 1061.19,-713.29 135.39,-802.29 -872.89,-823.16 -1408.62,-794.05 -197.78,10.75 -428.01,43.41 -603.14,-69.05 -80.65,-67.43 -106.97,-164.71 -109.08,-276.73"
         style="fill:#fbc907;fill-opacity:1;fill-rule:evenodd;stroke:none"
         transform="matrix(0.13333333,0,0,-0.13333333,0,878.92)" />
      <path
         id="path9"
         d="m 3312.08,5475.23 c 306.25,0 556.03,75.65 556.03,168.41 0,92.76 -249.78,168.41 -556.02,168.41 -306.26,0 -556.03,-75.65 -556.03,-168.41 0,-92.76 249.77,-168.41 556.02,-168.41"
         style="fill:#fab40a;fill-opacity:1;fill-rule:evenodd;stroke:none"
         transform="matrix(0.13333333,0,0,-0.13333333,0,878.92)" />
      <path
         id="path10"
         d="m 3312.08,5506.81 c 264.28,0 479.83,61.47 479.83,136.83 0,75.37 -215.55,136.84 -479.82,136.84 -264.29,0 -479.83,-61.47 -479.83,-136.84 0,-75.36 215.54,-136.83 479.82,-136.83"
         style="fill:#df8c16;fill-opacity:1;fill-rule:evenodd;stroke:none"
         transform="matrix(0.13333333,0,0,-0.13333333,0,878.92)" />
      <path
         id="path11"
         d="m 3729.89,5576.32 c -82.41,-41.5 -238.64,-69.51 -417.82,-69.51 -179.19,0 -335.4,28.02 -417.82,69.51 82.42,41.51 238.63,69.52 417.82,69.52 179.18,0 335.41,-28.02 417.82,-69.52"
         style="fill:#82531c;fill-opacity:1;fill-rule:evenodd;stroke:none"
         transform="matrix(0.13333333,0,0,-0.13333333,0,878.92)" />
      <path
         id="path12"
         d="m 1009.03,3742.23 c 30.74,229.05 111.88,407.2 181.26,397.9 69.39,-9.31 100.73,-202.54 70,-431.6 -30.73,-229.06 -111.88,-407.21 -181.26,-397.88 -69.38,9.29 -100.714,202.52 -70,431.58"
         style="fill:#fab40a;fill-opacity:1;fill-rule:evenodd;stroke:none"
         transform="matrix(0.13333333,0,0,-0.13333333,0,878.92)" />
      <path
         id="path13"
         d="m 3828.52,988.02 c -260.5,-56.18 -485.47,-37.758 -502.49,41.14 -17.03,78.91 180.37,188.41 440.87,244.6 260.5,56.19 485.47,37.76 502.49,-41.15 17.03,-78.89 -180.37,-188.42 -440.87,-244.59"
         style="fill:#fab40a;fill-opacity:1;fill-rule:evenodd;stroke:none"
         transform="matrix(0.13333333,0,0,-0.13333333,0,878.92)" />
      <path
         id="path14"
         d="m 5396.11,4285.59 c 68.71,-162.73 84.47,-311.52 35.16,-332.33 -49.29,-20.81 -144.94,94.23 -213.66,256.96 -68.69,162.74 -84.45,311.53 -35.16,332.35 49.29,20.8 144.95,-94.24 213.66,-256.98"
         style="fill:#fab40a;fill-opacity:1;fill-rule:evenodd;stroke:none"
         transform="matrix(0.13333333,0,0,-0.13333333,0,878.92)" />
      <path
         id="path15"
         d="m 5372.22,4275.5 c 50.33,-119.17 61.85,-228.14 25.76,-243.38 -36.1,-15.24 -106.14,69.01 -156.48,188.19 -50.31,119.18 -61.85,228.15 -25.74,243.4 36.1,15.23 106.14,-69.03 156.46,-188.21"
         style="fill:#df8c16;fill-opacity:1;fill-rule:evenodd;stroke:none"
         transform="matrix(0.13333333,0,0,-0.13333333,0,878.92)" />
      <path
         id="path16"
         d="m 5332.43,4067.3 c -30.4,33.78 -63.57,88.23 -90.93,153.01 -26.07,61.76 -41.73,120.78 -45.74,165.44 30.39,-33.77 63.57,-88.24 90.92,-153.02 26.08,-61.76 41.74,-120.77 45.75,-165.43"
         style="fill:#82531c;fill-opacity:1;fill-rule:evenodd;stroke:none"
         transform="matrix(0.13333333,0,0,-0.13333333,0,878.92)" />
      <path
         id="path17"
         d="m 3821.2,1021.96 c -198.62,-42.831 -370.15,-28.792 -383.13,31.36 -12.98,60.18 137.52,143.68 336.15,186.49 198.62,42.85 370.15,28.81 383.13,-31.36 12.97,-60.16 -137.52,-143.65 -336.15,-186.49"
         style="fill:#df8c16;fill-opacity:1;fill-rule:evenodd;stroke:none"
         transform="matrix(0.13333333,0,0,-0.13333333,0,878.92)" />
      <path
         id="path18"
         d="m 3455.09,1099.44 c 44.46,51.53 167.82,107.76 319.13,140.37 131.48,28.37 251.05,31.79 320.65,13.42 -44.44,-51.53 -167.8,-107.75 -319.12,-140.39 -131.47,-28.33 -251.04,-31.78 -320.66,-13.4"
         style="fill:#82531c;fill-opacity:1;fill-rule:evenodd;stroke:none"
         transform="matrix(0.13333333,0,0,-0.13333333,0,878.92)" />
      <path
         id="path19"
         d="m 1039.3,3738.17 c 23.33,173.89 84.93,309.12 137.59,302.05 52.67,-7.06 76.46,-153.75 53.13,-327.63 -23.33,-173.88 -84.93,-309.12 -137.59,-302.05 -52.67,7.06 -76.46,153.75 -53.13,327.63"
         style="fill:#df8c16;fill-opacity:1;fill-rule:evenodd;stroke:none"
         transform="matrix(0.13333333,0,0,-0.13333333,0,878.92)" />
      <path
         id="path20"
         d="m 1219.38,3990.43 c 20.83,-58.5 26.17,-162.14 10.64,-277.84 -16.47,-122.82 -52.05,-226.36 -90.08,-274.08 -20.83,58.5 -26.17,162.13 -10.66,277.84 16.49,122.82 52.06,226.36 90.1,274.08"
         style="fill:#82531c;fill-opacity:1;fill-rule:evenodd;stroke:none"
         transform="matrix(0.13333333,0,0,-0.13333333,0,878.92)" />
      <path
         id="path21"
         d="m 4361.87,4662.16 c 229.93,-155.44 338.58,-396.46 242.66,-538.34 -95.91,-141.89 -360.06,-130.89 -589.99,24.55 -229.95,155.44 -338.6,396.47 -242.69,538.35 95.91,141.87 360.05,130.89 590.02,-24.56"
         style="fill:#df8c16;fill-opacity:1;fill-rule:evenodd;stroke:none"
         transform="matrix(0.13333333,0,0,-0.13333333,0,878.92)" />
      <path
         id="path22"
         d="m 4543.09,4065.34 c -122.05,-75.63 -337.16,-46.36 -528.55,83.03 -191.41,129.39 -298.75,318.07 -274.05,459.52 122.05,75.64 337.14,46.35 528.54,-83.04 191.4,-129.38 298.75,-318.07 274.06,-459.51"
         style="fill:#82531c;fill-opacity:1;fill-rule:evenodd;stroke:none"
         transform="matrix(0.13333333,0,0,-0.13333333,0,878.92)" />
      <path
         id="path23"
         d="m 4892.37,2543.67 c -71.11,-192.79 -225.18,-313.5 -344.14,-269.64 -118.95,43.89 -157.72,235.75 -86.61,428.52 71.1,192.79 225.2,313.49 344.15,269.62 118.94,-43.87 157.73,-235.73 86.6,-428.5"
         style="fill:#df8c16;fill-opacity:1;fill-rule:evenodd;stroke:none"
         transform="matrix(0.13333333,0,0,-0.13333333,0,878.92)" />
      <path
         id="path24"
         d="m 4495.34,2307.9 c -75.96,74.38 -92.91,234.17 -33.72,394.65 59.19,160.48 175.88,270.99 281.93,278.24 75.93,-74.39 92.91,-234.2 33.72,-394.68 -59.21,-160.46 -175.88,-270.97 -281.93,-278.21"
         style="fill:#82531c;fill-opacity:1;fill-rule:evenodd;stroke:none"
         transform="matrix(0.13333333,0,0,-0.13333333,0,878.92)" />
      <path
         id="path25"
         d="m 1757.08,2614.72 c -52.77,123.21 -33.91,249.49 42.11,282.06 76.03,32.56 180.45,-40.94 233.22,-164.17 52.77,-123.21 33.92,-249.49 -42.12,-282.06 -76.03,-32.56 -180.44,40.94 -233.21,164.17"
         style="fill:#df8c16;fill-opacity:1;fill-rule:evenodd;stroke:none"
         transform="matrix(0.13333333,0,0,-0.13333333,0,878.92)" />
      <path
         id="path26"
         d="m 1839.44,2904.45 c 69.33,-1.14 149.03,-69.26 192.97,-171.84 43.93,-102.56 38.2,-207.23 -8.79,-258.23 -69.33,1.16 -149.04,69.27 -192.97,171.84 -43.92,102.57 -38.21,207.24 8.79,258.23"
         style="fill:#82531c;fill-opacity:1;fill-rule:evenodd;stroke:none"
         transform="matrix(0.13333333,0,0,-0.13333333,0,878.92)" />
      <path
         id="path27"
         d="m 2490.57,4262.98 c 242.56,118.99 522.78,45.1 625.85,-165.05 103.1,-210.15 -9.97,-476.96 -252.52,-595.95 -242.58,-118.99 -522.77,-45.09 -625.87,165.06 -103.08,210.14 9.99,476.95 252.54,595.94"
         style="fill:#df8c16;fill-opacity:1;fill-rule:evenodd;stroke:none"
         transform="matrix(0.13333333,0,0,-0.13333333,0,878.92)" />
      <path
         id="path28"
         d="m 3135.63,4050.78 c 66.55,-201.41 -47.01,-438.55 -271.73,-548.8 -224.75,-110.25 -481.81,-54.88 -600.36,121 -66.51,201.4 47.03,438.56 271.78,548.81 224.74,110.25 481.76,54.87 600.31,-121.01"
         style="fill:#82531c;fill-opacity:1;fill-rule:evenodd;stroke:none"
         transform="matrix(0.13333333,0,0,-0.13333333,0,878.92)" />
      <path
         id="path29"
         d="m 3652.13,2225.4 c -191.56,-30.83 -366.87,89.84 -391.54,269.57 -24.68,179.72 110.58,350.45 302.13,381.28 191.57,30.88 366.87,-89.83 391.55,-269.54 24.69,-179.74 -110.6,-350.44 -302.14,-381.31"
         style="fill:#df8c16;fill-opacity:1;fill-rule:evenodd;stroke:none"
         transform="matrix(0.13333333,0,0,-0.13333333,0,878.92)" />
      <path
         id="path30"
         d="m 3257.71,2534.39 c -1.61,164.63 127.53,313.29 305.01,341.86 177.5,28.6 341.01,-72.92 383.71,-230.93 1.61,-164.66 -127.52,-313.32 -305.02,-341.92 -177.48,-28.57 -341,72.94 -383.7,230.99"
         style="fill:#82531c;fill-opacity:1;fill-rule:evenodd;stroke:none"
         transform="matrix(0.13333333,0,0,-0.13333333,0,878.92)" />
      <path
         id="path31"
         d="m 2772.91,1595.21 c -162.57,48.36 -270.14,168.9 -240.31,269.18 29.85,100.31 185.82,142.39 348.39,94.04 162.54,-48.38 270.13,-168.89 240.28,-269.19 -29.84,-100.31 -185.81,-142.4 -348.36,-94.03"
         style="fill:#df8c16;fill-opacity:1;fill-rule:evenodd;stroke:none"
         transform="matrix(0.13333333,0,0,-0.13333333,0,878.92)" />
      <path
         id="path32"
         d="m 2557.7,1909.76 c 57.22,66.49 187.95,88.93 323.29,48.67 135.29,-40.26 232.51,-130.52 244.08,-217.49 -57.24,-66.49 -187.98,-88.92 -323.29,-48.67 -135.31,40.27 -232.53,130.53 -244.08,217.49"
         style="fill:#82531c;fill-opacity:1;fill-rule:evenodd;stroke:none"
         transform="matrix(0.13333333,0,0,-0.13333333,0,878.92)" />
      <path
         id="path33"
         d="m 2941.27,5013.6 c 188.85,40.28 361.8,-2.7 386.31,-95.99 24.5,-93.29 -108.73,-201.56 -297.59,-241.82 -188.82,-40.28 -361.8,2.71 -386.3,95.99 -24.51,93.29 108.72,201.56 297.58,241.82"
         style="fill:#df8c16;fill-opacity:1;fill-rule:evenodd;stroke:none"
         transform="matrix(0.13333333,0,0,-0.13333333,0,878.92)" />
      <path
         id="path34"
         d="m 3327.07,4869.83 c -21.23,-79.89 -139.87,-160.53 -297.08,-194.04 -157.19,-33.52 -303.36,-9.35 -362.07,53.49 21.21,79.89 139.86,160.52 297.06,194.05 157.2,33.51 303.37,9.35 362.09,-53.5"
         style="fill:#82531c;fill-opacity:1;fill-rule:evenodd;stroke:none"
         transform="matrix(0.13333333,0,0,-0.13333333,0,878.92)" />
    </g>
    <g
       id="group-R5-9"
       transform="matrix(0.08941006,0,0,0.08941006,199.74501,-5.6274737)">
      <path
         id="path6-9"
         d="m 4096.34,5239.27 c 349.65,-144.17 651.89,-379.94 876.79,-677.43 36.75,-48.63 99.77,-65.53 155.91,-41.83 l 53.41,22.56 248.82,-589.31 -17.02,-7.19 c -59.86,-25.26 -91.93,-88.99 -76.56,-152.1 38.82,-159.66 59.45,-326.44 59.45,-498.04 0,-790.26 -436.36,-1478.51 -1081.19,-1837.28 -51.34,-28.57 -76.96,-85.05 -64.56,-142.5 l 18,-83.54 -943.36,-203.45 -13.96,64.74 c -12.72,58.97 -61.73,100.53 -121.97,103.52 -1075.01,53.33 -1937.43,914.52 -1992.56,1989.07 -3.27,63.77 -50.45,115 -113.73,123.5 l -4.78,0.66 111.26,829.48 74.16,-9.94 c 57.39,-7.71 110.88,21.19 135.93,73.39 228.03,475.29 629.61,851.53 1122.58,1046.66 143.54,56.83 233.1,188.53 233.1,342.91 v 50.49 h 1112.03 v -63.42 c 0,-152.56 87.21,-282.79 228.25,-340.95"
         style="fill:#f1a40f;fill-opacity:1;fill-rule:evenodd;stroke:none"
         transform="matrix(0.13333333,0,0,-0.13333333,0,878.92)" />
      <path
         id="path7-0"
         d="m 4096.34,5239.27 c 75.75,-31.24 149.29,-66.78 220.29,-106.31 6.97,-74.14 -11.32,-134.02 -68.89,-163.76 -189.72,-97.97 -370.23,88.2 -716.27,-230.5 -277.98,-311.05 -108.52,-599.48 98.89,-904.1 177.84,-261.21 665.31,-750.75 688.46,-1046.05 -21.41,-540.54 -459.13,-623.54 -912.78,-655.76 -251.01,-17.82 -374.57,-4.47 -621.89,25.04 -420.2,11.57 -433.31,-481.98 -829.86,-478.98 -437.86,363.64 -725.66,901.72 -756.75,1507.64 -3.27,63.77 -50.45,115 -113.73,123.5 l -4.78,0.66 111.26,829.48 74.16,-9.94 c 57.39,-7.71 110.88,21.19 135.93,73.39 228.03,475.29 629.61,851.53 1122.58,1046.66 143.54,56.83 233.1,188.53 233.1,342.91 v 50.49 h 1112.03 v -63.42 c 0,-152.56 87.21,-282.79 228.25,-340.95"
         style="fill:#fab40a;fill-opacity:1;fill-rule:evenodd;stroke:none"
         transform="matrix(0.13333333,0,0,-0.13333333,0,878.92)" />
      <path
         id="path8-7"
         d="m 1276.47,2713.74 c -43.53,151.27 -70.55,309.55 -78.93,472.75 -3.27,63.77 -50.45,115 -113.73,123.5 l -4.78,0.66 111.26,829.48 74.16,-9.94 c 57.39,-7.71 110.88,21.19 135.93,73.39 170.46,355.33 437.95,655.27 768.07,865.6 -49.58,-184.78 -50.78,-361 167.67,-502.32 510.72,-203.74 949.39,-50.65 1061.19,-713.29 135.39,-802.29 -872.89,-823.16 -1408.62,-794.05 -197.78,10.75 -428.01,43.41 -603.14,-69.05 -80.65,-67.43 -106.97,-164.71 -109.08,-276.73"
         style="fill:#fbc907;fill-opacity:1;fill-rule:evenodd;stroke:none"
         transform="matrix(0.13333333,0,0,-0.13333333,0,878.92)" />
      <path
         id="path9-6"
         d="m 3312.08,5475.23 c 306.25,0 556.03,75.65 556.03,168.41 0,92.76 -249.78,168.41 -556.02,168.41 -306.26,0 -556.03,-75.65 -556.03,-168.41 0,-92.76 249.77,-168.41 556.02,-168.41"
         style="fill:#fab40a;fill-opacity:1;fill-rule:evenodd;stroke:none"
         transform="matrix(0.13333333,0,0,-0.13333333,0,878.92)" />
      <path
         id="path10-3"
         d="m 3312.08,5506.81 c 264.28,0 479.83,61.47 479.83,136.83 0,75.37 -215.55,136.84 -479.82,136.84 -264.29,0 -479.83,-61.47 -479.83,-136.84 0,-75.36 215.54,-136.83 479.82,-136.83"
         style="fill:#df8c16;fill-opacity:1;fill-rule:evenodd;stroke:none"
         transform="matrix(0.13333333,0,0,-0.13333333,0,878.92)" />
      <path
         id="path11-7"
         d="m 3729.89,5576.32 c -82.41,-41.5 -238.64,-69.51 -417.82,-69.51 -179.19,0 -335.4,28.02 -417.82,69.51 82.42,41.51 238.63,69.52 417.82,69.52 179.18,0 335.41,-28.02 417.82,-69.52"
         style="fill:#82531c;fill-opacity:1;fill-rule:evenodd;stroke:none"
         transform="matrix(0.13333333,0,0,-0.13333333,0,878.92)" />
      <path
         id="path12-6"
         d="m 1009.03,3742.23 c 30.74,229.05 111.88,407.2 181.26,397.9 69.39,-9.31 100.73,-202.54 70,-431.6 -30.73,-229.06 -111.88,-407.21 -181.26,-397.88 -69.38,9.29 -100.714,202.52 -70,431.58"
         style="fill:#fab40a;fill-opacity:1;fill-rule:evenodd;stroke:none"
         transform="matrix(0.13333333,0,0,-0.13333333,0,878.92)" />
      <path
         id="path13-1"
         d="m 3828.52,988.02 c -260.5,-56.18 -485.47,-37.758 -502.49,41.14 -17.03,78.91 180.37,188.41 440.87,244.6 260.5,56.19 485.47,37.76 502.49,-41.15 17.03,-78.89 -180.37,-188.42 -440.87,-244.59"
         style="fill:#fab40a;fill-opacity:1;fill-rule:evenodd;stroke:none"
         transform="matrix(0.13333333,0,0,-0.13333333,0,878.92)" />
      <path
         id="path14-5"
         d="m 5396.11,4285.59 c 68.71,-162.73 84.47,-311.52 35.16,-332.33 -49.29,-20.81 -144.94,94.23 -213.66,256.96 -68.69,162.74 -84.45,311.53 -35.16,332.35 49.29,20.8 144.95,-94.24 213.66,-256.98"
         style="fill:#fab40a;fill-opacity:1;fill-rule:evenodd;stroke:none"
         transform="matrix(0.13333333,0,0,-0.13333333,0,878.92)" />
      <path
         id="path15-0"
         d="m 5372.22,4275.5 c 50.33,-119.17 61.85,-228.14 25.76,-243.38 -36.1,-15.24 -106.14,69.01 -156.48,188.19 -50.31,119.18 -61.85,228.15 -25.74,243.4 36.1,15.23 106.14,-69.03 156.46,-188.21"
         style="fill:#df8c16;fill-opacity:1;fill-rule:evenodd;stroke:none"
         transform="matrix(0.13333333,0,0,-0.13333333,0,878.92)" />
      <path
         id="path16-6"
         d="m 5332.43,4067.3 c -30.4,33.78 -63.57,88.23 -90.93,153.01 -26.07,61.76 -41.73,120.78 -45.74,165.44 30.39,-33.77 63.57,-88.24 90.92,-153.02 26.08,-61.76 41.74,-120.77 45.75,-165.43"
         style="fill:#82531c;fill-opacity:1;fill-rule:evenodd;stroke:none"
         transform="matrix(0.13333333,0,0,-0.13333333,0,878.92)" />
      <path
         id="path17-5"
         d="m 3821.2,1021.96 c -198.62,-42.831 -370.15,-28.792 -383.13,31.36 -12.98,60.18 137.52,143.68 336.15,186.49 198.62,42.85 370.15,28.81 383.13,-31.36 12.97,-60.16 -137.52,-143.65 -336.15,-186.49"
         style="fill:#df8c16;fill-opacity:1;fill-rule:evenodd;stroke:none"
         transform="matrix(0.13333333,0,0,-0.13333333,0,878.92)" />
      <path
         id="path18-0"
         d="m 3455.09,1099.44 c 44.46,51.53 167.82,107.76 319.13,140.37 131.48,28.37 251.05,31.79 320.65,13.42 -44.44,-51.53 -167.8,-107.75 -319.12,-140.39 -131.47,-28.33 -251.04,-31.78 -320.66,-13.4"
         style="fill:#82531c;fill-opacity:1;fill-rule:evenodd;stroke:none"
         transform="matrix(0.13333333,0,0,-0.13333333,0,878.92)" />
      <path
         id="path19-8"
         d="m 1039.3,3738.17 c 23.33,173.89 84.93,309.12 137.59,302.05 52.67,-7.06 76.46,-153.75 53.13,-327.63 -23.33,-173.88 -84.93,-309.12 -137.59,-302.05 -52.67,7.06 -76.46,153.75 -53.13,327.63"
         style="fill:#df8c16;fill-opacity:1;fill-rule:evenodd;stroke:none"
         transform="matrix(0.13333333,0,0,-0.13333333,0,878.92)" />
      <path
         id="path20-1"
         d="m 1219.38,3990.43 c 20.83,-58.5 26.17,-162.14 10.64,-277.84 -16.47,-122.82 -52.05,-226.36 -90.08,-274.08 -20.83,58.5 -26.17,162.13 -10.66,277.84 16.49,122.82 52.06,226.36 90.1,274.08"
         style="fill:#82531c;fill-opacity:1;fill-rule:evenodd;stroke:none"
         transform="matrix(0.13333333,0,0,-0.13333333,0,878.92)" />
      <path
         id="path21-2"
         d="m 4361.87,4662.16 c 229.93,-155.44 338.58,-396.46 242.66,-538.34 -95.91,-141.89 -360.06,-130.89 -589.99,24.55 -229.95,155.44 -338.6,396.47 -242.69,538.35 95.91,141.87 360.05,130.89 590.02,-24.56"
         style="fill:#df8c16;fill-opacity:1;fill-rule:evenodd;stroke:none"
         transform="matrix(0.13333333,0,0,-0.13333333,0,878.92)" />
      <path
         id="path22-2"
         d="m 4543.09,4065.34 c -122.05,-75.63 -337.16,-46.36 -528.55,83.03 -191.41,129.39 -298.75,318.07 -274.05,459.52 122.05,75.64 337.14,46.35 528.54,-83.04 191.4,-129.38 298.75,-318.07 274.06,-459.51"
         style="fill:#82531c;fill-opacity:1;fill-rule:evenodd;stroke:none"
         transform="matrix(0.13333333,0,0,-0.13333333,0,878.92)" />
      <path
         id="path23-6"
         d="m 4892.37,2543.67 c -71.11,-192.79 -225.18,-313.5 -344.14,-269.64 -118.95,43.89 -157.72,235.75 -86.61,428.52 71.1,192.79 225.2,313.49 344.15,269.62 118.94,-43.87 157.73,-235.73 86.6,-428.5"
         style="fill:#df8c16;fill-opacity:1;fill-rule:evenodd;stroke:none"
         transform="matrix(0.13333333,0,0,-0.13333333,0,878.92)" />
      <path
         id="path24-9"
         d="m 4495.34,2307.9 c -75.96,74.38 -92.91,234.17 -33.72,394.65 59.19,160.48 175.88,270.99 281.93,278.24 75.93,-74.39 92.91,-234.2 33.72,-394.68 -59.21,-160.46 -175.88,-270.97 -281.93,-278.21"
         style="fill:#82531c;fill-opacity:1;fill-rule:evenodd;stroke:none"
         transform="matrix(0.13333333,0,0,-0.13333333,0,878.92)" />
      <path
         id="path25-1"
         d="m 1757.08,2614.72 c -52.77,123.21 -33.91,249.49 42.11,282.06 76.03,32.56 180.45,-40.94 233.22,-164.17 52.77,-123.21 33.92,-249.49 -42.12,-282.06 -76.03,-32.56 -180.44,40.94 -233.21,164.17"
         style="fill:#df8c16;fill-opacity:1;fill-rule:evenodd;stroke:none"
         transform="matrix(0.13333333,0,0,-0.13333333,0,878.92)" />
      <path
         id="path26-0"
         d="m 1839.44,2904.45 c 69.33,-1.14 149.03,-69.26 192.97,-171.84 43.93,-102.56 38.2,-207.23 -8.79,-258.23 -69.33,1.16 -149.04,69.27 -192.97,171.84 -43.92,102.57 -38.21,207.24 8.79,258.23"
         style="fill:#82531c;fill-opacity:1;fill-rule:evenodd;stroke:none"
         transform="matrix(0.13333333,0,0,-0.13333333,0,878.92)" />
      <path
         id="path27-4"
         d="m 2490.57,4262.98 c 242.56,118.99 522.78,45.1 625.85,-165.05 103.1,-210.15 -9.97,-476.96 -252.52,-595.95 -242.58,-118.99 -522.77,-45.09 -625.87,165.06 -103.08,210.14 9.99,476.95 252.54,595.94"
         style="fill:#df8c16;fill-opacity:1;fill-rule:evenodd;stroke:none"
         transform="matrix(0.13333333,0,0,-0.13333333,0,878.92)" />
      <path
         id="path28-2"
         d="m 3135.63,4050.78 c 66.55,-201.41 -47.01,-438.55 -271.73,-548.8 -224.75,-110.25 -481.81,-54.88 -600.36,121 -66.51,201.4 47.03,438.56 271.78,548.81 224.74,110.25 481.76,54.87 600.31,-121.01"
         style="fill:#82531c;fill-opacity:1;fill-rule:evenodd;stroke:none"
         transform="matrix(0.13333333,0,0,-0.13333333,0,878.92)" />
      <path
         id="path29-7"
         d="m 3652.13,2225.4 c -191.56,-30.83 -366.87,89.84 -391.54,269.57 -24.68,179.72 110.58,350.45 302.13,381.28 191.57,30.88 366.87,-89.83 391.55,-269.54 24.69,-179.74 -110.6,-350.44 -302.14,-381.31"
         style="fill:#df8c16;fill-opacity:1;fill-rule:evenodd;stroke:none"
         transform="matrix(0.13333333,0,0,-0.13333333,0,878.92)" />
      <path
         id="path30-4"
         d="m 3257.71,2534.39 c -1.61,164.63 127.53,313.29 305.01,341.86 177.5,28.6 341.01,-72.92 383.71,-230.93 1.61,-164.66 -127.52,-313.32 -305.02,-341.92 -177.48,-28.57 -341,72.94 -383.7,230.99"
         style="fill:#82531c;fill-opacity:1;fill-rule:evenodd;stroke:none"
         transform="matrix(0.13333333,0,0,-0.13333333,0,878.92)" />
      <path
         id="path31-0"
         d="m 2772.91,1595.21 c -162.57,48.36 -270.14,168.9 -240.31,269.18 29.85,100.31 185.82,142.39 348.39,94.04 162.54,-48.38 270.13,-168.89 240.28,-269.19 -29.84,-100.31 -185.81,-142.4 -348.36,-94.03"
         style="fill:#df8c16;fill-opacity:1;fill-rule:evenodd;stroke:none"
         transform="matrix(0.13333333,0,0,-0.13333333,0,878.92)" />
      <path
         id="path32-3"
         d="m 2557.7,1909.76 c 57.22,66.49 187.95,88.93 323.29,48.67 135.29,-40.26 232.51,-130.52 244.08,-217.49 -57.24,-66.49 -187.98,-88.92 -323.29,-48.67 -135.31,40.27 -232.53,130.53 -244.08,217.49"
         style="fill:#82531c;fill-opacity:1;fill-rule:evenodd;stroke:none"
         transform="matrix(0.13333333,0,0,-0.13333333,0,878.92)" />
      <path
         id="path33-2"
         d="m 2941.27,5013.6 c 188.85,40.28 361.8,-2.7 386.31,-95.99 24.5,-93.29 -108.73,-201.56 -297.59,-241.82 -188.82,-40.28 -361.8,2.71 -386.3,95.99 -24.51,93.29 108.72,201.56 297.58,241.82"
         style="fill:#df8c16;fill-opacity:1;fill-rule:evenodd;stroke:none"
         transform="matrix(0.13333333,0,0,-0.13333333,0,878.92)" />
      <path
         id="path34-8"
         d="m 3327.07,4869.83 c -21.23,-79.89 -139.87,-160.53 -297.08,-194.04 -157.19,-33.52 -303.36,-9.35 -362.07,53.49 21.21,79.89 139.86,160.52 297.06,194.05 157.2,33.51 303.37,9.35 362.09,-53.5"
         style="fill:#82531c;fill-opacity:1;fill-rule:evenodd;stroke:none"
         transform="matrix(0.13333333,0,0,-0.13333333,0,878.92)" />
    </g>
    <g
       id="group-R5-0"
       transform="matrix(0.10316839,0,0,0.10316839,58.42425,42.428517)">
      <path
         id="path6-0"
         d="m 4096.34,5239.27 c 349.65,-144.17 651.89,-379.94 876.79,-677.43 36.75,-48.63 99.77,-65.53 155.91,-41.83 l 53.41,22.56 248.82,-589.31 -17.02,-7.19 c -59.86,-25.26 -91.93,-88.99 -76.56,-152.1 38.82,-159.66 59.45,-326.44 59.45,-498.04 0,-790.26 -436.36,-1478.51 -1081.19,-1837.28 -51.34,-28.57 -76.96,-85.05 -64.56,-142.5 l 18,-83.54 -943.36,-203.45 -13.96,64.74 c -12.72,58.97 -61.73,100.53 -121.97,103.52 -1075.01,53.33 -1937.43,914.52 -1992.56,1989.07 -3.27,63.77 -50.45,115 -113.73,123.5 l -4.78,0.66 111.26,829.48 74.16,-9.94 c 57.39,-7.71 110.88,21.19 135.93,73.39 228.03,475.29 629.61,851.53 1122.58,1046.66 143.54,56.83 233.1,188.53 233.1,342.91 v 50.49 h 1112.03 v -63.42 c 0,-152.56 87.21,-282.79 228.25,-340.95"
         style="fill:#f1a40f;fill-opacity:1;fill-rule:evenodd;stroke:none"
         transform="matrix(0.13333333,0,0,-0.13333333,0,878.92)" />
      <path
         id="path7-3"
         d="m 4096.34,5239.27 c 75.75,-31.24 149.29,-66.78 220.29,-106.31 6.97,-74.14 -11.32,-134.02 -68.89,-163.76 -189.72,-97.97 -370.23,88.2 -716.27,-230.5 -277.98,-311.05 -108.52,-599.48 98.89,-904.1 177.84,-261.21 665.31,-750.75 688.46,-1046.05 -21.41,-540.54 -459.13,-623.54 -912.78,-655.76 -251.01,-17.82 -374.57,-4.47 -621.89,25.04 -420.2,11.57 -433.31,-481.98 -829.86,-478.98 -437.86,363.64 -725.66,901.72 -756.75,1507.64 -3.27,63.77 -50.45,115 -113.73,123.5 l -4.78,0.66 111.26,829.48 74.16,-9.94 c 57.39,-7.71 110.88,21.19 135.93,73.39 228.03,475.29 629.61,851.53 1122.58,1046.66 143.54,56.83 233.1,188.53 233.1,342.91 v 50.49 h 1112.03 v -63.42 c 0,-152.56 87.21,-282.79 228.25,-340.95"
         style="fill:#fab40a;fill-opacity:1;fill-rule:evenodd;stroke:none"
         transform="matrix(0.13333333,0,0,-0.13333333,0,878.92)" />
      <path
         id="path8-4"
         d="m 1276.47,2713.74 c -43.53,151.27 -70.55,309.55 -78.93,472.75 -3.27,63.77 -50.45,115 -113.73,123.5 l -4.78,0.66 111.26,829.48 74.16,-9.94 c 57.39,-7.71 110.88,21.19 135.93,73.39 170.46,355.33 437.95,655.27 768.07,865.6 -49.58,-184.78 -50.78,-361 167.67,-502.32 510.72,-203.74 949.39,-50.65 1061.19,-713.29 135.39,-802.29 -872.89,-823.16 -1408.62,-794.05 -197.78,10.75 -428.01,43.41 -603.14,-69.05 -80.65,-67.43 -106.97,-164.71 -109.08,-276.73"
         style="fill:#fbc907;fill-opacity:1;fill-rule:evenodd;stroke:none"
         transform="matrix(0.13333333,0,0,-0.13333333,0,878.92)" />
      <path
         id="path9-9"
         d="m 3312.08,5475.23 c 306.25,0 556.03,75.65 556.03,168.41 0,92.76 -249.78,168.41 -556.02,168.41 -306.26,0 -556.03,-75.65 -556.03,-168.41 0,-92.76 249.77,-168.41 556.02,-168.41"
         style="fill:#fab40a;fill-opacity:1;fill-rule:evenodd;stroke:none"
         transform="matrix(0.13333333,0,0,-0.13333333,0,878.92)" />
      <path
         id="path10-2"
         d="m 3312.08,5506.81 c 264.28,0 479.83,61.47 479.83,136.83 0,75.37 -215.55,136.84 -479.82,136.84 -264.29,0 -479.83,-61.47 -479.83,-136.84 0,-75.36 215.54,-136.83 479.82,-136.83"
         style="fill:#df8c16;fill-opacity:1;fill-rule:evenodd;stroke:none"
         transform="matrix(0.13333333,0,0,-0.13333333,0,878.92)" />
      <path
         id="path11-74"
         d="m 3729.89,5576.32 c -82.41,-41.5 -238.64,-69.51 -417.82,-69.51 -179.19,0 -335.4,28.02 -417.82,69.51 82.42,41.51 238.63,69.52 417.82,69.52 179.18,0 335.41,-28.02 417.82,-69.52"
         style="fill:#82531c;fill-opacity:1;fill-rule:evenodd;stroke:none"
         transform="matrix(0.13333333,0,0,-0.13333333,0,878.92)" />
      <path
         id="path12-2"
         d="m 1009.03,3742.23 c 30.74,229.05 111.88,407.2 181.26,397.9 69.39,-9.31 100.73,-202.54 70,-431.6 -30.73,-229.06 -111.88,-407.21 -181.26,-397.88 -69.38,9.29 -100.714,202.52 -70,431.58"
         style="fill:#fab40a;fill-opacity:1;fill-rule:evenodd;stroke:none"
         transform="matrix(0.13333333,0,0,-0.13333333,0,878.92)" />
      <path
         id="path13-5"
         d="m 3828.52,988.02 c -260.5,-56.18 -485.47,-37.758 -502.49,41.14 -17.03,78.91 180.37,188.41 440.87,244.6 260.5,56.19 485.47,37.76 502.49,-41.15 17.03,-78.89 -180.37,-188.42 -440.87,-244.59"
         style="fill:#fab40a;fill-opacity:1;fill-rule:evenodd;stroke:none"
         transform="matrix(0.13333333,0,0,-0.13333333,0,878.92)" />
      <path
         id="path14-2"
         d="m 5396.11,4285.59 c 68.71,-162.73 84.47,-311.52 35.16,-332.33 -49.29,-20.81 -144.94,94.23 -213.66,256.96 -68.69,162.74 -84.45,311.53 -35.16,332.35 49.29,20.8 144.95,-94.24 213.66,-256.98"
         style="fill:#fab40a;fill-opacity:1;fill-rule:evenodd;stroke:none"
         transform="matrix(0.13333333,0,0,-0.13333333,0,878.92)" />
      <path
         id="path15-4"
         d="m 5372.22,4275.5 c 50.33,-119.17 61.85,-228.14 25.76,-243.38 -36.1,-15.24 -106.14,69.01 -156.48,188.19 -50.31,119.18 -61.85,228.15 -25.74,243.4 36.1,15.23 106.14,-69.03 156.46,-188.21"
         style="fill:#df8c16;fill-opacity:1;fill-rule:evenodd;stroke:none"
         transform="matrix(0.13333333,0,0,-0.13333333,0,878.92)" />
      <path
         id="path16-4"
         d="m 5332.43,4067.3 c -30.4,33.78 -63.57,88.23 -90.93,153.01 -26.07,61.76 -41.73,120.78 -45.74,165.44 30.39,-33.77 63.57,-88.24 90.92,-153.02 26.08,-61.76 41.74,-120.77 45.75,-165.43"
         style="fill:#82531c;fill-opacity:1;fill-rule:evenodd;stroke:none"
         transform="matrix(0.13333333,0,0,-0.13333333,0,878.92)" />
      <path
         id="path17-3"
         d="m 3821.2,1021.96 c -198.62,-42.831 -370.15,-28.792 -383.13,31.36 -12.98,60.18 137.52,143.68 336.15,186.49 198.62,42.85 370.15,28.81 383.13,-31.36 12.97,-60.16 -137.52,-143.65 -336.15,-186.49"
         style="fill:#df8c16;fill-opacity:1;fill-rule:evenodd;stroke:none"
         transform="matrix(0.13333333,0,0,-0.13333333,0,878.92)" />
      <path
         id="path18-8"
         d="m 3455.09,1099.44 c 44.46,51.53 167.82,107.76 319.13,140.37 131.48,28.37 251.05,31.79 320.65,13.42 -44.44,-51.53 -167.8,-107.75 -319.12,-140.39 -131.47,-28.33 -251.04,-31.78 -320.66,-13.4"
         style="fill:#82531c;fill-opacity:1;fill-rule:evenodd;stroke:none"
         transform="matrix(0.13333333,0,0,-0.13333333,0,878.92)" />
      <path
         id="path19-6"
         d="m 1039.3,3738.17 c 23.33,173.89 84.93,309.12 137.59,302.05 52.67,-7.06 76.46,-153.75 53.13,-327.63 -23.33,-173.88 -84.93,-309.12 -137.59,-302.05 -52.67,7.06 -76.46,153.75 -53.13,327.63"
         style="fill:#df8c16;fill-opacity:1;fill-rule:evenodd;stroke:none"
         transform="matrix(0.13333333,0,0,-0.13333333,0,878.92)" />
      <path
         id="path20-0"
         d="m 1219.38,3990.43 c 20.83,-58.5 26.17,-162.14 10.64,-277.84 -16.47,-122.82 -52.05,-226.36 -90.08,-274.08 -20.83,58.5 -26.17,162.13 -10.66,277.84 16.49,122.82 52.06,226.36 90.1,274.08"
         style="fill:#82531c;fill-opacity:1;fill-rule:evenodd;stroke:none"
         transform="matrix(0.13333333,0,0,-0.13333333,0,878.92)" />
      <path
         id="path21-8"
         d="m 4361.87,4662.16 c 229.93,-155.44 338.58,-396.46 242.66,-538.34 -95.91,-141.89 -360.06,-130.89 -589.99,24.55 -229.95,155.44 -338.6,396.47 -242.69,538.35 95.91,141.87 360.05,130.89 590.02,-24.56"
         style="fill:#df8c16;fill-opacity:1;fill-rule:evenodd;stroke:none"
         transform="matrix(0.13333333,0,0,-0.13333333,0,878.92)" />
      <path
         id="path22-9"
         d="m 4543.09,4065.34 c -122.05,-75.63 -337.16,-46.36 -528.55,83.03 -191.41,129.39 -298.75,318.07 -274.05,459.52 122.05,75.64 337.14,46.35 528.54,-83.04 191.4,-129.38 298.75,-318.07 274.06,-459.51"
         style="fill:#82531c;fill-opacity:1;fill-rule:evenodd;stroke:none"
         transform="matrix(0.13333333,0,0,-0.13333333,0,878.92)" />
      <path
         id="path23-2"
         d="m 4892.37,2543.67 c -71.11,-192.79 -225.18,-313.5 -344.14,-269.64 -118.95,43.89 -157.72,235.75 -86.61,428.52 71.1,192.79 225.2,313.49 344.15,269.62 118.94,-43.87 157.73,-235.73 86.6,-428.5"
         style="fill:#df8c16;fill-opacity:1;fill-rule:evenodd;stroke:none"
         transform="matrix(0.13333333,0,0,-0.13333333,0,878.92)" />
      <path
         id="path24-2"
         d="m 4495.34,2307.9 c -75.96,74.38 -92.91,234.17 -33.72,394.65 59.19,160.48 175.88,270.99 281.93,278.24 75.93,-74.39 92.91,-234.2 33.72,-394.68 -59.21,-160.46 -175.88,-270.97 -281.93,-278.21"
         style="fill:#82531c;fill-opacity:1;fill-rule:evenodd;stroke:none"
         transform="matrix(0.13333333,0,0,-0.13333333,0,878.92)" />
      <path
         id="path25-3"
         d="m 1757.08,2614.72 c -52.77,123.21 -33.91,249.49 42.11,282.06 76.03,32.56 180.45,-40.94 233.22,-164.17 52.77,-123.21 33.92,-249.49 -42.12,-282.06 -76.03,-32.56 -180.44,40.94 -233.21,164.17"
         style="fill:#df8c16;fill-opacity:1;fill-rule:evenodd;stroke:none"
         transform="matrix(0.13333333,0,0,-0.13333333,0,878.92)" />
      <path
         id="path26-1"
         d="m 1839.44,2904.45 c 69.33,-1.14 149.03,-69.26 192.97,-171.84 43.93,-102.56 38.2,-207.23 -8.79,-258.23 -69.33,1.16 -149.04,69.27 -192.97,171.84 -43.92,102.57 -38.21,207.24 8.79,258.23"
         style="fill:#82531c;fill-opacity:1;fill-rule:evenodd;stroke:none"
         transform="matrix(0.13333333,0,0,-0.13333333,0,878.92)" />
      <path
         id="path27-8"
         d="m 2490.57,4262.98 c 242.56,118.99 522.78,45.1 625.85,-165.05 103.1,-210.15 -9.97,-476.96 -252.52,-595.95 -242.58,-118.99 -522.77,-45.09 -625.87,165.06 -103.08,210.14 9.99,476.95 252.54,595.94"
         style="fill:#df8c16;fill-opacity:1;fill-rule:evenodd;stroke:none"
         transform="matrix(0.13333333,0,0,-0.13333333,0,878.92)" />
      <path
         id="path28-3"
         d="m 3135.63,4050.78 c 66.55,-201.41 -47.01,-438.55 -271.73,-548.8 -224.75,-110.25 -481.81,-54.88 -600.36,121 -66.51,201.4 47.03,438.56 271.78,548.81 224.74,110.25 481.76,54.87 600.31,-121.01"
         style="fill:#82531c;fill-opacity:1;fill-rule:evenodd;stroke:none"
         transform="matrix(0.13333333,0,0,-0.13333333,0,878.92)" />
      <path
         id="path29-4"
         d="m 3652.13,2225.4 c -191.56,-30.83 -366.87,89.84 -391.54,269.57 -24.68,179.72 110.58,350.45 302.13,381.28 191.57,30.88 366.87,-89.83 391.55,-269.54 24.69,-179.74 -110.6,-350.44 -302.14,-381.31"
         style="fill:#df8c16;fill-opacity:1;fill-rule:evenodd;stroke:none"
         transform="matrix(0.13333333,0,0,-0.13333333,0,878.92)" />
      <path
         id="path30-2"
         d="m 3257.71,2534.39 c -1.61,164.63 127.53,313.29 305.01,341.86 177.5,28.6 341.01,-72.92 383.71,-230.93 1.61,-164.66 -127.52,-313.32 -305.02,-341.92 -177.48,-28.57 -341,72.94 -383.7,230.99"
         style="fill:#82531c;fill-opacity:1;fill-rule:evenodd;stroke:none"
         transform="matrix(0.13333333,0,0,-0.13333333,0,878.92)" />
      <path
         id="path31-2"
         d="m 2772.91,1595.21 c -162.57,48.36 -270.14,168.9 -240.31,269.18 29.85,100.31 185.82,142.39 348.39,94.04 162.54,-48.38 270.13,-168.89 240.28,-269.19 -29.84,-100.31 -185.81,-142.4 -348.36,-94.03"
         style="fill:#df8c16;fill-opacity:1;fill-rule:evenodd;stroke:none"
         transform="matrix(0.13333333,0,0,-0.13333333,0,878.92)" />
      <path
         id="path32-4"
         d="m 2557.7,1909.76 c 57.22,66.49 187.95,88.93 323.29,48.67 135.29,-40.26 232.51,-130.52 244.08,-217.49 -57.24,-66.49 -187.98,-88.92 -323.29,-48.67 -135.31,40.27 -232.53,130.53 -244.08,217.49"
         style="fill:#82531c;fill-opacity:1;fill-rule:evenodd;stroke:none"
         transform="matrix(0.13333333,0,0,-0.13333333,0,878.92)" />
      <path
         id="path33-5"
         d="m 2941.27,5013.6 c 188.85,40.28 361.8,-2.7 386.31,-95.99 24.5,-93.29 -108.73,-201.56 -297.59,-241.82 -188.82,-40.28 -361.8,2.71 -386.3,95.99 -24.51,93.29 108.72,201.56 297.58,241.82"
         style="fill:#df8c16;fill-opacity:1;fill-rule:evenodd;stroke:none"
         transform="matrix(0.13333333,0,0,-0.13333333,0,878.92)" />
      <path
         id="path34-1"
         d="m 3327.07,4869.83 c -21.23,-79.89 -139.87,-160.53 -297.08,-194.04 -157.19,-33.52 -303.36,-9.35 -362.07,53.49 21.21,79.89 139.86,160.52 297.06,194.05 157.2,33.51 303.37,9.35 362.09,-53.5"
         style="fill:#82531c;fill-opacity:1;fill-rule:evenodd;stroke:none"
         transform="matrix(0.13333333,0,0,-0.13333333,0,878.92)" />
    </g>
    <g
       id="group-R5-1"
       transform="matrix(0.07305117,0,0,0.07305117,12.246739,-21.741508)">
      <path
         id="path6-6"
         d="m 4096.34,5239.27 c 349.65,-144.17 651.89,-379.94 876.79,-677.43 36.75,-48.63 99.77,-65.53 155.91,-41.83 l 53.41,22.56 248.82,-589.31 -17.02,-7.19 c -59.86,-25.26 -91.93,-88.99 -76.56,-152.1 38.82,-159.66 59.45,-326.44 59.45,-498.04 0,-790.26 -436.36,-1478.51 -1081.19,-1837.28 -51.34,-28.57 -76.96,-85.05 -64.56,-142.5 l 18,-83.54 -943.36,-203.45 -13.96,64.74 c -12.72,58.97 -61.73,100.53 -121.97,103.52 -1075.01,53.33 -1937.43,914.52 -1992.56,1989.07 -3.27,63.77 -50.45,115 -113.73,123.5 l -4.78,0.66 111.26,829.48 74.16,-9.94 c 57.39,-7.71 110.88,21.19 135.93,73.39 228.03,475.29 629.61,851.53 1122.58,1046.66 143.54,56.83 233.1,188.53 233.1,342.91 v 50.49 h 1112.03 v -63.42 c 0,-152.56 87.21,-282.79 228.25,-340.95"
         style="fill:#f1a40f;fill-opacity:1;fill-rule:evenodd;stroke:none"
         transform="matrix(0.13333333,0,0,-0.13333333,0,878.92)" />
      <path
         id="path7-9"
         d="m 4096.34,5239.27 c 75.75,-31.24 149.29,-66.78 220.29,-106.31 6.97,-74.14 -11.32,-134.02 -68.89,-163.76 -189.72,-97.97 -370.23,88.2 -716.27,-230.5 -277.98,-311.05 -108.52,-599.48 98.89,-904.1 177.84,-261.21 665.31,-750.75 688.46,-1046.05 -21.41,-540.54 -459.13,-623.54 -912.78,-655.76 -251.01,-17.82 -374.57,-4.47 -621.89,25.04 -420.2,11.57 -433.31,-481.98 -829.86,-478.98 -437.86,363.64 -725.66,901.72 -756.75,1507.64 -3.27,63.77 -50.45,115 -113.73,123.5 l -4.78,0.66 111.26,829.48 74.16,-9.94 c 57.39,-7.71 110.88,21.19 135.93,73.39 228.03,475.29 629.61,851.53 1122.58,1046.66 143.54,56.83 233.1,188.53 233.1,342.91 v 50.49 h 1112.03 v -63.42 c 0,-152.56 87.21,-282.79 228.25,-340.95"
         style="fill:#fab40a;fill-opacity:1;fill-rule:evenodd;stroke:none"
         transform="matrix(0.13333333,0,0,-0.13333333,0,878.92)" />
      <path
         id="path8-8"
         d="m 1276.47,2713.74 c -43.53,151.27 -70.55,309.55 -78.93,472.75 -3.27,63.77 -50.45,115 -113.73,123.5 l -4.78,0.66 111.26,829.48 74.16,-9.94 c 57.39,-7.71 110.88,21.19 135.93,73.39 170.46,355.33 437.95,655.27 768.07,865.6 -49.58,-184.78 -50.78,-361 167.67,-502.32 510.72,-203.74 949.39,-50.65 1061.19,-713.29 135.39,-802.29 -872.89,-823.16 -1408.62,-794.05 -197.78,10.75 -428.01,43.41 -603.14,-69.05 -80.65,-67.43 -106.97,-164.71 -109.08,-276.73"
         style="fill:#fbc907;fill-opacity:1;fill-rule:evenodd;stroke:none"
         transform="matrix(0.13333333,0,0,-0.13333333,0,878.92)" />
      <path
         id="path9-1"
         d="m 3312.08,5475.23 c 306.25,0 556.03,75.65 556.03,168.41 0,92.76 -249.78,168.41 -556.02,168.41 -306.26,0 -556.03,-75.65 -556.03,-168.41 0,-92.76 249.77,-168.41 556.02,-168.41"
         style="fill:#fab40a;fill-opacity:1;fill-rule:evenodd;stroke:none"
         transform="matrix(0.13333333,0,0,-0.13333333,0,878.92)" />
      <path
         id="path10-33"
         d="m 3312.08,5506.81 c 264.28,0 479.83,61.47 479.83,136.83 0,75.37 -215.55,136.84 -479.82,136.84 -264.29,0 -479.83,-61.47 -479.83,-136.84 0,-75.36 215.54,-136.83 479.82,-136.83"
         style="fill:#df8c16;fill-opacity:1;fill-rule:evenodd;stroke:none"
         transform="matrix(0.13333333,0,0,-0.13333333,0,878.92)" />
      <path
         id="path11-3"
         d="m 3729.89,5576.32 c -82.41,-41.5 -238.64,-69.51 -417.82,-69.51 -179.19,0 -335.4,28.02 -417.82,69.51 82.42,41.51 238.63,69.52 417.82,69.52 179.18,0 335.41,-28.02 417.82,-69.52"
         style="fill:#82531c;fill-opacity:1;fill-rule:evenodd;stroke:none"
         transform="matrix(0.13333333,0,0,-0.13333333,0,878.92)" />
      <path
         id="path12-7"
         d="m 1009.03,3742.23 c 30.74,229.05 111.88,407.2 181.26,397.9 69.39,-9.31 100.73,-202.54 70,-431.6 -30.73,-229.06 -111.88,-407.21 -181.26,-397.88 -69.38,9.29 -100.714,202.52 -70,431.58"
         style="fill:#fab40a;fill-opacity:1;fill-rule:evenodd;stroke:none"
         transform="matrix(0.13333333,0,0,-0.13333333,0,878.92)" />
      <path
         id="path13-9"
         d="m 3828.52,988.02 c -260.5,-56.18 -485.47,-37.758 -502.49,41.14 -17.03,78.91 180.37,188.41 440.87,244.6 260.5,56.19 485.47,37.76 502.49,-41.15 17.03,-78.89 -180.37,-188.42 -440.87,-244.59"
         style="fill:#fab40a;fill-opacity:1;fill-rule:evenodd;stroke:none"
         transform="matrix(0.13333333,0,0,-0.13333333,0,878.92)" />
      <path
         id="path14-8"
         d="m 5396.11,4285.59 c 68.71,-162.73 84.47,-311.52 35.16,-332.33 -49.29,-20.81 -144.94,94.23 -213.66,256.96 -68.69,162.74 -84.45,311.53 -35.16,332.35 49.29,20.8 144.95,-94.24 213.66,-256.98"
         style="fill:#fab40a;fill-opacity:1;fill-rule:evenodd;stroke:none"
         transform="matrix(0.13333333,0,0,-0.13333333,0,878.92)" />
      <path
         id="path15-6"
         d="m 5372.22,4275.5 c 50.33,-119.17 61.85,-228.14 25.76,-243.38 -36.1,-15.24 -106.14,69.01 -156.48,188.19 -50.31,119.18 -61.85,228.15 -25.74,243.4 36.1,15.23 106.14,-69.03 156.46,-188.21"
         style="fill:#df8c16;fill-opacity:1;fill-rule:evenodd;stroke:none"
         transform="matrix(0.13333333,0,0,-0.13333333,0,878.92)" />
      <path
         id="path16-7"
         d="m 5332.43,4067.3 c -30.4,33.78 -63.57,88.23 -90.93,153.01 -26.07,61.76 -41.73,120.78 -45.74,165.44 30.39,-33.77 63.57,-88.24 90.92,-153.02 26.08,-61.76 41.74,-120.77 45.75,-165.43"
         style="fill:#82531c;fill-opacity:1;fill-rule:evenodd;stroke:none"
         transform="matrix(0.13333333,0,0,-0.13333333,0,878.92)" />
      <path
         id="path17-0"
         d="m 3821.2,1021.96 c -198.62,-42.831 -370.15,-28.792 -383.13,31.36 -12.98,60.18 137.52,143.68 336.15,186.49 198.62,42.85 370.15,28.81 383.13,-31.36 12.97,-60.16 -137.52,-143.65 -336.15,-186.49"
         style="fill:#df8c16;fill-opacity:1;fill-rule:evenodd;stroke:none"
         transform="matrix(0.13333333,0,0,-0.13333333,0,878.92)" />
      <path
         id="path18-4"
         d="m 3455.09,1099.44 c 44.46,51.53 167.82,107.76 319.13,140.37 131.48,28.37 251.05,31.79 320.65,13.42 -44.44,-51.53 -167.8,-107.75 -319.12,-140.39 -131.47,-28.33 -251.04,-31.78 -320.66,-13.4"
         style="fill:#82531c;fill-opacity:1;fill-rule:evenodd;stroke:none"
         transform="matrix(0.13333333,0,0,-0.13333333,0,878.92)" />
      <path
         id="path19-84"
         d="m 1039.3,3738.17 c 23.33,173.89 84.93,309.12 137.59,302.05 52.67,-7.06 76.46,-153.75 53.13,-327.63 -23.33,-173.88 -84.93,-309.12 -137.59,-302.05 -52.67,7.06 -76.46,153.75 -53.13,327.63"
         style="fill:#df8c16;fill-opacity:1;fill-rule:evenodd;stroke:none"
         transform="matrix(0.13333333,0,0,-0.13333333,0,878.92)" />
      <path
         id="path20-8"
         d="m 1219.38,3990.43 c 20.83,-58.5 26.17,-162.14 10.64,-277.84 -16.47,-122.82 -52.05,-226.36 -90.08,-274.08 -20.83,58.5 -26.17,162.13 -10.66,277.84 16.49,122.82 52.06,226.36 90.1,274.08"
         style="fill:#82531c;fill-opacity:1;fill-rule:evenodd;stroke:none"
         transform="matrix(0.13333333,0,0,-0.13333333,0,878.92)" />
      <path
         id="path21-1"
         d="m 4361.87,4662.16 c 229.93,-155.44 338.58,-396.46 242.66,-538.34 -95.91,-141.89 -360.06,-130.89 -589.99,24.55 -229.95,155.44 -338.6,396.47 -242.69,538.35 95.91,141.87 360.05,130.89 590.02,-24.56"
         style="fill:#df8c16;fill-opacity:1;fill-rule:evenodd;stroke:none"
         transform="matrix(0.13333333,0,0,-0.13333333,0,878.92)" />
      <path
         id="path22-6"
         d="m 4543.09,4065.34 c -122.05,-75.63 -337.16,-46.36 -528.55,83.03 -191.41,129.39 -298.75,318.07 -274.05,459.52 122.05,75.64 337.14,46.35 528.54,-83.04 191.4,-129.38 298.75,-318.07 274.06,-459.51"
         style="fill:#82531c;fill-opacity:1;fill-rule:evenodd;stroke:none"
         transform="matrix(0.13333333,0,0,-0.13333333,0,878.92)" />
      <path
         id="path23-8"
         d="m 4892.37,2543.67 c -71.11,-192.79 -225.18,-313.5 -344.14,-269.64 -118.95,43.89 -157.72,235.75 -86.61,428.52 71.1,192.79 225.2,313.49 344.15,269.62 118.94,-43.87 157.73,-235.73 86.6,-428.5"
         style="fill:#df8c16;fill-opacity:1;fill-rule:evenodd;stroke:none"
         transform="matrix(0.13333333,0,0,-0.13333333,0,878.92)" />
      <path
         id="path24-5"
         d="m 4495.34,2307.9 c -75.96,74.38 -92.91,234.17 -33.72,394.65 59.19,160.48 175.88,270.99 281.93,278.24 75.93,-74.39 92.91,-234.2 33.72,-394.68 -59.21,-160.46 -175.88,-270.97 -281.93,-278.21"
         style="fill:#82531c;fill-opacity:1;fill-rule:evenodd;stroke:none"
         transform="matrix(0.13333333,0,0,-0.13333333,0,878.92)" />
      <path
         id="path25-2"
         d="m 1757.08,2614.72 c -52.77,123.21 -33.91,249.49 42.11,282.06 76.03,32.56 180.45,-40.94 233.22,-164.17 52.77,-123.21 33.92,-249.49 -42.12,-282.06 -76.03,-32.56 -180.44,40.94 -233.21,164.17"
         style="fill:#df8c16;fill-opacity:1;fill-rule:evenodd;stroke:none"
         transform="matrix(0.13333333,0,0,-0.13333333,0,878.92)" />
      <path
         id="path26-19"
         d="m 1839.44,2904.45 c 69.33,-1.14 149.03,-69.26 192.97,-171.84 43.93,-102.56 38.2,-207.23 -8.79,-258.23 -69.33,1.16 -149.04,69.27 -192.97,171.84 -43.92,102.57 -38.21,207.24 8.79,258.23"
         style="fill:#82531c;fill-opacity:1;fill-rule:evenodd;stroke:none"
         transform="matrix(0.13333333,0,0,-0.13333333,0,878.92)" />
      <path
         id="path27-9"
         d="m 2490.57,4262.98 c 242.56,118.99 522.78,45.1 625.85,-165.05 103.1,-210.15 -9.97,-476.96 -252.52,-595.95 -242.58,-118.99 -522.77,-45.09 -625.87,165.06 -103.08,210.14 9.99,476.95 252.54,595.94"
         style="fill:#df8c16;fill-opacity:1;fill-rule:evenodd;stroke:none"
         transform="matrix(0.13333333,0,0,-0.13333333,0,878.92)" />
      <path
         id="path28-6"
         d="m 3135.63,4050.78 c 66.55,-201.41 -47.01,-438.55 -271.73,-548.8 -224.75,-110.25 -481.81,-54.88 -600.36,121 -66.51,201.4 47.03,438.56 271.78,548.81 224.74,110.25 481.76,54.87 600.31,-121.01"
         style="fill:#82531c;fill-opacity:1;fill-rule:evenodd;stroke:none"
         transform="matrix(0.13333333,0,0,-0.13333333,0,878.92)" />
      <path
         id="path29-0"
         d="m 3652.13,2225.4 c -191.56,-30.83 -366.87,89.84 -391.54,269.57 -24.68,179.72 110.58,350.45 302.13,381.28 191.57,30.88 366.87,-89.83 391.55,-269.54 24.69,-179.74 -110.6,-350.44 -302.14,-381.31"
         style="fill:#df8c16;fill-opacity:1;fill-rule:evenodd;stroke:none"
         transform="matrix(0.13333333,0,0,-0.13333333,0,878.92)" />
      <path
         id="path30-6"
         d="m 3257.71,2534.39 c -1.61,164.63 127.53,313.29 305.01,341.86 177.5,28.6 341.01,-72.92 383.71,-230.93 1.61,-164.66 -127.52,-313.32 -305.02,-341.92 -177.48,-28.57 -341,72.94 -383.7,230.99"
         style="fill:#82531c;fill-opacity:1;fill-rule:evenodd;stroke:none"
         transform="matrix(0.13333333,0,0,-0.13333333,0,878.92)" />
      <path
         id="path31-4"
         d="m 2772.91,1595.21 c -162.57,48.36 -270.14,168.9 -240.31,269.18 29.85,100.31 185.82,142.39 348.39,94.04 162.54,-48.38 270.13,-168.89 240.28,-269.19 -29.84,-100.31 -185.81,-142.4 -348.36,-94.03"
         style="fill:#df8c16;fill-opacity:1;fill-rule:evenodd;stroke:none"
         transform="matrix(0.13333333,0,0,-0.13333333,0,878.92)" />
      <path
         id="path32-9"
         d="m 2557.7,1909.76 c 57.22,66.49 187.95,88.93 323.29,48.67 135.29,-40.26 232.51,-130.52 244.08,-217.49 -57.24,-66.49 -187.98,-88.92 -323.29,-48.67 -135.31,40.27 -232.53,130.53 -244.08,217.49"
         style="fill:#82531c;fill-opacity:1;fill-rule:evenodd;stroke:none"
         transform="matrix(0.13333333,0,0,-0.13333333,0,878.92)" />
      <path
         id="path33-9"
         d="m 2941.27,5013.6 c 188.85,40.28 361.8,-2.7 386.31,-95.99 24.5,-93.29 -108.73,-201.56 -297.59,-241.82 -188.82,-40.28 -361.8,2.71 -386.3,95.99 -24.51,93.29 108.72,201.56 297.58,241.82"
         style="fill:#df8c16;fill-opacity:1;fill-rule:evenodd;stroke:none"
         transform="matrix(0.13333333,0,0,-0.13333333,0,878.92)" />
      <path
         id="path34-0"
         d="m 3327.07,4869.83 c -21.23,-79.89 -139.87,-160.53 -297.08,-194.04 -157.19,-33.52 -303.36,-9.35 -362.07,53.49 21.21,79.89 139.86,160.52 297.06,194.05 157.2,33.51 303.37,9.35 362.09,-53.5"
         style="fill:#82531c;fill-opacity:1;fill-rule:evenodd;stroke:none"
         transform="matrix(0.13333333,0,0,-0.13333333,0,878.92)" />
    </g>
    <g
       id="group-R5-14"
       transform="matrix(0.07305117,0,0,0.07305117,434.71297,53.276366)">
      <path
         id="path6-8"
         d="m 4096.34,5239.27 c 349.65,-144.17 651.89,-379.94 876.79,-677.43 36.75,-48.63 99.77,-65.53 155.91,-41.83 l 53.41,22.56 248.82,-589.31 -17.02,-7.19 c -59.86,-25.26 -91.93,-88.99 -76.56,-152.1 38.82,-159.66 59.45,-326.44 59.45,-498.04 0,-790.26 -436.36,-1478.51 -1081.19,-1837.28 -51.34,-28.57 -76.96,-85.05 -64.56,-142.5 l 18,-83.54 -943.36,-203.45 -13.96,64.74 c -12.72,58.97 -61.73,100.53 -121.97,103.52 -1075.01,53.33 -1937.43,914.52 -1992.56,1989.07 -3.27,63.77 -50.45,115 -113.73,123.5 l -4.78,0.66 111.26,829.48 74.16,-9.94 c 57.39,-7.71 110.88,21.19 135.93,73.39 228.03,475.29 629.61,851.53 1122.58,1046.66 143.54,56.83 233.1,188.53 233.1,342.91 v 50.49 h 1112.03 v -63.42 c 0,-152.56 87.21,-282.79 228.25,-340.95"
         style="fill:#f1a40f;fill-opacity:1;fill-rule:evenodd;stroke:none"
         transform="matrix(0.13333333,0,0,-0.13333333,0,878.92)" />
      <path
         id="path7-96"
         d="m 4096.34,5239.27 c 75.75,-31.24 149.29,-66.78 220.29,-106.31 6.97,-74.14 -11.32,-134.02 -68.89,-163.76 -189.72,-97.97 -370.23,88.2 -716.27,-230.5 -277.98,-311.05 -108.52,-599.48 98.89,-904.1 177.84,-261.21 665.31,-750.75 688.46,-1046.05 -21.41,-540.54 -459.13,-623.54 -912.78,-655.76 -251.01,-17.82 -374.57,-4.47 -621.89,25.04 -420.2,11.57 -433.31,-481.98 -829.86,-478.98 -437.86,363.64 -725.66,901.72 -756.75,1507.64 -3.27,63.77 -50.45,115 -113.73,123.5 l -4.78,0.66 111.26,829.48 74.16,-9.94 c 57.39,-7.71 110.88,21.19 135.93,73.39 228.03,475.29 629.61,851.53 1122.58,1046.66 143.54,56.83 233.1,188.53 233.1,342.91 v 50.49 h 1112.03 v -63.42 c 0,-152.56 87.21,-282.79 228.25,-340.95"
         style="fill:#fab40a;fill-opacity:1;fill-rule:evenodd;stroke:none"
         transform="matrix(0.13333333,0,0,-0.13333333,0,878.92)" />
      <path
         id="path8-77"
         d="m 1276.47,2713.74 c -43.53,151.27 -70.55,309.55 -78.93,472.75 -3.27,63.77 -50.45,115 -113.73,123.5 l -4.78,0.66 111.26,829.48 74.16,-9.94 c 57.39,-7.71 110.88,21.19 135.93,73.39 170.46,355.33 437.95,655.27 768.07,865.6 -49.58,-184.78 -50.78,-361 167.67,-502.32 510.72,-203.74 949.39,-50.65 1061.19,-713.29 135.39,-802.29 -872.89,-823.16 -1408.62,-794.05 -197.78,10.75 -428.01,43.41 -603.14,-69.05 -80.65,-67.43 -106.97,-164.71 -109.08,-276.73"
         style="fill:#fbc907;fill-opacity:1;fill-rule:evenodd;stroke:none"
         transform="matrix(0.13333333,0,0,-0.13333333,0,878.92)" />
      <path
         id="path9-3"
         d="m 3312.08,5475.23 c 306.25,0 556.03,75.65 556.03,168.41 0,92.76 -249.78,168.41 -556.02,168.41 -306.26,0 -556.03,-75.65 -556.03,-168.41 0,-92.76 249.77,-168.41 556.02,-168.41"
         style="fill:#fab40a;fill-opacity:1;fill-rule:evenodd;stroke:none"
         transform="matrix(0.13333333,0,0,-0.13333333,0,878.92)" />
      <path
         id="path10-7"
         d="m 3312.08,5506.81 c 264.28,0 479.83,61.47 479.83,136.83 0,75.37 -215.55,136.84 -479.82,136.84 -264.29,0 -479.83,-61.47 -479.83,-136.84 0,-75.36 215.54,-136.83 479.82,-136.83"
         style="fill:#df8c16;fill-opacity:1;fill-rule:evenodd;stroke:none"
         transform="matrix(0.13333333,0,0,-0.13333333,0,878.92)" />
      <path
         id="path11-1"
         d="m 3729.89,5576.32 c -82.41,-41.5 -238.64,-69.51 -417.82,-69.51 -179.19,0 -335.4,28.02 -417.82,69.51 82.42,41.51 238.63,69.52 417.82,69.52 179.18,0 335.41,-28.02 417.82,-69.52"
         style="fill:#82531c;fill-opacity:1;fill-rule:evenodd;stroke:none"
         transform="matrix(0.13333333,0,0,-0.13333333,0,878.92)" />
      <path
         id="path12-22"
         d="m 1009.03,3742.23 c 30.74,229.05 111.88,407.2 181.26,397.9 69.39,-9.31 100.73,-202.54 70,-431.6 -30.73,-229.06 -111.88,-407.21 -181.26,-397.88 -69.38,9.29 -100.714,202.52 -70,431.58"
         style="fill:#fab40a;fill-opacity:1;fill-rule:evenodd;stroke:none"
         transform="matrix(0.13333333,0,0,-0.13333333,0,878.92)" />
      <path
         id="path13-15"
         d="m 3828.52,988.02 c -260.5,-56.18 -485.47,-37.758 -502.49,41.14 -17.03,78.91 180.37,188.41 440.87,244.6 260.5,56.19 485.47,37.76 502.49,-41.15 17.03,-78.89 -180.37,-188.42 -440.87,-244.59"
         style="fill:#fab40a;fill-opacity:1;fill-rule:evenodd;stroke:none"
         transform="matrix(0.13333333,0,0,-0.13333333,0,878.92)" />
      <path
         id="path14-0"
         d="m 5396.11,4285.59 c 68.71,-162.73 84.47,-311.52 35.16,-332.33 -49.29,-20.81 -144.94,94.23 -213.66,256.96 -68.69,162.74 -84.45,311.53 -35.16,332.35 49.29,20.8 144.95,-94.24 213.66,-256.98"
         style="fill:#fab40a;fill-opacity:1;fill-rule:evenodd;stroke:none"
         transform="matrix(0.13333333,0,0,-0.13333333,0,878.92)" />
      <path
         id="path15-9"
         d="m 5372.22,4275.5 c 50.33,-119.17 61.85,-228.14 25.76,-243.38 -36.1,-15.24 -106.14,69.01 -156.48,188.19 -50.31,119.18 -61.85,228.15 -25.74,243.4 36.1,15.23 106.14,-69.03 156.46,-188.21"
         style="fill:#df8c16;fill-opacity:1;fill-rule:evenodd;stroke:none"
         transform="matrix(0.13333333,0,0,-0.13333333,0,878.92)" />
      <path
         id="path16-0"
         d="m 5332.43,4067.3 c -30.4,33.78 -63.57,88.23 -90.93,153.01 -26.07,61.76 -41.73,120.78 -45.74,165.44 30.39,-33.77 63.57,-88.24 90.92,-153.02 26.08,-61.76 41.74,-120.77 45.75,-165.43"
         style="fill:#82531c;fill-opacity:1;fill-rule:evenodd;stroke:none"
         transform="matrix(0.13333333,0,0,-0.13333333,0,878.92)" />
      <path
         id="path17-4"
         d="m 3821.2,1021.96 c -198.62,-42.831 -370.15,-28.792 -383.13,31.36 -12.98,60.18 137.52,143.68 336.15,186.49 198.62,42.85 370.15,28.81 383.13,-31.36 12.97,-60.16 -137.52,-143.65 -336.15,-186.49"
         style="fill:#df8c16;fill-opacity:1;fill-rule:evenodd;stroke:none"
         transform="matrix(0.13333333,0,0,-0.13333333,0,878.92)" />
      <path
         id="path18-01"
         d="m 3455.09,1099.44 c 44.46,51.53 167.82,107.76 319.13,140.37 131.48,28.37 251.05,31.79 320.65,13.42 -44.44,-51.53 -167.8,-107.75 -319.12,-140.39 -131.47,-28.33 -251.04,-31.78 -320.66,-13.4"
         style="fill:#82531c;fill-opacity:1;fill-rule:evenodd;stroke:none"
         transform="matrix(0.13333333,0,0,-0.13333333,0,878.92)" />
      <path
         id="path19-3"
         d="m 1039.3,3738.17 c 23.33,173.89 84.93,309.12 137.59,302.05 52.67,-7.06 76.46,-153.75 53.13,-327.63 -23.33,-173.88 -84.93,-309.12 -137.59,-302.05 -52.67,7.06 -76.46,153.75 -53.13,327.63"
         style="fill:#df8c16;fill-opacity:1;fill-rule:evenodd;stroke:none"
         transform="matrix(0.13333333,0,0,-0.13333333,0,878.92)" />
      <path
         id="path20-7"
         d="m 1219.38,3990.43 c 20.83,-58.5 26.17,-162.14 10.64,-277.84 -16.47,-122.82 -52.05,-226.36 -90.08,-274.08 -20.83,58.5 -26.17,162.13 -10.66,277.84 16.49,122.82 52.06,226.36 90.1,274.08"
         style="fill:#82531c;fill-opacity:1;fill-rule:evenodd;stroke:none"
         transform="matrix(0.13333333,0,0,-0.13333333,0,878.92)" />
      <path
         id="path21-4"
         d="m 4361.87,4662.16 c 229.93,-155.44 338.58,-396.46 242.66,-538.34 -95.91,-141.89 -360.06,-130.89 -589.99,24.55 -229.95,155.44 -338.6,396.47 -242.69,538.35 95.91,141.87 360.05,130.89 590.02,-24.56"
         style="fill:#df8c16;fill-opacity:1;fill-rule:evenodd;stroke:none"
         transform="matrix(0.13333333,0,0,-0.13333333,0,878.92)" />
      <path
         id="path22-1"
         d="m 4543.09,4065.34 c -122.05,-75.63 -337.16,-46.36 -528.55,83.03 -191.41,129.39 -298.75,318.07 -274.05,459.52 122.05,75.64 337.14,46.35 528.54,-83.04 191.4,-129.38 298.75,-318.07 274.06,-459.51"
         style="fill:#82531c;fill-opacity:1;fill-rule:evenodd;stroke:none"
         transform="matrix(0.13333333,0,0,-0.13333333,0,878.92)" />
      <path
         id="path23-1"
         d="m 4892.37,2543.67 c -71.11,-192.79 -225.18,-313.5 -344.14,-269.64 -118.95,43.89 -157.72,235.75 -86.61,428.52 71.1,192.79 225.2,313.49 344.15,269.62 118.94,-43.87 157.73,-235.73 86.6,-428.5"
         style="fill:#df8c16;fill-opacity:1;fill-rule:evenodd;stroke:none"
         transform="matrix(0.13333333,0,0,-0.13333333,0,878.92)" />
      <path
         id="path24-3"
         d="m 4495.34,2307.9 c -75.96,74.38 -92.91,234.17 -33.72,394.65 59.19,160.48 175.88,270.99 281.93,278.24 75.93,-74.39 92.91,-234.2 33.72,-394.68 -59.21,-160.46 -175.88,-270.97 -281.93,-278.21"
         style="fill:#82531c;fill-opacity:1;fill-rule:evenodd;stroke:none"
         transform="matrix(0.13333333,0,0,-0.13333333,0,878.92)" />
      <path
         id="path25-0"
         d="m 1757.08,2614.72 c -52.77,123.21 -33.91,249.49 42.11,282.06 76.03,32.56 180.45,-40.94 233.22,-164.17 52.77,-123.21 33.92,-249.49 -42.12,-282.06 -76.03,-32.56 -180.44,40.94 -233.21,164.17"
         style="fill:#df8c16;fill-opacity:1;fill-rule:evenodd;stroke:none"
         transform="matrix(0.13333333,0,0,-0.13333333,0,878.92)" />
      <path
         id="path26-3"
         d="m 1839.44,2904.45 c 69.33,-1.14 149.03,-69.26 192.97,-171.84 43.93,-102.56 38.2,-207.23 -8.79,-258.23 -69.33,1.16 -149.04,69.27 -192.97,171.84 -43.92,102.57 -38.21,207.24 8.79,258.23"
         style="fill:#82531c;fill-opacity:1;fill-rule:evenodd;stroke:none"
         transform="matrix(0.13333333,0,0,-0.13333333,0,878.92)" />
      <path
         id="path27-2"
         d="m 2490.57,4262.98 c 242.56,118.99 522.78,45.1 625.85,-165.05 103.1,-210.15 -9.97,-476.96 -252.52,-595.95 -242.58,-118.99 -522.77,-45.09 -625.87,165.06 -103.08,210.14 9.99,476.95 252.54,595.94"
         style="fill:#df8c16;fill-opacity:1;fill-rule:evenodd;stroke:none"
         transform="matrix(0.13333333,0,0,-0.13333333,0,878.92)" />
      <path
         id="path28-1"
         d="m 3135.63,4050.78 c 66.55,-201.41 -47.01,-438.55 -271.73,-548.8 -224.75,-110.25 -481.81,-54.88 -600.36,121 -66.51,201.4 47.03,438.56 271.78,548.81 224.74,110.25 481.76,54.87 600.31,-121.01"
         style="fill:#82531c;fill-opacity:1;fill-rule:evenodd;stroke:none"
         transform="matrix(0.13333333,0,0,-0.13333333,0,878.92)" />
      <path
         id="path29-75"
         d="m 3652.13,2225.4 c -191.56,-30.83 -366.87,89.84 -391.54,269.57 -24.68,179.72 110.58,350.45 302.13,381.28 191.57,30.88 366.87,-89.83 391.55,-269.54 24.69,-179.74 -110.6,-350.44 -302.14,-381.31"
         style="fill:#df8c16;fill-opacity:1;fill-rule:evenodd;stroke:none"
         transform="matrix(0.13333333,0,0,-0.13333333,0,878.92)" />
      <path
         id="path30-65"
         d="m 3257.71,2534.39 c -1.61,164.63 127.53,313.29 305.01,341.86 177.5,28.6 341.01,-72.92 383.71,-230.93 1.61,-164.66 -127.52,-313.32 -305.02,-341.92 -177.48,-28.57 -341,72.94 -383.7,230.99"
         style="fill:#82531c;fill-opacity:1;fill-rule:evenodd;stroke:none"
         transform="matrix(0.13333333,0,0,-0.13333333,0,878.92)" />
      <path
         id="path31-42"
         d="m 2772.91,1595.21 c -162.57,48.36 -270.14,168.9 -240.31,269.18 29.85,100.31 185.82,142.39 348.39,94.04 162.54,-48.38 270.13,-168.89 240.28,-269.19 -29.84,-100.31 -185.81,-142.4 -348.36,-94.03"
         style="fill:#df8c16;fill-opacity:1;fill-rule:evenodd;stroke:none"
         transform="matrix(0.13333333,0,0,-0.13333333,0,878.92)" />
      <path
         id="path32-2"
         d="m 2557.7,1909.76 c 57.22,66.49 187.95,88.93 323.29,48.67 135.29,-40.26 232.51,-130.52 244.08,-217.49 -57.24,-66.49 -187.98,-88.92 -323.29,-48.67 -135.31,40.27 -232.53,130.53 -244.08,217.49"
         style="fill:#82531c;fill-opacity:1;fill-rule:evenodd;stroke:none"
         transform="matrix(0.13333333,0,0,-0.13333333,0,878.92)" />
      <path
         id="path33-1"
         d="m 2941.27,5013.6 c 188.85,40.28 361.8,-2.7 386.31,-95.99 24.5,-93.29 -108.73,-201.56 -297.59,-241.82 -188.82,-40.28 -361.8,2.71 -386.3,95.99 -24.51,93.29 108.72,201.56 297.58,241.82"
         style="fill:#df8c16;fill-opacity:1;fill-rule:evenodd;stroke:none"
         transform="matrix(0.13333333,0,0,-0.13333333,0,878.92)" />
      <path
         id="path34-7"
         d="m 3327.07,4869.83 c -21.23,-79.89 -139.87,-160.53 -297.08,-194.04 -157.19,-33.52 -303.36,-9.35 -362.07,53.49 21.21,79.89 139.86,160.52 297.06,194.05 157.2,33.51 303.37,9.35 362.09,-53.5"
         style="fill:#82531c;fill-opacity:1;fill-rule:evenodd;stroke:none"
         transform="matrix(0.13333333,0,0,-0.13333333,0,878.92)" />
    </g>
  </g>
</svg>
