<?xml version="1.0" encoding="UTF-8" standalone="no"?>
<!-- Created with Inkscape (http://www.inkscape.org/) -->

<svg
   width="3840"
   height="2160"
   viewBox="0 0 3840 2160"
   version="1.1"
   id="SVGRoot"
   xml:space="preserve"
   xmlns="http://www.w3.org/2000/svg"
   xmlns:svg="http://www.w3.org/2000/svg"><defs
     id="defs509" /><g
     id="layer1"><rect
       style="opacity:0.264346;fill:#000000"
       id="rect743"
       width="3840.0161"
       height="2160.0173"
       x="-0.0050400496"
       y="-0.0060944557"
       ry="0" /></g><g
     id="g1167"
     transform="matrix(62.5,0,0,62.5,22.668197,-966.04386)"><g
       id="Layer_1">
	
	<g
   class="st1"
   id="g1066">
		<path
   class="st2"
   d="M 32.1,39.7 C 30.5,41.2 26,52.2 26,52.2 c -0.7,1.2 0.3,2.1 2.6,0.9 l 8.1,-4.4 c 4.4,-2.4 5.2,-3.1 5.2,-8 l -0.8,-5.9 c -0.3,-2 -1.8,-2.4 -3.3,-0.8 z"
   id="path1064" />
	</g>
	<g
   class="st1"
   id="g1070">
		<path
   class="st2"
   d="m 27.1,34.7 c -1.6,1.6 -12.5,6.1 -12.5,6.1 -1.2,0.7 -2.1,-0.3 -0.9,-2.6 L 18,30 c 2.4,-4.4 3.1,-5.2 8,-5.2 l 5.9,0.8 c 2,0.3 2.4,1.8 0.8,3.3 z"
   id="path1068" />
	</g>
	<g
   id="g1074">
		<path
   class="st3"
   d="M 32.1,37.7 C 30.5,39.2 26,50.2 26,50.2 c -0.7,1.2 0.3,2.1 2.6,0.9 l 8.1,-4.4 c 4.4,-2.4 5.2,-3.1 5.2,-8 l -0.8,-5.9 c -0.3,-2 -1.8,-2.4 -3.3,-0.8 z"
   id="path1072" />
	</g>
	<g
   id="g1078">
		<path
   class="st3"
   d="m 27.1,32.7 c -1.6,1.6 -12.5,6.1 -12.5,6.1 -1.2,0.7 -2.1,-0.3 -0.9,-2.6 L 18,28 c 2.4,-4.4 3.1,-5.2 8,-5.2 l 5.9,0.8 c 2,0.3 2.4,1.8 0.8,3.3 z"
   id="path1076" />
	</g>
	<g
   class="st1"
   id="g1082">
		<path
   class="st2"
   d="m 21.2,39.5 c 5.1,-5.1 9.3,-3.5 9.3,-3.5 0,0 1.5,4.3 -3.5,9.3 -5,5 -13.3,8.8 -13.9,8.1 -0.6,-0.5 3.1,-8.8 8.1,-13.9 z"
   id="path1080" />
	</g>
	<g
   id="g1086">
		<path
   class="st4"
   d="m 21.2,37.5 c 5.1,-5.1 9.3,-3.5 9.3,-3.5 0,0 1.5,4.3 -3.5,9.3 -5,5 -13.3,8.8 -13.9,8.1 -0.6,-0.5 3.1,-8.8 8.1,-13.9 z"
   id="path1084" />
	</g>
	<g
   id="g1090">
		<path
   class="st5"
   d="m 25.5,33.3 c 5.1,-5.1 9.3,-3.5 9.3,-3.5 0,0 1.5,4.3 -3.5,9.3 -5,5 -13.3,8.8 -13.9,8.1 -0.7,-0.6 3,-8.8 8.1,-13.9 z"
   id="path1088" />
	</g>
	<g
   class="st1"
   id="g1094">
		<path
   class="st2"
   d="m 43.6,37.1 c -7.8,7.8 -19.8,5.7 -19.8,5.7 0,0 -2.1,-12 5.7,-19.8 7.8,-7.8 19.6,-8.6 21.2,-7.1 1.5,1.5 0.7,13.4 -7.1,21.2 z"
   id="path1092" />
	</g>
	<g
   id="g1098">
		<path
   class="st6"
   d="m 43.6,35.1 c -7.8,7.8 -19.8,5.7 -19.8,5.7 0,0 -2.1,-12 5.7,-19.8 7.8,-7.8 19.6,-8.6 21.2,-7.1 1.5,1.5 0.7,13.4 -7.1,21.2 z"
   id="path1096" />
	</g>
	<g
   class="st1"
   id="g1102">
		<path
   class="st2"
   d="m 21,47 c -0.8,0.8 -1.3,1.5 -2.1,0.7 v 0 c -0.8,-0.8 -0.1,-1.3 0.7,-2.1 l 9.9,-12.7 c 0.8,-0.8 4.2,-1.5 4.9,-0.7 v 0 c 0.8,0.8 0.1,4.2 -0.7,4.9 z"
   id="path1100" />
	</g>
	<g
   id="g1106">
		<path
   class="st3"
   d="m 21,45 c -0.8,0.8 -1.3,1.5 -2.1,0.7 v 0 c -0.8,-0.8 -0.1,-1.3 0.7,-2.1 l 9.9,-12.7 c 0.8,-0.8 4.2,-1.5 4.9,-0.7 v 0 c 0.8,0.8 0.1,4.2 -0.7,4.9 z"
   id="path1104" />
	</g>
	<g
   class="st1"
   id="g1110">
		<circle
   class="st2"
   cx="39.599998"
   cy="27.1"
   r="4"
   id="circle1108" />
	</g>
	<g
   class="st1"
   id="g1114">
		<circle
   class="st2"
   cx="45.299999"
   cy="21.5"
   r="2"
   id="circle1112" />
	</g>
	<g
   id="g1118">
		<circle
   class="st0"
   cx="39.599998"
   cy="25.1"
   r="4"
   id="circle1116" />
	</g>
	<g
   id="g1122">
		<circle
   class="st0"
   cx="45.299999"
   cy="19.5"
   r="2"
   id="circle1120" />
	</g>
</g><g
       id="Layer_2">
</g></g><style
     type="text/css"
     id="style1058">
	.st0{fill:#4F5D73;}
	.st1{opacity:0.2;}
	.st2{fill:#231F20;}
	.st3{fill:#C75C5C;}
	.st4{fill:#E0995E;}
	.st5{fill:#F5CF87;}
	.st6{fill:#E0E0D1;}
</style></svg>
