<?xml version="1.0" encoding="UTF-8" standalone="no"?>
<!-- Created with Inkscape (http://www.inkscape.org/) -->

<svg
   width="574.60004"
   height="307.40002"
   viewBox="0 0 152.02959 81.332922"
   version="1.1"
   id="svg1"
   xmlns="http://www.w3.org/2000/svg"
   xmlns:svg="http://www.w3.org/2000/svg">
  <defs
     id="defs1">
    <mask
       maskUnits="userSpaceOnUse"
       x="209.9"
       y="560.3"
       width="420.9"
       height="92.2"
       id="XMLID_20_">
	<g
   id="XMLID_283_"
   class="st8">
		<path
   id="XMLID_209_"
   class="st7"
   d="M 788.8,629.3 H 236.1 c -6,0 -10.9,-4.9 -10.9,-10.9 v -24.5 c 0,-6 4.9,-10.9 10.9,-10.9 h 552.8 c 6,0 10.9,4.9 10.9,10.9 v 24.5 c -0.1,6 -5,10.9 -11,10.9 z" />

	</g>

</mask>
    <mask
       maskUnits="userSpaceOnUse"
       x="616"
       y="557.7"
       width="194.2"
       height="93.3"
       id="XMLID_23_">
	<g
   id="XMLID_305_"
   class="st34">
		<path
   id="XMLID_290_"
   class="st23"
   d="M 788.8,629.3 H 636.7 c -6,0 -10.9,-4.9 -10.9,-10.9 v -24.5 c 0,-6 4.9,-10.9 10.9,-10.9 h 152.1 c 6,0 10.9,4.9 10.9,10.9 v 24.5 c 0,6 -4.9,10.9 -10.9,10.9 z" />

	</g>

</mask>
  </defs>
  <g
     id="layer1"
     transform="translate(-57.485791,-157.26251)">
    <path
       id="XMLID_19_"
       class="st2"
       d="m 201.33975,211.21106 h -13.59958 c -0.58209,0 -1.05834,-0.47625 -1.05834,-1.05834 v -24.07708 c 0,-0.58208 0.47625,-1.05833 1.05834,-1.05833 h 13.59958 c 0.58208,0 1.05833,0.47625 1.05833,1.05833 v 24.07708 c 0,0.58209 -0.47625,1.05834 -1.05833,1.05834 z"
       style="fill:#f8f8f8;stroke-width:0.264583" />
    <path
       id="XMLID_41_"
       class="st3"
       d="m 190.94162,206.95126 4.5773,4.28625 h 5.79437 c 0.58208,0 1.05833,-0.47625 1.05833,-1.05833 v -7.99042 l -4.18041,-2.46062 z"
       style="opacity:0.81;fill:#c1c1c1;stroke-width:0.264583" />
    <path
       id="XMLID_21_"
       class="st4"
       d="m 197.15933,196.79126 h -5.45041 c -0.58209,0 -1.05834,-0.47625 -1.05834,-1.05833 v -5.45042 c 0,-0.58208 0.47625,-1.05833 1.05834,-1.05833 h 5.45041 c 0.58209,0 1.05834,0.47625 1.05834,1.05833 v 5.45042 c 0,0.58208 -0.47625,1.05833 -1.05834,1.05833 z"
       style="opacity:0.85;fill:#dddddd;stroke-width:0.264583" />
    <path
       id="XMLID_5_"
       class="st5"
       d="m 197.95308,207.26876 h -5.45041 c -0.58209,0 -1.05834,-0.47625 -1.05834,-1.05833 v -5.45042 c 0,-0.58208 0.47625,-1.05833 1.05834,-1.05833 h 5.45041 c 0.58209,0 1.05834,0.47625 1.05834,1.05833 v 5.45042 c 0,0.58208 -0.47625,1.05833 -1.05834,1.05833 z"
       style="fill:#030303;stroke-width:0.264583" />
    <path
       id="XMLID_298_"
       class="st6"
       d="m 195.04267,204.91397 v 10.87438 c 0,1.71979 1.40229,3.12208 3.12208,3.12208 h 3.62479 c 1.71979,0 3.12208,1.40229 3.12208,3.12208 v 0 c 0,1.7198 -1.40229,3.12209 -3.12208,3.12209 h -39.58167"
       style="fill:none;stroke:#000000;stroke-width:2.11667;stroke-linecap:round;stroke-linejoin:round;stroke-miterlimit:10" />
    <path
       id="XMLID_16_"
       class="st7"
       d="M 206.60496,238.59543 H 60.369752 c -1.5875,0 -2.883959,-1.29646 -2.883959,-2.88396 v -6.48229 c 0,-1.5875 1.296459,-2.88396 2.883959,-2.88396 H 206.63142 c 1.5875,0 2.88395,1.29646 2.88395,2.88396 v 6.48229 c -0.0264,1.5875 -1.32291,2.88396 -2.91041,2.88396 z"
       style="fill:#d17f4d;stroke-width:0.264583" />
    <g
       id="XMLID_119_"
       class="st9"
       mask="url(#XMLID_20_)"
       transform="matrix(0.26458333,0,0,0.26458333,-2.0983738,72.093142)">
	<path
   id="XMLID_116_"
   class="st10"
   d="m 559,645.8 c -16.7,-28.6 25.1,-60.4 68.8,-65.4"
   style="fill:none;stroke:#c57442;stroke-width:6;stroke-linecap:round;stroke-linejoin:round;stroke-miterlimit:10" />

	<path
   id="XMLID_1_"
   class="st10"
   d="m 472.8,629.2 c 3.1,-3.1 10.2,-9.2 20.5,-10.6 3.4,-0.5 8.3,-1.1 13.6,1.5 7.4,3.6 10,11 10.6,12.8"
   style="fill:none;stroke:#c57442;stroke-width:6;stroke-linecap:round;stroke-linejoin:round;stroke-miterlimit:10" />

	<path
   id="XMLID_6_"
   class="st10"
   d="m 227.3,570.9 c 1.1,3.2 19.8,16.4 46.1,24.3 26.3,7.8 58.1,-1.5 72.6,-31.9"
   style="fill:none;stroke:#c57442;stroke-width:6;stroke-linecap:round;stroke-linejoin:round;stroke-miterlimit:10" />

	<path
   id="XMLID_106_"
   class="st10"
   d="m 212.9,605.1 c 13.2,-8.8 30.7,-5.9 39.6,5.5 7.7,9.8 7.9,24.3 0,35.2"
   style="fill:none;stroke:#c57442;stroke-width:6;stroke-linecap:round;stroke-linejoin:round;stroke-miterlimit:10" />

	<path
   id="XMLID_185_"
   class="st10"
   d="m 222.4,620.9 c 5.2,-5.8 12,-7.9 15.4,-5.9 4,2.4 5.3,11.8 -1.1,20.5"
   style="fill:none;stroke:#c57442;stroke-width:6;stroke-linecap:round;stroke-linejoin:round;stroke-miterlimit:10" />

	<path
   id="XMLID_187_"
   class="st10"
   d="m 276.4,609.2 c -3.5,1.2 -8.5,4.9 -7.7,9.6 0.7,4.5 6.2,7.2 10.5,6.6 6.6,-0.9 15.8,-3.9 16,-14.3 0.1,-3.5 -15.1,-3.2 -18.8,-1.9 z"
   style="fill:none;stroke:#c57442;stroke-width:6;stroke-linecap:round;stroke-linejoin:round;stroke-miterlimit:10" />

	<path
   id="XMLID_192_"
   class="st10"
   d="m 298.7,648 c 4.1,-8 9.2,-38.1 57.2,-50.6 41.9,-11 90.9,7.9 118.9,52.1"
   style="fill:none;stroke:#c57442;stroke-width:6;stroke-linecap:round;stroke-linejoin:round;stroke-miterlimit:10" />

	<path
   id="XMLID_194_"
   class="st10"
   d="m 345.7,620.6 c -15.6,16.4 5.2,39.8 30,-3.4 6.9,-12.1 33.5,3.8 42.9,26.4"
   style="fill:none;stroke:#c57442;stroke-width:6;stroke-linecap:round;stroke-linejoin:round;stroke-miterlimit:10" />

	<path
   id="XMLID_199_"
   class="st10"
   d="m 599.7,649.5 c -9.6,-2.8 -15.2,-25.9 -14.3,-32.8 0.9,-6.6 7.6,-11.4 13.2,-12.1 10.3,-1.4 22.9,10.1 29.2,29.7"
   style="fill:none;stroke:#c57442;stroke-width:6;stroke-linecap:round;stroke-linejoin:round;stroke-miterlimit:10" />

	<path
   id="XMLID_202_"
   class="st10"
   d="m 461.5,565.2 c -1.3,2.2 -6.5,11.1 -3.7,21.3 3.6,13 18,19.3 28.6,19.1 15.4,-0.3 30.2,-14.4 33,-34.5"
   style="fill:none;stroke:#c57442;stroke-width:6;stroke-linecap:round;stroke-linejoin:round;stroke-miterlimit:10" />

	<path
   id="XMLID_197_"
   class="st10"
   d="m 548.9,565.9 c -5,4.9 -36.5,33.7 -10.9,69.1"
   style="fill:none;stroke:#c57442;stroke-width:6;stroke-linecap:round;stroke-linejoin:round;stroke-miterlimit:10" />

	<path
   id="XMLID_262_"
   class="st10"
   d="m 548.2,600.3 c 6,-6.5 21.6,-21.8 45.5,-24.9 6.6,-0.9 12.5,-0.7 17.6,0"
   style="fill:none;stroke:#c57442;stroke-width:6;stroke-linecap:round;stroke-linejoin:round;stroke-miterlimit:10" />

	<path
   id="XMLID_3_"
   class="st10"
   d="m 603.5,617.4 c -2,0.1 -4.9,3.8 -3.5,7 1.5,3.4 6.7,3.6 8,2 1.7,-2.1 -1.7,-9.1 -4.5,-9 z"
   style="fill:none;stroke:#c57442;stroke-width:6;stroke-linecap:round;stroke-linejoin:round;stroke-miterlimit:10" />

	<path
   id="XMLID_4_"
   class="st10"
   d="m 389.5,623.9 c -3.6,-0.4 -9.3,5.5 -7.5,10.5 1.8,4.8 9.4,5.9 12,3.5 3.3,-3.1 -0.2,-13.5 -4.5,-14 z"
   style="fill:none;stroke:#c57442;stroke-width:6;stroke-linecap:round;stroke-linejoin:round;stroke-miterlimit:10" />

</g>
    <path
       id="XMLID_9_"
       class="st11"
       d="m 153.39725,185.54647 h -52.36104 v -16.08666 c 0,-1.45521 1.19062,-2.64584 2.64583,-2.64584 h 47.04292 c 1.45521,0 2.64583,1.19063 2.64583,2.64584 v 16.08666 z"
       style="fill:#b3b3b3;stroke-width:0.264583" />
    <path
       id="XMLID_7_"
       class="st12"
       d="M 151.62454,185.54647 H 99.263501 v -16.08666 c 0,-1.45521 1.190629,-2.64584 2.645829,-2.64584 h 47.06938 c 1.45521,0 2.64583,1.19063 2.64583,2.64584 z"
       style="fill:#d7d7d7;stroke-width:0.264583" />
    <polygon
       id="XMLID_43_"
       class="st13"
       points="581,410.7 562.9,398.2 562.9,441 581,441 "
       transform="matrix(0.26458333,0,0,0.26458333,-2.0983738,72.093142)"
       style="fill:#c1c1c1" />
    <path
       id="XMLID_15_"
       class="st14"
       d="M 144.42787,185.54647 H 107.65079 V 159.1146 c 0,-1.03188 0.82021,-1.85209 1.85209,-1.85209 h 33.33749 c 0.87313,0 1.5875,0.71438 1.5875,1.5875 z"
       style="fill:#e7e7e7;stroke-width:0.264583" />
    <path
       id="XMLID_12_"
       class="st2"
       d="M 143.396,185.54647 H 106.11621 V 159.1146 c 0,-1.03188 0.82021,-1.85209 1.85208,-1.85209 h 33.84021 c 0.87312,0 1.5875,0.71438 1.5875,1.5875 z"
       style="fill:#f8f8f8;stroke-width:0.264583" />
    <path
       id="XMLID_8_"
       class="st15"
       d="m 103.28517,188.77439 h -7.778752 v -8.14917 c 0,-1.74625 1.42875,-3.175 3.175,-3.175 h 4.603752 z"
       style="fill:#dfe1e0;stroke-width:0.264583" />
    <path
       id="XMLID_11_"
       class="st11"
       d="m 105.98392,188.77439 h -7.778752 v -8.14917 c 0,-1.74625 1.42875,-3.175 3.175002,-3.175 h 4.60375 z"
       style="fill:#b3b3b3;stroke-width:0.264583" />
    <path
       id="XMLID_14_"
       class="st15"
       d="m 144.13683,188.77439 h -7.77875 v -8.14917 c 0,-1.74625 1.42875,-3.175 3.175,-3.175 h 4.60375 z"
       style="fill:#dfe1e0;stroke-width:0.264583" />
    <path
       id="XMLID_13_"
       class="st11"
       d="m 146.83558,188.77439 h -7.77875 v -8.14917 c 0,-1.74625 1.42875,-3.175 3.175,-3.175 h 4.60375 z"
       style="fill:#b3b3b3;stroke-width:0.264583" />
    <polygon
       id="XMLID_25_"
       class="st13"
       points="408.5,398.2 470.3,441 426.6,441 408.5,441 "
       transform="matrix(0.26458333,0,0,0.26458333,-2.0983738,72.093142)"
       style="fill:#c1c1c1" />
    <rect
       id="XMLID_32_"
       x="76.694542"
       y="210.78773"
       class="st5"
       width="100.75333"
       height="8.8635416"
       style="fill:#030303;stroke-width:0.264583" />
    <rect
       id="XMLID_27_"
       x="77.435379"
       y="199.99274"
       class="st16"
       width="71.040627"
       height="21.537083"
       style="fill:#272727;stroke-width:0.264583" />
    <polygon
       id="XMLID_71_"
       points="363.5,514.3 517.4,514.3 517.4,550.1 529.3,557.5 529.3,580.4 363.5,580.4 "
       transform="matrix(0.26458333,0,0,0.26458333,-2.0983738,72.093142)" />
    <path
       id="XMLID_35_"
       class="st17"
       d="m 136.30517,204.41126 h -34.79271 c -2.857501,0 -5.159376,2.30188 -5.159376,5.15938 v 10.31875 h 4.736046 v -8.96938 c 0,-1.27 1.03187,-2.30187 2.30187,-2.30187 h 4.47146 c 0.71437,0 1.29646,0.58208 1.29646,1.29646 v 0.60854 h 5.13291 c 0.34396,0 0.60855,-0.29104 0.60855,-0.60854 v 0 c 0,-0.71438 0.58208,-1.29646 1.29645,-1.29646 h 5.47688 c 0.71437,0 1.29646,0.58208 1.29646,1.29646 v 0.60854 h 5.13292 c 0.34395,0 0.60853,-0.29104 0.60853,-0.60854 v 0 c 0,-0.71438 0.58209,-1.29646 1.29646,-1.29646 h 4.47146 c 1.27,0 2.30188,1.03187 2.30188,2.30187 v 2.64584 h 4.73604 v -3.99521 c -0.0529,-2.8575 -2.35479,-5.15938 -5.21229,-5.15938 z"
       style="fill:#212121;stroke-width:0.264583" />
    <path
       id="XMLID_123_"
       class="st18"
       d="M 132.12475,204.41126 H 97.332043 c -2.8575,0 -5.159375,2.30188 -5.159375,5.15938 v 10.31875 h 4.736041 v -8.96938 c 0,-1.27 1.031875,-2.30187 2.301875,-2.30187 h 4.471456 c 0.71438,0 1.29646,0.58208 1.29646,1.29646 v 0 c 0,0.34396 0.29104,0.60854 0.60854,0.60854 h 4.49792 c 0.34396,0 0.60854,-0.29104 0.60854,-0.60854 v 0 c 0,-0.71438 0.58208,-1.29646 1.29646,-1.29646 h 5.47687 c 0.71438,0 1.29646,0.58208 1.29646,1.29646 v 0 c 0,0.34396 0.29104,0.60854 0.60854,0.60854 h 4.49792 c 0.34396,0 0.60854,-0.29104 0.60854,-0.60854 v 0 c 0,-0.71438 0.58209,-1.29646 1.29646,-1.29646 h 4.47146 c 1.27,0 2.30187,1.03187 2.30187,2.30187 v 2.64584 h 4.73604 v -3.99521 c 0,-2.8575 -2.32833,-5.15938 -5.15937,-5.15938 z"
       style="fill:#4c4c4c;stroke-width:0.264583" />
    <path
       id="XMLID_114_"
       class="st16"
       d="M 131.78079,218.83106 H 89.659126 v 7.51416 h 43.100624 9.31333 c -4.23333,0 -9.02229,-2.98979 -10.29229,-7.51416 z"
       style="fill:#272727;stroke-width:0.264583" />
    <polygon
       id="XMLID_33_"
       class="st17"
       points="503.7,558.8 505.9,554.6 481.3,554.6 478.7,560.4 "
       transform="matrix(0.26458333,0,0,0.26458333,-2.0983738,72.093142)"
       style="fill:#212121" />
    <path
       id="XMLID_111_"
       class="st18"
       d="M 131.17225,219.94231 H 89.368085 v 6.40291 h 43.100625 9.31333 c -4.23333,0 -9.33979,-2.54 -10.60979,-6.40291 z"
       style="fill:#4c4c4c;stroke-width:0.264583" />
    <path
       id="XMLID_304_"
       class="st19"
       d="M 127.12413,217.13772 H 96.194334 c -3.492499,0 -6.349999,2.83104 -6.349999,6.35 v 4.92125 0 4.70959 c 0,1.32291 1.084791,2.4077 2.407708,2.4077 h 30.215417 c 2.56646,0 4.65667,-2.0902 4.65667,-4.65666 v -6.08542 c 0,-3.4925 2.83104,-6.35 6.34999,-6.35 h 2.0373 v -1.29646 z"
       style="opacity:0.2;fill:#020202;stroke-width:0.264583" />
    <path
       id="XMLID_186_"
       class="st20"
       d="M 170.46287,185.57293 H 83.679543 c -5.132917,0 -9.313333,4.18042 -9.313333,9.31333 v 19.4998 h 15.054791 v -5.23875 c 0,-2.56646 2.090209,-4.65667 4.656667,-4.65667 h 33.787292 c 2.56646,0 4.65666,2.09021 4.65666,4.65667 v 5.23875 h 47.25459 v -19.4998 c 0,-5.13291 -4.18042,-9.31333 -9.31334,-9.31333 z"
       style="fill:#3e3e3e;stroke-width:0.264583" />
    <path
       id="XMLID_70_"
       class="st21"
       d="m 179.77621,214.41251 v -19.49979 c 0,-5.13291 -4.18042,-9.31333 -9.31334,-9.31333 h -13.38791 c -5.13292,0 -9.31334,4.18042 -9.31334,9.31333 v 19.49979 z"
       style="fill:#2c2c2c;stroke-width:0.264583" />
    <path
       id="XMLID_121_"
       class="st20"
       d="m 177.73892,214.41251 v -19.49979 c 0,-3.54541 -2.88396,-6.40291 -6.40292,-6.40291 h -13.38792 c -3.54541,0 -6.40291,2.88395 -6.40291,6.40291 v 19.49979 z"
       style="fill:#3e3e3e;stroke-width:0.264583" />
    <path
       id="XMLID_73_"
       class="st22"
       d="m 176.86579,214.41251 v -19.49979 c 0,-3.54541 -2.88396,-6.40291 -6.40292,-6.40291 h -13.38791 c -3.54542,0 -6.40292,2.88395 -6.40292,6.40291 v 19.49979 z"
       style="fill:#121212;stroke-width:0.264583" />
    <path
       id="XMLID_17_"
       class="st23"
       d="m 206.60496,238.59543 h -40.24313 c -1.5875,0 -2.88396,-1.29646 -2.88396,-2.88396 v -6.48229 c 0,-1.5875 1.29646,-2.88396 2.88396,-2.88396 h 40.24313 c 1.5875,0 2.88396,1.29646 2.88396,2.88396 v 6.48229 c 0,1.5875 -1.29646,2.88396 -2.88396,2.88396 z"
       style="fill:#a55137;stroke-width:0.264583" />
    <g
       id="XMLID_28_"
       transform="matrix(0.26458333,0,0,0.26458333,-2.0983738,72.093142)">
	<path
   id="XMLID_24_"
   class="st24"
   d="M 669,450.6"
   style="fill:none;stroke:#000000;stroke-linecap:round;stroke-linejoin:round;stroke-miterlimit:10" />

	<path
   id="XMLID_42_"
   class="st24"
   d="M 306.5,581"
   style="fill:none;stroke:#000000;stroke-linecap:round;stroke-linejoin:round;stroke-miterlimit:10" />

</g>
    <rect
       id="XMLID_183_"
       x="105.82516"
       y="212.9044"
       class="st17"
       width="3.9422915"
       height="2.1960416"
       style="fill:#212121;stroke-width:0.264583" />
    <rect
       id="XMLID_39_"
       x="121.96475"
       y="212.9044"
       class="st17"
       width="3.9422915"
       height="2.1960416"
       style="fill:#212121;stroke-width:0.264583" />
    <rect
       id="XMLID_37_"
       x="102.33267"
       y="212.9044"
       class="st18"
       width="3.9422915"
       height="2.1960416"
       style="fill:#4c4c4c;stroke-width:0.264583" />
    <rect
       id="XMLID_109_"
       x="118.44579"
       y="212.9044"
       class="st18"
       width="3.9422915"
       height="1.5081249"
       style="fill:#4c4c4c;stroke-width:0.264583" />
    <rect
       id="XMLID_29_"
       x="106.27496"
       y="214.28023"
       class="st18"
       width="16.113125"
       height="0.82020831"
       style="fill:#4c4c4c;stroke-width:0.264583" />
    <path
       id="XMLID_224_"
       class="st18"
       d="M 142.89329,185.57293 H 83.018085 v 0.82021 c 0,4.92125 3.995208,8.91646 8.916458,8.91646 h 42.015827 c 4.92125,0 8.91646,-3.99521 8.91646,-8.91646 v -0.82021 z"
       style="fill:#4c4c4c;stroke-width:0.264583" />
    <path
       id="XMLID_233_"
       class="st25"
       d="m 91.934543,193.29876 h 42.015827 c 4.52438,0 8.255,-3.3602 8.83709,-7.72583 h -59.69 c 0.582083,4.36563 4.312708,7.72583 8.837083,7.72583 z"
       style="fill:#0e0e0e;stroke-width:0.264583" />
    <path
       id="XMLID_86_"
       class="st26"
       d="M 95.506418,191.20856 H 93.09871 c -0.3175,0 -0.582084,-0.26459 -0.582084,-0.58209 v -0.10583 c 0,-0.3175 0.264584,-0.58208 0.582084,-0.58208 h 2.407708 c 0.3175,0 0.582083,0.26458 0.582083,0.58208 v 0.10583 c 0,0.3175 -0.264583,0.58209 -0.582083,0.58209 z"
       style="fill:#17e09c;stroke-width:0.264583" />
    <path
       id="XMLID_184_"
       class="st27"
       d="m 98.178709,191.20856 h -0.608541 c -0.3175,0 -0.582084,-0.26459 -0.582084,-0.58209 v -0.10583 c 0,-0.3175 0.264584,-0.58208 0.582084,-0.58208 h 0.608541 c 0.3175,0 0.582084,0.26458 0.582084,0.58208 v 0.10583 c 0,0.3175 -0.264584,0.58209 -0.582084,0.58209 z"
       style="fill:#932b3a;stroke-width:0.264583" />
    <path
       id="XMLID_105_"
       class="st28"
       d="m 132.601,190.46772 h -19.94958 c -0.74084,0 -1.34938,-0.60854 -1.34938,-1.34937 v -0.26459 c 0,-0.74083 0.60854,-1.34937 1.34938,-1.34937 H 132.601 c 0.74083,0 1.34937,0.60854 1.34937,1.34937 v 0.26459 c -0.0264,0.74083 -0.60854,1.34937 -1.34937,1.34937 z"
       style="fill:#1f1f1f;stroke-width:0.264583" />
    <path
       id="XMLID_225_"
       class="st29"
       d="m 116.69954,190.46772 h -4.04812 c -0.74084,0 -1.34938,-0.60854 -1.34938,-1.34937 v -0.26459 c 0,-0.74083 0.60854,-1.34937 1.34938,-1.34937 h 4.04812 c 0.74084,0 1.34938,0.60854 1.34938,1.34937 v 0.26459 c 0,0.74083 -0.60854,1.34937 -1.34938,1.34937 z"
       style="fill:#313131;stroke-width:0.264583" />
    <path
       id="XMLID_226_"
       class="st30"
       d="M 117.996,195.33606 H 99.131209 c -0.502708,0 -0.926041,-0.42334 -0.926041,-0.92605 v -0.1852 c 0,-0.50271 0.423333,-0.92605 0.926041,-0.92605 H 117.996 c 0.50271,0 0.92604,0.42334 0.92604,0.92605 v 0.1852 c 0,0.50271 -0.42333,0.92605 -0.92604,0.92605 z"
       style="fill:#5a5a5a;stroke-width:0.264583" />
    <path
       id="XMLID_228_"
       class="st31"
       d="m 106.43371,195.33606 h -4.65667 c -0.50271,0 -0.92604,-0.42334 -0.92604,-0.92605 v -0.1852 c 0,-0.50271 0.42333,-0.92605 0.92604,-0.92605 h 4.65667 c 0.50271,0 0.92604,0.42334 0.92604,0.92605 v 0.1852 c 0,0.50271 -0.42333,0.92605 -0.92604,0.92605 z"
       style="fill:#676767;stroke-width:0.264583" />
    <path
       id="XMLID_193_"
       class="st20"
       d="M 89.421001,215.86772 H 74.36621 v 1.16417 c 0,5.13292 4.180416,9.31333 9.313333,9.31333 h 5.715 v -10.4775 z"
       style="fill:#3e3e3e;stroke-width:0.264583" />
    <path
       id="XMLID_247_"
       class="st32"
       d="m 86.854543,218.77814 h -9.921875 c -0.502708,0 -0.926042,-0.42333 -0.926042,-0.92604 v -0.18521 c 0,-0.50271 0.423334,-0.92604 0.926042,-0.92604 h 9.921875 c 0.502708,0 0.926042,0.42333 0.926042,0.92604 v 0.18521 c 0,0.50271 -0.423334,0.92604 -0.926042,0.92604 z"
       style="fill:#4d4d4d;stroke-width:0.264583" />
    <circle
       id="XMLID_239_"
       class="st33"
       cx="136.35808"
       cy="189.0919"
       r="0.97895831"
       style="fill:#ba8f1c;stroke-width:0.264583" />
    <path
       id="XMLID_259_"
       class="st2"
       d="M 124.21371,215.07397 H 93.283918 c -3.4925,0 -6.35,2.83104 -6.35,6.35 v 4.92125 h 18.891252 v 7.14375 h 13.70541 c 2.56646,0 4.65667,-2.09021 4.65667,-4.65666 v -6.08542 c 0,-3.4925 2.83104,-6.35 6.35,-6.35 h 4.28625 v -1.29646 h -10.60979 z"
       style="fill:#f8f8f8;stroke-width:0.264583" />
    <path
       id="XMLID_115_"
       class="st4"
       d="m 102.86183,218.4871 h -8.757704 c -0.370416,0 -0.661458,-0.29104 -0.661458,-0.66146 v -0.13229 c 0,-0.37042 0.291042,-0.66146 0.661458,-0.66146 h 8.757704 c 0.37042,0 0.66146,0.29104 0.66146,0.66146 v 0.13229 c 0,0.37042 -0.29104,0.66146 -0.66146,0.66146 z"
       style="opacity:0.85;fill:#dddddd;stroke-width:0.264583" />
    <path
       id="XMLID_122_"
       class="st4"
       d="m 109.31767,218.4871 h -4.33917 c -0.37042,0 -0.66146,-0.29104 -0.66146,-0.66146 v -0.13229 c 0,-0.37042 0.29104,-0.66146 0.66146,-0.66146 h 4.33917 c 0.37041,0 0.66146,0.29104 0.66146,0.66146 v 0.13229 c 0,0.37042 -0.29105,0.66146 -0.66146,0.66146 z"
       style="opacity:0.85;fill:#dddddd;stroke-width:0.264583" />
    <path
       id="XMLID_198_"
       class="st4"
       d="m 116.91121,218.4871 h -4.33917 c -0.37041,0 -0.66146,-0.29104 -0.66146,-0.66146 v -0.13229 c 0,-0.37042 0.29105,-0.66146 0.66146,-0.66146 h 4.33917 c 0.37042,0 0.66146,0.29104 0.66146,0.66146 v 0.13229 c 0,0.37042 -0.3175,0.66146 -0.66146,0.66146 z"
       style="opacity:0.85;fill:#dddddd;stroke-width:0.264583" />
    <path
       id="XMLID_189_"
       class="st4"
       d="M 105.53413,221.52981 H 92.516626 c -0.370416,0 -0.661458,-0.29105 -0.661458,-0.66146 v -0.13229 c 0,-0.37042 0.291042,-0.66146 0.661458,-0.66146 h 13.017504 c 0.37041,0 0.66145,0.29104 0.66145,0.66146 v 0.13229 c 0,0.37041 -0.29104,0.66146 -0.66145,0.66146 z"
       style="opacity:0.85;fill:#dddddd;stroke-width:0.264583" />
    <path
       id="XMLID_124_"
       class="st4"
       d="m 115.21788,221.52981 h -5.66209 c -0.37041,0 -0.66146,-0.29105 -0.66146,-0.66146 v -0.13229 c 0,-0.37042 0.29105,-0.66146 0.66146,-0.66146 h 5.66209 c 0.37041,0 0.66145,0.29104 0.66145,0.66146 v 0.13229 c 0,0.37041 -0.29104,0.66146 -0.66145,0.66146 z"
       style="opacity:0.85;fill:#dddddd;stroke-width:0.264583" />
    <path
       id="XMLID_31_"
       class="st14"
       d="m 115.7735,228.83231 v -1.29646 c 0,-1.03188 -0.84667,-1.85209 -1.85208,-1.85209 H 84.896626 c -1.031875,0 -1.852083,0.84667 -1.852083,1.85209 v 1.29646 c 0,2.56645 2.090208,4.65666 4.656667,4.65666 h 32.62312 v 0 c -2.54,-0.0794 -4.55083,-2.14312 -4.55083,-4.65666 z"
       style="fill:#e7e7e7;stroke-width:0.264583" />
    <g
       id="XMLID_303_"
       class="st35"
       mask="url(#XMLID_23_)"
       transform="matrix(0.26458333,0,0,0.26458333,-2.0983738,72.093142)">
	<path
   id="XMLID_162_"
   class="st36"
   d="m 700.8,640 c 0.6,-3 5.6,-24.6 24.9,-33 1.9,-0.8 24,-10.1 33.7,2.2 6.3,8 5.2,22.3 -4.4,33"
   style="fill:none;stroke:#9d472e;stroke-width:6;stroke-linecap:round;stroke-linejoin:round;stroke-miterlimit:10" />

	<path
   id="XMLID_163_"
   class="st36"
   d="m 723.5,648 c -0.2,-2 -1.8,-19.2 8.8,-26.4 3.7,-2.5 10.1,-4.6 12.5,-2.2 2.4,2.4 0.8,9 -4.4,16.1"
   style="fill:none;stroke:#9d472e;stroke-width:6;stroke-linecap:round;stroke-linejoin:round;stroke-miterlimit:10" />

	<path
   id="XMLID_164_"
   class="st36"
   d="m 726.4,562.2 c -7.4,7.7 -28,29.8 -23.5,35.9 4.1,5.6 27.4,-4.1 38.2,-9.5 14.3,-7.2 24.4,-15.8 30.8,-22"
   style="fill:none;stroke:#9d472e;stroke-width:6;stroke-linecap:round;stroke-linejoin:round;stroke-miterlimit:10" />

	<path
   id="XMLID_288_"
   class="st36"
   d="m 802.7,576.1 c -14.4,-1.1 -26.4,4.7 -30.1,13.9 -3.1,7.8 0.7,15.9 2.9,20.5 7.2,15.2 21.8,21.5 27.1,23.5"
   style="fill:none;stroke:#9d472e;stroke-width:6;stroke-linecap:round;stroke-linejoin:round;stroke-miterlimit:10" />

	<path
   id="XMLID_289_"
   class="st36"
   d="m 807.1,598.9 c -5.6,-5.9 -12.9,-6.2 -15.4,-3.7 -2.5,2.6 -1.9,10.1 4.4,15.4"
   style="fill:none;stroke:#9d472e;stroke-width:6;stroke-linecap:round;stroke-linejoin:round;stroke-miterlimit:10" />

	<path
   id="XMLID_87_"
   class="st36"
   d="m 671,635.9 c -9.5,-3.7 -13.7,-13.6 -10.6,-20.9 2.7,-6.5 10.9,-10.3 16.1,-8.4 6.7,2.4 10.9,14.9 5.9,30.4"
   style="fill:none;stroke:#9d472e;stroke-width:6;stroke-linecap:round;stroke-linejoin:round;stroke-miterlimit:10" />

	<path
   id="XMLID_84_"
   class="st36"
   d="m 619,601.1 c 9.4,-2.1 18.9,1.3 23.8,8.4 6.3,9.1 4.3,23.1 -5.9,31.2"
   style="fill:none;stroke:#9d472e;stroke-width:6;stroke-linecap:round;stroke-linejoin:round;stroke-miterlimit:10" />

	<path
   id="XMLID_295_"
   class="st36"
   d="m 682.8,573.6 c -11.1,3.7 -16.8,11.9 -15.4,17.2 1.5,5.6 10.8,9 16.9,7 8.7,-2.8 14.1,-17.7 11,-37.1"
   style="fill:none;stroke:#9d472e;stroke-width:6;stroke-linecap:round;stroke-linejoin:round;stroke-miterlimit:10" />

	<path
   id="XMLID_300_"
   class="st36"
   d="m 693.8,607.7 c -3.1,3.5 -1,9.4 1.5,10.3 3.5,1.3 10.6,-6.2 9.2,-9.5 -1.1,-2.6 -7.4,-4.5 -10.7,-0.8 z"
   style="fill:none;stroke:#9d472e;stroke-width:6;stroke-linecap:round;stroke-linejoin:round;stroke-miterlimit:10" />

	<path
   id="XMLID_302_"
   class="st36"
   d="m 656.4,601.4 c -1.8,-3.3 -11.2,-19.2 -30.8,-24.6"
   style="fill:none;stroke:#9d472e;stroke-width:6;stroke-linecap:round;stroke-linejoin:round;stroke-miterlimit:10" />

</g>
    <g
       id="XMLID_191_"
       transform="matrix(0.26458333,0,0,0.26458333,-2.0983738,72.093142)">
	<path
   id="XMLID_201_"
   class="st20"
   d="m 508.7,543.4 v 4.4 c 0,19.4 15.8,35.2 35.2,35.2 h 108.2 c 19.4,0 35.2,-15.8 35.2,-35.2 v -4.4 z"
   style="fill:#3e3e3e" />

</g>
    <path
       id="XMLID_79_"
       class="st21"
       d="m 147.73517,215.86772 v 1.16417 c 0,5.13292 4.18041,9.31333 9.31333,9.31333 h 13.38792 c 5.13291,0 9.31333,-4.18041 9.31333,-9.31333 v -1.16417 z"
       style="fill:#2c2c2c;stroke-width:0.264583" />
    <path
       id="XMLID_223_"
       class="st20"
       d="m 151.51871,215.86772 v 1.16417 c 0,3.54542 2.88396,6.40292 6.40291,6.40292 h 13.38792 c 3.54542,0 6.40292,-2.88396 6.40292,-6.40292 v -1.16417 z"
       style="fill:#3e3e3e;stroke-width:0.264583" />
    <path
       id="XMLID_72_"
       class="st22"
       d="m 150.64558,215.86772 v 1.16417 c 0,3.54542 2.88396,6.40292 6.40292,6.40292 h 13.38792 c 3.54541,0 6.40291,-2.88396 6.40291,-6.40292 v -1.16417 z"
       style="fill:#121212;stroke-width:0.264583" />
    <path
       id="XMLID_243_"
       class="st32"
       d="m 144.87767,218.77814 h -9.92188 c -0.50271,0 -0.92604,-0.42333 -0.92604,-0.92604 v -0.18521 c 0,-0.50271 0.42333,-0.92604 0.92604,-0.92604 h 9.92188 c 0.5027,0 0.92604,0.42333 0.92604,0.92604 v 0.18521 c 0,0.50271 -0.42334,0.92604 -0.92604,0.92604 z"
       style="fill:#4d4d4d;stroke-width:0.264583" />
    <path
       id="XMLID_18_"
       class="st25"
       d="m 112.916,202.50626 h -3.36021 c -0.50271,0 -0.89958,-0.39687 -0.89958,-0.89958 v -2.59292 c 0,-0.5027 0.39687,-0.89958 0.89958,-0.89958 h 3.36021 c 0.50271,0 0.89958,0.39688 0.89958,0.89958 v 2.59292 c 0,0.50271 -0.39687,0.89958 -0.89958,0.89958 z"
       style="fill:#0e0e0e;stroke-width:0.264583" />
    <path
       id="XMLID_2_"
       class="st11"
       d="m 112.04288,202.50626 h -3.36021 c -0.50271,0 -0.89959,-0.39687 -0.89959,-0.89958 v -2.59292 c 0,-0.5027 0.39688,-0.89958 0.89959,-0.89958 h 3.36021 c 0.5027,0 0.89958,0.39688 0.89958,0.89958 v 2.59292 c 0,0.50271 -0.39688,0.89958 -0.89958,0.89958 z"
       style="fill:#b3b3b3;stroke-width:0.264583" />
    <g
       id="XMLID_30_"
       class="st37"
       transform="matrix(0.26458333,0,0,0.26458333,-2.0983738,72.093142)"
       style="opacity:0.54">
	<path
   id="XMLID_26_"
   class="st25"
   d="m 739.8,462 h -3.4 c -0.5,0 -0.8,-0.4 -0.8,-0.8 v -1.4 c 0,-0.5 0.4,-0.8 0.8,-0.8 h 3.4 c 0.5,0 0.8,0.4 0.8,0.8 v 1.4 c 0,0.5 -0.4,0.8 -0.8,0.8 z"
   style="fill:#0e0e0e" />

	<path
   id="XMLID_34_"
   class="st25"
   d="m 749.2,462 h -3.4 c -0.5,0 -0.8,-0.4 -0.8,-0.8 v -1.4 c 0,-0.5 0.4,-0.8 0.8,-0.8 h 3.4 c 0.5,0 0.8,0.4 0.8,0.8 v 1.4 c 0.1,0.5 -0.3,0.8 -0.8,0.8 z"
   style="fill:#0e0e0e" />

</g>
    <rect
       id="XMLID_77_"
       x="194.14308"
       y="191.31441"
       class="st38"
       width="0.55562496"
       height="0.76729167"
       style="opacity:0.54;fill:#0e0e0e;stroke-width:0.264583" />
    <path
       id="XMLID_22_"
       class="st22"
       d="m 197.15933,207.26876 h -5.45041 c -0.58209,0 -1.05834,-0.47625 -1.05834,-1.05833 v -5.45042 c 0,-0.58208 0.47625,-1.05833 1.05834,-1.05833 h 5.45041 c 0.58209,0 1.05834,0.47625 1.05834,1.05833 v 5.45042 c 0,0.58208 -0.47625,1.05833 -1.05834,1.05833 z"
       style="fill:#121212;stroke-width:0.264583" />
  </g>
</svg>
