<?xml version="1.0" encoding="UTF-8" standalone="no"?>
<svg
   width="16"
   height="16"
   fill="currentColor"
   class="bi bi-chat-right-dots"
   viewBox="0 0 16 16"
   version="1.1"
   id="svg2"
   xmlns="http://www.w3.org/2000/svg"
   xmlns:svg="http://www.w3.org/2000/svg">
  <defs
     id="defs2" />
  <path
     d="M 2,1 A 1,1 0 0 0 1,2 v 8 a 1,1 0 0 0 1,1 h 9.586 A 2,2 0 0 1 13,11.586 l 2,2 V 2 A 1,1 0 0 0 14,1 Z M 14,0 a 2,2 0 0 1 2,2 v 12.793 a 0.5,0.5 0 0 1 -0.854,0.353 L 12.293,12.293 A 1,1 0 0 0 11.586,12 H 2 A 2,2 0 0 1 0,10 V 2 A 2,2 0 0 1 2,0 Z"
     id="path1"
     style="fill:#ffffff" />
  <path
     d="M 5,6 A 1,1 0 1 1 3,6 1,1 0 0 1 5,6 M 9,6 A 1,1 0 1 1 7,6 1,1 0 0 1 9,6 m 4,0 a 1,1 0 1 1 -2,0 1,1 0 0 1 2,0"
     id="path2"
     style="fill:#ffffff" />
</svg>
