<?xml version="1.0" encoding="UTF-8" standalone="no"?>
<svg
   width="16"
   height="16"
   fill="currentColor"
   class="bi bi-people"
   viewBox="0 0 16 16"
   version="1.1"
   id="svg1"
   xmlns="http://www.w3.org/2000/svg"
   xmlns:svg="http://www.w3.org/2000/svg">
  <defs
     id="defs1" />
  <path
     d="m 15,14 c 0,0 1,0 1,-1 0,-1 -1,-4 -5,-4 -4,0 -5,3 -5,4 0,1 1,1 1,1 z M 7.022,13 7,12.996 C 7.001,12.732 7.167,11.966 7.76,11.276 8.312,10.629 9.282,10 11,10 c 1.717,0 2.687,0.63 3.24,1.276 0.593,0.69 0.758,1.457 0.76,1.72 L 14.992,12.998 14.978,13 Z M 11,7 a 2,2 0 1 0 0,-4 2,2 0 0 0 0,4 M 14,5 A 3,3 0 1 1 8,5 3,3 0 0 1 14,5 M 6.936,9.28 A 6,6 0 0 0 5.706,9.033 7,7 0 0 0 5,9 C 1,9 0,12 0,13 q 0,1 1,1 H 5.216 A 2.24,2.24 0 0 1 5,13 C 5,11.99 5.377,10.958 6.09,10.096 6.333,9.802 6.616,9.527 6.936,9.28 M 4.92,10 A 5.5,5.5 0 0 0 4,13 H 1 C 1,12.74 1.164,11.97 1.76,11.276 2.305,10.64 3.252,10.02 4.92,10.001 Z M 1.5,5.5 a 3,3 0 1 1 6,0 3,3 0 0 1 -6,0 m 3,-2 a 2,2 0 1 0 0,4 2,2 0 0 0 0,-4"
     id="path1"
     style="fill:#ffffff" />
</svg>
