<?xml version="1.0" encoding="UTF-8" standalone="no"?>
<svg
   width="16"
   height="16"
   fill="currentColor"
   class="bi bi-gear"
   viewBox="0 0 16 16"
   version="1.1"
   id="svg2"
   xmlns="http://www.w3.org/2000/svg"
   xmlns:svg="http://www.w3.org/2000/svg">
  <defs
     id="defs2" />
  <path
     d="M 8,4.754 A 3.246,3.246 0 1 0 8,11.246 3.246,3.246 0 0 0 8,4.754 M 5.754,8 a 2.246,2.246 0 1 1 4.492,0 2.246,2.246 0 0 1 -4.492,0"
     id="path1"
     style="fill:#ffffff" />
  <path
     d="m 9.796,1.343 c -0.527,-1.79 -3.065,-1.79 -3.592,0 L 6.11,1.662 A 0.873,0.873 0 0 1 4.855,2.182 L 4.563,2.022 C 2.923,1.13 1.13,2.924 2.023,4.563 L 2.182,4.855 A 0.873,0.873 0 0 1 1.662,6.11 L 1.343,6.204 c -1.79,0.527 -1.79,3.065 0,3.592 L 1.662,9.89 a 0.873,0.873 0 0 1 0.52,1.255 l -0.16,0.292 c -0.892,1.64 0.901,3.434 2.541,2.54 l 0.292,-0.159 a 0.873,0.873 0 0 1 1.255,0.52 l 0.094,0.319 c 0.527,1.79 3.065,1.79 3.592,0 L 9.89,14.338 a 0.873,0.873 0 0 1 1.255,-0.52 l 0.292,0.16 c 1.64,0.893 3.434,-0.902 2.54,-2.541 l -0.159,-0.292 a 0.873,0.873 0 0 1 0.52,-1.255 l 0.319,-0.094 c 1.79,-0.527 1.79,-3.065 0,-3.592 L 14.338,6.11 a 0.873,0.873 0 0 1 -0.52,-1.255 l 0.16,-0.292 C 14.871,2.923 13.076,1.13 11.437,2.023 L 11.145,2.182 A 0.873,0.873 0 0 1 9.89,1.662 Z M 7.163,1.626 c 0.246,-0.835 1.428,-0.835 1.674,0 L 8.931,1.945 A 1.873,1.873 0 0 0 11.624,3.06 L 11.915,2.9 c 0.764,-0.415 1.6,0.42 1.184,1.185 L 12.94,4.377 a 1.873,1.873 0 0 0 1.116,2.692 l 0.318,0.094 c 0.835,0.246 0.835,1.428 0,1.674 l -0.319,0.094 a 1.873,1.873 0 0 0 -1.115,2.693 l 0.16,0.291 c 0.415,0.764 -0.42,1.6 -1.185,1.184 L 11.624,12.94 a 1.873,1.873 0 0 0 -2.693,1.116 l -0.094,0.318 c -0.246,0.835 -1.428,0.835 -1.674,0 L 7.069,14.055 A 1.873,1.873 0 0 0 4.377,12.94 L 4.085,13.1 C 3.321,13.515 2.485,12.68 2.901,11.915 L 3.06,11.624 A 1.873,1.873 0 0 0 1.945,8.93 L 1.626,8.836 C 0.791,8.59 0.791,7.408 1.626,7.162 L 1.945,7.068 A 1.873,1.873 0 0 0 3.06,4.377 L 2.9,4.085 C 2.485,3.321 3.32,2.485 4.085,2.901 L 4.377,3.06 A 1.873,1.873 0 0 0 7.069,1.945 Z"
     id="path2"
     style="fill:#ffffff" />
</svg>
